<svg width="75" height="75" viewBox="0 0 75 75" fill="none" xmlns="http://www.w3.org/2000/svg">
<rect width="75" height="75" rx="7" fill="url(#paint0_diamond_313_30)"/>
<path d="M36.98 25.2199C37.6624 25.2199 38.3294 25.0176 38.8967 24.6385C39.4641 24.2594 39.9063 23.7206 40.1674 23.0902C40.4285 22.4598 40.4969 21.7661 40.3637 21.0969C40.2306 20.4277 39.902 19.8129 39.4196 19.3304C38.9371 18.8479 38.3223 18.5194 37.6531 18.3862C36.9838 18.2531 36.2902 18.3214 35.6598 18.5826C35.0294 18.8437 34.4905 19.2859 34.1115 19.8532C33.7324 20.4206 33.53 21.0876 33.53 21.77C33.5327 22.6841 33.897 23.5601 34.5434 24.2066C35.1899 24.853 36.0658 25.2173 36.98 25.2199V25.2199ZM36.98 19.05C37.518 19.05 38.0439 19.2095 38.4912 19.5084C38.9385 19.8072 39.2871 20.232 39.493 20.729C39.6989 21.2261 39.7527 21.773 39.6478 22.3006C39.5428 22.8282 39.2837 23.3129 38.9034 23.6933C38.523 24.0737 38.0383 24.3327 37.5107 24.4377C36.9831 24.5426 36.4361 24.4888 35.9391 24.2829C35.4421 24.077 35.0173 23.7284 34.7184 23.2811C34.4195 22.8338 34.26 22.3079 34.26 21.77C34.26 21.4128 34.3304 21.059 34.4671 20.729C34.6038 20.399 34.8041 20.0992 35.0567 19.8466C35.3093 19.594 35.6091 19.3937 35.9391 19.257C36.2691 19.1203 36.6228 19.05 36.98 19.05Z" fill="white"/>
<path d="M47.9298 21.78H47.7798C47.5296 21.7777 47.2814 21.8252 47.0497 21.9196C46.8179 22.014 46.6072 22.1535 46.4298 22.33C45.1052 23.6573 43.6004 24.7918 41.9598 25.7C40.2814 26.6201 38.6796 27.6735 37.1698 28.85L36.9798 29L36.7898 28.85C35.3414 27.7 33.7993 26.6731 32.1798 25.78C30.5014 24.8757 28.9622 23.7339 27.6098 22.39C27.4242 22.198 27.2021 22.0451 26.9565 21.9404C26.7109 21.8356 26.4468 21.7811 26.1798 21.78C25.9327 21.7762 25.6875 21.8239 25.4598 21.92C25.2051 22.0332 24.9769 22.1983 24.7898 22.4048C24.6027 22.6114 24.4608 22.8547 24.3732 23.1193C24.2857 23.3838 24.2544 23.6638 24.2814 23.9412C24.3083 24.2186 24.393 24.4872 24.5298 24.73C26.6163 27.5929 29.4692 29.8079 32.7598 31.12L32.9498 31.19V49.19C32.9523 49.2873 32.9921 49.38 33.061 49.4488C33.1298 49.5177 33.2225 49.5575 33.3198 49.56H40.6998C40.7962 49.5574 40.8878 49.5173 40.955 49.4482C41.0222 49.3791 41.0599 49.2864 41.0598 49.19V31.19L41.2498 31.11C44.5128 29.8128 47.3467 27.6267 49.4298 24.8C49.6121 24.5175 49.7183 24.1927 49.738 23.8571C49.7577 23.5216 49.6904 23.1866 49.5424 22.8847C49.3945 22.5828 49.171 22.3243 48.8938 22.1342C48.6165 21.9442 48.2947 21.829 47.9598 21.8L47.9298 21.78ZM40.2998 48.85H37.2998V39.51C37.3086 39.457 37.3058 39.4027 37.2915 39.351C37.2772 39.2992 37.2518 39.2511 37.2171 39.2101C37.1824 39.1692 37.1391 39.1362 37.0903 39.1137C37.0416 39.0911 36.9885 39.0794 36.9348 39.0794C36.8811 39.0794 36.828 39.0911 36.7793 39.1137C36.7305 39.1362 36.6873 39.1692 36.6526 39.2101C36.6178 39.2511 36.5925 39.2992 36.5782 39.351C36.5639 39.4027 36.561 39.457 36.5698 39.51V48.85H33.6198V37.26H40.2598L40.2998 48.85ZM48.7798 24.42C47.6398 26.26 44.5698 28.98 40.5298 30.6C40.4614 30.6265 40.4027 30.6732 40.3616 30.734C40.3205 30.7948 40.2989 30.8666 40.2998 30.94V36.58H33.6598V30.99C33.6579 30.9147 33.6342 30.8416 33.5916 30.7795C33.549 30.7174 33.4893 30.6689 33.4198 30.64C29.8298 29.33 26.3198 26.38 25.1298 24.4C25.0407 24.2491 24.9852 24.0808 24.967 23.9065C24.9488 23.7322 24.9683 23.556 25.0243 23.39C25.0803 23.2239 25.1714 23.0719 25.2914 22.9442C25.4114 22.8165 25.5576 22.7162 25.7198 22.65C25.8517 22.5899 25.995 22.5592 26.1398 22.56C26.4893 22.5707 26.8217 22.7137 27.0698 22.96C28.4693 24.3544 30.0623 25.5399 31.7998 26.48C33.4568 27.3757 35.0269 28.4235 36.4898 29.61L36.6098 29.7V33.37C36.601 33.423 36.6039 33.4773 36.6181 33.5291C36.6324 33.5808 36.6578 33.6289 36.6926 33.6699C36.7273 33.7108 36.7705 33.7438 36.8193 33.7663C36.868 33.7889 36.9211 33.8006 36.9748 33.8006C37.0286 33.8006 37.0816 33.7889 37.1304 33.7663C37.1791 33.7438 37.2223 33.7108 37.2571 33.6699C37.2918 33.6289 37.3172 33.5808 37.3315 33.5291C37.3458 33.4773 37.3486 33.423 37.3398 33.37V29.7L37.4598 29.61C38.985 28.4001 40.611 27.3228 42.3198 26.39C44.0183 25.4482 45.5767 24.2735 46.9498 22.9C47.1679 22.6834 47.4624 22.5612 47.7698 22.56H47.8698C48.0508 22.5729 48.2265 22.6263 48.384 22.7164C48.5416 22.8064 48.6768 22.9306 48.7798 23.08C48.907 23.2803 48.9746 23.5127 48.9746 23.75C48.9746 23.9873 48.907 24.2197 48.7798 24.42V24.42Z" fill="white"/>
<path d="M36.98 24.7901C37.5733 24.7901 38.1534 24.6141 38.6467 24.2845C39.14 23.9548 39.5246 23.4863 39.7516 22.9381C39.9787 22.3899 40.0381 21.7867 39.9224 21.2048C39.8066 20.6228 39.5209 20.0883 39.1013 19.6687C38.6818 19.2492 38.1472 18.9634 37.5653 18.8477C36.9833 18.7319 36.3801 18.7913 35.8319 19.0184C35.2838 19.2455 34.8152 19.63 34.4856 20.1233C34.156 20.6167 33.98 21.1967 33.98 21.7901C33.98 22.5857 34.2961 23.3488 34.8587 23.9114C35.4213 24.474 36.1843 24.7901 36.98 24.7901V24.7901ZM36.98 19.36C37.4566 19.36 37.9226 19.5014 38.3189 19.7662C38.7152 20.031 39.0241 20.4074 39.2065 20.8478C39.389 21.2881 39.4367 21.7727 39.3437 22.2402C39.2507 22.7077 39.0212 23.1371 38.6841 23.4742C38.3471 23.8112 37.9177 24.0408 37.4502 24.1337C36.9827 24.2267 36.4981 24.179 36.0577 23.9966C35.6174 23.8142 35.241 23.5053 34.9762 23.109C34.7114 22.7127 34.57 22.2467 34.57 21.77C34.57 21.1309 34.8239 20.5179 35.2759 20.0659C35.7278 19.614 36.3408 19.36 36.98 19.36V19.36Z" fill="#F6EB86"/>
<path d="M47.9099 22.21H47.7698C47.3944 22.223 47.0376 22.3765 46.7698 22.64C45.4215 23.9981 43.886 25.1564 42.2099 26.08C40.489 27.0251 38.85 28.1122 37.3099 29.33L37.0798 29.5099V33.33C37.08 33.3469 37.074 33.3634 37.063 33.3762C37.052 33.3891 37.0366 33.3975 37.0198 33.4C37.0198 33.4 36.9599 33.4 36.9599 33.33V29.5099L36.7298 29.33C35.2469 28.1378 33.6607 27.0803 31.9898 26.17C30.2729 25.2463 28.6997 24.0773 27.3199 22.7C27.0177 22.3964 26.6082 22.224 26.1799 22.22C25.9939 22.2157 25.8093 22.2532 25.6398 22.33C25.437 22.4115 25.2544 22.5362 25.1044 22.6953C24.9545 22.8544 24.8409 23.0441 24.7715 23.2514C24.7021 23.4587 24.6785 23.6786 24.7024 23.8959C24.7263 24.1132 24.7971 24.3227 24.9099 24.5099C26.1299 26.5099 29.6999 29.51 33.3499 30.89C33.3543 30.8993 33.3566 30.9096 33.3566 30.92C33.3566 30.9303 33.3543 30.9406 33.3499 30.95V36.85H40.6098V30.95C40.6046 30.9408 40.6018 30.9305 40.6018 30.92C40.6018 30.9094 40.6046 30.8991 40.6098 30.89C44.7198 29.24 47.8398 26.47 49.0098 24.59C49.1818 24.3343 49.2737 24.0331 49.2737 23.725C49.2737 23.4168 49.1818 23.1157 49.0098 22.86C48.8847 22.6783 48.7214 22.526 48.5315 22.4138C48.3415 22.3015 48.1294 22.232 47.9099 22.21ZM48.5198 24.21C47.4098 26.01 44.3898 28.68 40.4198 30.27C40.2934 30.3199 40.1848 30.4067 40.1082 30.519C40.0315 30.6313 39.9903 30.764 39.9898 30.9V36.18H33.9898V30.9C33.9915 30.7622 33.9499 30.6273 33.871 30.5143C33.7921 30.4013 33.6798 30.3159 33.5498 30.27C30.0298 28.97 26.5498 26.08 25.4198 24.15C25.3554 24.0373 25.3151 23.9124 25.3013 23.7833C25.2876 23.6542 25.3007 23.5237 25.3399 23.4C25.3824 23.2738 25.4518 23.1584 25.5433 23.0618C25.6349 22.9651 25.7463 22.8894 25.8699 22.84C25.9648 22.8001 26.0668 22.7797 26.1698 22.78C26.3029 22.7818 26.4342 22.8102 26.5561 22.8634C26.678 22.9166 26.7881 22.9937 26.8799 23.09C28.3053 24.5026 29.9249 25.7048 31.6899 26.66C33.3245 27.5552 34.8771 28.5925 36.3298 29.7599V33.28C36.3298 33.3693 36.3474 33.4577 36.3816 33.5402C36.4158 33.6227 36.4659 33.6976 36.529 33.7608C36.5922 33.8239 36.6671 33.874 36.7496 33.9082C36.8321 33.9424 36.9205 33.96 37.0098 33.96C37.0987 33.96 37.1866 33.9423 37.2686 33.908C37.3505 33.8737 37.4248 33.8235 37.4872 33.7602C37.5495 33.6969 37.5987 33.6219 37.6318 33.5394C37.6648 33.457 37.6812 33.3688 37.6799 33.28V29.7599C39.1899 28.5622 40.799 27.495 42.4898 26.57C44.2174 25.6156 45.8028 24.424 47.1998 23.03C47.2782 22.9505 47.3717 22.8875 47.4747 22.8446C47.5777 22.8016 47.6882 22.7797 47.7998 22.78H47.8799C48.0396 22.7931 48.193 22.8482 48.3246 22.9397C48.4562 23.0311 48.5613 23.1557 48.6293 23.3008C48.6972 23.4459 48.7257 23.6064 48.7117 23.7661C48.6978 23.9257 48.642 24.0788 48.5498 24.21H48.5198Z" fill="#F6EB86"/>
<path d="M33.9598 36.96H33.3499V49.16H36.9198V39.5099C36.9179 39.5017 36.9181 39.4931 36.9205 39.4849C36.9228 39.4767 36.9272 39.4693 36.9332 39.4633C36.9392 39.4573 36.9466 39.4529 36.9548 39.4506C36.963 39.4483 36.9716 39.448 36.9798 39.45C36.9957 39.45 37.011 39.4563 37.0223 39.4675C37.0335 39.4788 37.0398 39.494 37.0398 39.5099V49.16H40.6098V36.96H33.9598ZM39.9598 48.55H37.6198V39.55C37.6198 39.3723 37.5493 39.2018 37.4236 39.0762C37.298 38.9505 37.1275 38.88 36.9498 38.88C36.7712 38.8799 36.5997 38.9502 36.4725 39.0756C36.3453 39.2009 36.2725 39.3713 36.2698 39.55V48.55H33.9298V37.58H39.9298L39.9598 48.55Z" fill="#F6EB86"/>
<path d="M36.98 25.52C37.724 25.52 38.4514 25.2992 39.07 24.8856C39.6885 24.472 40.1704 23.8842 40.4547 23.1966C40.739 22.5089 40.8129 21.7524 40.667 21.0228C40.5211 20.2931 40.162 19.6232 39.6351 19.0978C39.1083 18.5723 38.4374 18.215 37.7074 18.071C36.9774 17.9271 36.221 18.003 35.5341 18.2891C34.8473 18.5752 34.2607 19.0587 33.8488 19.6783C33.4368 20.298 33.218 21.0259 33.22 21.77C33.22 22.2633 33.3173 22.7518 33.5064 23.2074C33.6955 23.663 33.9726 24.0769 34.3219 24.4252C34.6711 24.7736 35.0857 25.0496 35.5419 25.2374C35.998 25.4253 36.4867 25.5213 36.98 25.52V25.52ZM36.98 18.62C37.603 18.62 38.212 18.8048 38.73 19.1509C39.248 19.497 39.6518 19.989 39.8902 20.5645C40.1286 21.1401 40.191 21.7735 40.0694 22.3845C39.9479 22.9956 39.6479 23.5569 39.2073 23.9974C38.7668 24.4379 38.2055 24.7379 37.5945 24.8595C36.9835 24.981 36.3501 24.9186 35.7745 24.6802C35.1989 24.4418 34.707 24.0381 34.3609 23.5201C34.0147 23.002 33.83 22.393 33.83 21.77C33.8247 21.353 33.9023 20.9391 34.0582 20.5523C34.2141 20.1655 34.4453 19.8135 34.7383 19.5167C35.0314 19.22 35.3804 18.9843 35.7652 18.8236C36.15 18.6628 36.5629 18.58 36.98 18.58V18.62Z" fill="#F6EB86"/>
<path d="M47.96 21.4799H47.78C47.193 21.4793 46.6293 21.7091 46.21 22.1199C44.9086 23.4301 43.427 24.548 41.81 25.4399C40.1174 26.3537 38.502 27.4038 36.98 28.5799C35.5052 27.4185 33.9365 26.3816 32.29 25.4799C30.6412 24.5872 29.1291 23.4624 27.8 22.1399C27.3641 21.6978 26.7709 21.4461 26.15 21.4399C25.8616 21.4413 25.5762 21.499 25.31 21.6099C25.0097 21.7367 24.74 21.9263 24.5192 22.1661C24.2984 22.4059 24.1316 22.6902 24.03 22.9999C23.9296 23.3052 23.8964 23.6286 23.9327 23.9479C23.9689 24.2672 24.0738 24.5749 24.24 24.8499C25.5 26.9499 28.93 29.8499 32.61 31.3699V49.1899C32.6126 49.3685 32.6854 49.539 32.8127 49.6643C32.9399 49.7897 33.1114 49.86 33.29 49.8599H40.67C40.8477 49.8599 41.0181 49.7893 41.1438 49.6637C41.2694 49.538 41.34 49.3676 41.34 49.1899V31.3899C44.6667 30.0736 47.5541 27.8448 49.67 24.9599C49.9146 24.5794 50.0405 24.1346 50.0316 23.6823C50.0227 23.23 49.8794 22.7906 49.62 22.4199C49.4296 22.1507 49.182 21.9269 48.8951 21.7644C48.6081 21.6019 48.2888 21.5048 47.96 21.4799ZM49.14 24.6399C47.99 26.5099 45.05 29.1399 41.14 30.8299L40.77 30.9799V49.2199C40.77 49.2359 40.7637 49.2511 40.7524 49.2624C40.7412 49.2736 40.7259 49.2799 40.71 49.2799H33.33C33.3141 49.2799 33.2988 49.2736 33.2876 49.2624C33.2763 49.2511 33.27 49.2359 33.27 49.2199V30.9899L32.88 30.8299C29.33 29.3999 25.98 26.5299 24.81 24.5699C24.6865 24.3702 24.6082 24.1459 24.5805 23.9127C24.5529 23.6794 24.5766 23.443 24.65 23.2199C24.7263 22.9959 24.8497 22.7907 25.0118 22.6182C25.1739 22.4458 25.3711 22.31 25.59 22.2199C25.7799 22.1399 25.984 22.0991 26.19 22.0999C26.6508 22.1081 27.0896 22.2987 27.41 22.6299C28.7839 23.9887 30.3425 25.1468 32.04 26.0699C33.6565 26.9363 35.1955 27.94 36.64 29.0699L37.02 29.3699L37.4 29.0699C38.8941 27.9001 40.4829 26.8565 42.15 25.9499C43.8134 25.0241 45.3411 23.8733 46.69 22.5299C46.838 22.3808 47.014 22.2625 47.208 22.1819C47.4019 22.1012 47.61 22.0597 47.82 22.0599H47.95C48.1891 22.0779 48.4214 22.1481 48.6305 22.2656C48.8395 22.3831 49.0203 22.545 49.16 22.7399C49.3574 23.0165 49.4652 23.347 49.4687 23.6868C49.4723 24.0266 49.3715 24.3593 49.18 24.6399H49.14Z" fill="#F6EB86"/>
<path d="M47.96 21.4799H47.78C47.193 21.4793 46.6293 21.7091 46.21 22.1199C44.9086 23.4301 43.427 24.548 41.81 25.4399C40.1174 26.3537 38.502 27.4038 36.98 28.5799C35.5052 27.4185 33.9365 26.3816 32.29 25.4799C30.6412 24.5872 29.1291 23.4624 27.8 22.1399C27.3641 21.6978 26.7709 21.4461 26.15 21.4399C25.8616 21.4413 25.5762 21.499 25.31 21.6099C25.0097 21.7367 24.74 21.9263 24.5192 22.1661C24.2984 22.4059 24.1316 22.6902 24.03 22.9999C23.9296 23.3052 23.8964 23.6286 23.9327 23.9479C23.9689 24.2672 24.0738 24.5749 24.24 24.8499C25.5 26.9499 28.93 29.8499 32.61 31.3699V49.1899C32.6126 49.3685 32.6854 49.539 32.8127 49.6643C32.9399 49.7897 33.1114 49.86 33.29 49.8599H40.67C40.8477 49.8599 41.0181 49.7893 41.1438 49.6637C41.2694 49.538 41.34 49.3676 41.34 49.1899V31.3899C44.6667 30.0736 47.5541 27.8448 49.67 24.9599C49.9146 24.5794 50.0405 24.1346 50.0316 23.6823C50.0227 23.23 49.8794 22.7906 49.62 22.4199C49.4296 22.1507 49.182 21.9269 48.8951 21.7644C48.6081 21.6019 48.2888 21.5048 47.96 21.4799ZM49.4 24.7999C47.3169 27.6266 44.483 29.8127 41.22 31.1099L41.03 31.1899V49.1899C41.03 49.2864 40.9924 49.379 40.9252 49.4481C40.8579 49.5172 40.7664 49.5573 40.67 49.5599H33.29C33.1927 49.5574 33.1 49.5176 33.0312 49.4488C32.9623 49.3799 32.9225 49.2873 32.92 49.1899V31.1899L32.73 31.1199C29.4394 29.8079 26.5865 27.5928 24.5 24.7299C24.3078 24.4354 24.1993 24.0942 24.1861 23.7428C24.1728 23.3914 24.2554 23.043 24.4248 22.7348C24.5943 22.4267 24.8444 22.1704 25.1482 21.9934C25.4521 21.8164 25.7984 21.7253 26.15 21.7299C26.417 21.731 26.6811 21.7855 26.9267 21.8903C27.1723 21.9951 27.3944 22.148 27.58 22.3399C28.9398 23.702 30.4891 24.8606 32.18 25.7799C33.8099 26.6716 35.362 27.6986 36.82 28.8499L37.01 28.9999L37.2 28.8499C38.7074 27.6701 40.3095 26.6165 41.99 25.6999C43.6306 24.7917 45.1354 23.6573 46.46 22.3299C46.6374 22.1535 46.8481 22.014 47.0798 21.9196C47.3116 21.8251 47.5598 21.7777 47.81 21.7799H47.96C48.2949 21.809 48.6166 21.9241 48.8939 22.1142C49.1712 22.3042 49.3947 22.5627 49.5426 22.8646C49.6905 23.1665 49.7579 23.5015 49.7382 23.8371C49.7184 24.1727 49.6123 24.4975 49.43 24.7799L49.4 24.7999Z" fill="#E59323"/>
<path d="M36.98 24.48C37.5184 24.48 38.0447 24.3203 38.4922 24.0209C38.9398 23.7216 39.2884 23.2962 39.4939 22.7986C39.6995 22.301 39.7528 21.7536 39.647 21.2257C39.5413 20.6978 39.2812 20.2132 38.8998 19.8332C38.5184 19.4532 38.0328 19.1949 37.5045 19.0911C36.9762 18.9873 36.429 19.0426 35.9322 19.25C35.4354 19.4574 35.0113 19.8076 34.7136 20.2562C34.4159 20.7048 34.258 21.2317 34.26 21.77C34.26 22.1268 34.3305 22.48 34.4673 22.8094C34.6041 23.1389 34.8046 23.4381 35.0573 23.6898C35.31 23.9416 35.61 24.141 35.9399 24.2766C36.2698 24.4122 36.6233 24.4814 36.98 24.48V24.48ZM36.98 19.36C37.4567 19.36 37.9226 19.5014 38.319 19.7662C38.7153 20.031 39.0242 20.4074 39.2066 20.8478C39.389 21.2881 39.4367 21.7727 39.3437 22.2402C39.2507 22.7077 39.0212 23.1371 38.6842 23.4742C38.3471 23.8112 37.9177 24.0407 37.4502 24.1337C36.9827 24.2267 36.4982 24.179 36.0578 23.9966C35.6174 23.8142 35.241 23.5053 34.9762 23.109C34.7114 22.7127 34.5701 22.2467 34.5701 21.77C34.5701 21.1309 34.824 20.5179 35.2759 20.0659C35.7279 19.614 36.3409 19.36 36.98 19.36V19.36Z" fill="#E59323"/>
<path d="M47.8799 22.51H47.7699C47.4625 22.5112 47.1679 22.6334 46.9499 22.85C45.5768 24.2235 44.0184 25.3982 42.3199 26.34C40.6111 27.2728 38.9851 28.3501 37.4599 29.56L37.3399 29.65V33.32C37.3487 33.373 37.3458 33.4273 37.3316 33.4791C37.3173 33.5309 37.2919 33.5789 37.2571 33.6199C37.2224 33.6609 37.1792 33.6938 37.1304 33.7164C37.0817 33.7389 37.0286 33.7507 36.9749 33.7507C36.9212 33.7507 36.8681 33.7389 36.8194 33.7164C36.7706 33.6938 36.7274 33.6609 36.6926 33.6199C36.6579 33.5789 36.6325 33.5309 36.6182 33.4791C36.6039 33.4273 36.6011 33.373 36.6099 33.32V29.65L36.4899 29.56C35.0245 28.3769 33.4547 27.3293 31.7999 26.43C30.0624 25.4899 28.4694 24.3044 27.0699 22.91C26.8218 22.6637 26.4894 22.5207 26.1399 22.51C25.995 22.5092 25.8517 22.54 25.7199 22.6C25.5576 22.6662 25.4115 22.7665 25.2915 22.8942C25.1715 23.0219 25.0804 23.1739 25.0244 23.34C24.9684 23.5061 24.9488 23.6822 24.9671 23.8565C24.9853 24.0308 25.0408 24.1991 25.1299 24.35C26.3199 26.35 29.8299 29.28 33.4099 30.59C33.4813 30.6174 33.5431 30.6652 33.5875 30.7274C33.632 30.7897 33.6571 30.8636 33.6599 30.94V36.58H40.2999V30.99C40.299 30.9167 40.3206 30.8448 40.3617 30.784C40.4028 30.7233 40.4615 30.6765 40.5299 30.65C44.5299 29.03 47.6399 26.31 48.7799 24.47C48.9016 24.2942 48.975 24.0894 48.9926 23.8763C49.0102 23.6631 48.9715 23.4491 48.8804 23.2556C48.7892 23.0622 48.6488 22.8961 48.4732 22.774C48.2976 22.6519 48.093 22.5781 47.8799 22.56V22.51ZM48.5199 24.25C47.4099 26.05 44.3899 28.72 40.4199 30.31C40.2934 30.36 40.1849 30.4468 40.1082 30.5591C40.0316 30.6714 39.9904 30.8041 39.9899 30.94V36.22H33.9899V30.94C33.9915 30.8022 33.9499 30.6674 33.871 30.5544C33.7921 30.4414 33.6798 30.356 33.5499 30.31C30.0299 29.01 26.5499 26.12 25.4199 24.19C25.3555 24.0773 25.3151 23.9525 25.3014 23.8234C25.2876 23.6943 25.3007 23.5638 25.3399 23.44C25.3825 23.3139 25.4519 23.1985 25.5434 23.1018C25.6349 23.0052 25.7463 22.9295 25.8699 22.88C25.9649 22.8402 26.0669 22.8198 26.1699 22.82C26.3029 22.8219 26.4342 22.8503 26.5561 22.9035C26.6781 22.9567 26.7881 23.0337 26.8799 23.13C28.3053 24.5427 29.9249 25.7448 31.6899 26.7C33.3245 27.5953 34.8771 28.6326 36.3299 29.8V33.32C36.3299 33.5004 36.4015 33.6733 36.5291 33.8009C36.6566 33.9284 36.8295 34 37.0099 34C37.0987 34 37.1867 33.9824 37.2686 33.9481C37.3505 33.9138 37.4249 33.8636 37.4872 33.8003C37.5496 33.737 37.5987 33.6619 37.6318 33.5795C37.6649 33.4971 37.6812 33.4089 37.6799 33.32V29.8C39.1899 28.6023 40.799 27.5351 42.4899 26.61C44.2174 25.6557 45.8028 24.4641 47.1999 23.07C47.2783 22.9906 47.3717 22.9276 47.4747 22.8846C47.5777 22.8417 47.6883 22.8198 47.7999 22.82H47.8799C48.0396 22.8332 48.193 22.8883 48.3246 22.9797C48.4562 23.0712 48.5613 23.1958 48.6293 23.3409C48.6973 23.486 48.7257 23.6465 48.7118 23.8061C48.6978 23.9658 48.642 24.1189 48.5499 24.25H48.5199Z" fill="#E59323"/>
<path d="M36.98 25.52C37.724 25.52 38.4514 25.2992 39.07 24.8856C39.6885 24.472 40.1704 23.8842 40.4547 23.1966C40.739 22.5089 40.8129 21.7524 40.667 21.0228C40.5211 20.2931 40.162 19.6232 39.6351 19.0978C39.1083 18.5723 38.4374 18.215 37.7074 18.071C36.9774 17.9271 36.221 18.003 35.5341 18.2891C34.8473 18.5752 34.2607 19.0587 33.8488 19.6783C33.4368 20.298 33.218 21.0259 33.22 21.77C33.22 22.2633 33.3173 22.7518 33.5064 23.2074C33.6955 23.663 33.9726 24.0769 34.3219 24.4252C34.6711 24.7736 35.0857 25.0496 35.5419 25.2374C35.998 25.4253 36.4867 25.5213 36.98 25.52V25.52ZM36.98 18.32C37.6623 18.32 38.3293 18.5223 38.8967 18.9014C39.464 19.2805 39.9062 19.8193 40.1674 20.4497C40.4285 21.0801 40.4968 21.7738 40.3637 22.4431C40.2306 23.1123 39.902 23.727 39.4195 24.2095C38.937 24.692 38.3223 25.0206 37.653 25.1537C36.9838 25.2868 36.2901 25.2185 35.6597 24.9574C35.0293 24.6963 34.4905 24.2541 34.1114 23.6867C33.7323 23.1194 33.53 22.4524 33.53 21.77C33.53 20.855 33.8934 19.9775 34.5404 19.3305C35.1874 18.6835 36.065 18.32 36.98 18.32V18.32Z" fill="#E59323"/>
<path d="M33.9599 37.26H33.6599V48.85H36.6099V39.51C36.6011 39.457 36.6039 39.4028 36.6182 39.351C36.6325 39.2992 36.6579 39.2511 36.6927 39.2102C36.7274 39.1692 36.7706 39.1363 36.8194 39.1137C36.8681 39.0911 36.9212 39.0794 36.9749 39.0794C37.0286 39.0794 37.0817 39.0911 37.1304 39.1137C37.1792 39.1363 37.2224 39.1692 37.2571 39.2102C37.2919 39.2511 37.3173 39.2992 37.3316 39.351C37.3459 39.4028 37.3487 39.457 37.3399 39.51V48.85H40.3399V37.26H33.9999H33.9599ZM39.9599 48.55H37.6199V39.55C37.6199 39.3723 37.5493 39.2019 37.4237 39.0762C37.298 38.9506 37.1276 38.88 36.9499 38.88C36.7713 38.88 36.5998 38.9503 36.4726 39.0756C36.3453 39.201 36.2725 39.3714 36.2699 39.55V48.55H33.9299V37.58H39.9299L39.9599 48.55Z" fill="#E59323"/>
<path d="M36.72 52.2V55.72H35.96V56.09H38.31V55.72H37.63V51.58H36.76C36.4892 51.9191 36.148 52.1955 35.76 52.39L35.86 52.65L36.72 52.2Z" fill="#E4F5FF"/>
<path d="M53.2798 52.29H44.1798V49.22C44.1798 49.1218 44.1408 49.0277 44.0714 48.9583C44.0021 48.889 43.9079 48.85 43.8098 48.85H30.1798C30.0825 48.8525 29.9898 48.8923 29.921 48.9611C29.8521 49.03 29.8123 49.1226 29.8098 49.22V52.29H20.6798C20.5825 52.2925 20.4898 52.3323 20.421 52.4011C20.3521 52.47 20.3123 52.5626 20.3098 52.66V58.31C20.3098 58.3586 20.3194 58.4067 20.338 58.4516C20.3566 58.4965 20.3838 58.5372 20.4182 58.5716C20.4525 58.606 20.4933 58.6332 20.5382 58.6518C20.5831 58.6704 20.6312 58.68 20.6798 58.68H53.2798C53.3284 58.68 53.3765 58.6704 53.4214 58.6518C53.4663 58.6332 53.5071 58.606 53.5414 58.5716C53.5758 58.5372 53.603 58.4965 53.6216 58.4516C53.6402 58.4067 53.6498 58.3586 53.6498 58.31V52.66C53.6473 52.5626 53.6075 52.47 53.5386 52.4011C53.4698 52.3323 53.3771 52.2925 53.2798 52.29V52.29ZM29.7898 57.95H21.0398V53.03H29.7898V57.95ZM43.4298 57.95H30.5298V49.58H43.4298V57.95ZM52.9098 57.95H44.1798V53.03H52.9298L52.9098 57.95Z" fill="#E4F5FF"/>
<path d="M21.35 52.72H20.74V58.25H30.1V52.72H21.35ZM29.49 57.64H21.35V53.33H29.49V57.64Z" fill="#9FDAF9"/>
<path d="M30.8399 49.28H30.1799V58.28H43.6899V49.28H30.8399ZM43.1199 52.66V57.66H30.8399V49.91H43.1199V52.66Z" fill="#9FDAF9"/>
<path d="M53.28 51.9901H44.47V49.22C44.4674 49.0414 44.3946 48.871 44.2673 48.7457C44.1401 48.6203 43.9686 48.55 43.79 48.55H30.18C30.092 48.55 30.0049 48.5674 29.9236 48.601C29.8423 48.6347 29.7685 48.6841 29.7062 48.7463C29.644 48.8085 29.5947 48.8824 29.561 48.9637C29.5273 49.0449 29.51 49.1321 29.51 49.22V51.9901H20.68C20.5014 51.99 20.3299 52.0603 20.2027 52.1857C20.0754 52.311 20.0026 52.4814 20 52.66V58.31C20 58.4904 20.0716 58.6634 20.1992 58.7909C20.3267 58.9184 20.4996 58.9901 20.68 58.9901H53.28C53.3688 58.9901 53.4568 58.9724 53.5387 58.9381C53.6207 58.9038 53.695 58.8536 53.7573 58.7903C53.8197 58.727 53.8688 58.652 53.9019 58.5695C53.935 58.4871 53.9513 58.3989 53.95 58.31V52.66C53.95 52.4824 53.8794 52.3119 53.7538 52.1863C53.6281 52.0606 53.4577 51.9901 53.28 51.9901V51.9901ZM53.34 58.31C53.3402 58.327 53.3342 58.3434 53.3232 58.3563C53.3121 58.3692 53.2968 58.3776 53.28 58.3801H20.68C20.68 58.3801 20.62 58.38 20.62 58.31V52.66C20.62 52.6522 20.6216 52.6444 20.6246 52.6371C20.6276 52.6298 20.632 52.6232 20.6376 52.6176C20.6431 52.612 20.6498 52.6076 20.657 52.6046C20.6643 52.6016 20.6721 52.6001 20.68 52.6001H30.1V49.22C30.1 49.2041 30.1063 49.1889 30.1176 49.1776C30.1288 49.1664 30.1441 49.16 30.16 49.16H43.79C43.8059 49.16 43.8212 49.1664 43.8324 49.1776C43.8437 49.1889 43.85 49.2041 43.85 49.22V52.58H53.28C53.2879 52.58 53.2957 52.5816 53.3029 52.5846C53.3102 52.5876 53.3168 52.5921 53.3224 52.5976C53.328 52.6032 53.3324 52.6098 53.3354 52.6171C53.3384 52.6244 53.34 52.6322 53.34 52.64V58.31Z" fill="#9FDAF9"/>
<path d="M44.4698 52.72H43.8499V58.25H53.1798V52.72H44.4298H44.4698ZM52.5999 57.64H44.4698V53.33H52.5999V57.64Z" fill="#9FDAF9"/>
<path d="M36.4099 52.68V55.42H35.6499V56.42H38.6499V55.42H37.9699V51.25H36.6499C36.3233 51.6947 35.8804 52.0407 35.3699 52.25L35.6999 53.07L36.4099 52.68ZM37.0199 55.42V51.86H37.3199V55.78H37.0199V55.42Z" fill="#9FDAF9"/>
<path d="M21.3498 53.03H21.0398V57.95H29.7898V53.03H21.3498ZM29.4898 57.64H21.3498V53.33H29.4898V57.64Z" fill="#76CFF8"/>
<path d="M53.28 51.9901H44.47V49.22C44.4674 49.0414 44.3946 48.871 44.2673 48.7457C44.1401 48.6203 43.9686 48.55 43.79 48.55H30.18C30.092 48.55 30.0049 48.5674 29.9236 48.601C29.8423 48.6347 29.7685 48.6841 29.7062 48.7463C29.644 48.8085 29.5947 48.8824 29.561 48.9637C29.5273 49.0449 29.51 49.1321 29.51 49.22V51.9901H20.68C20.5014 51.99 20.3299 52.0603 20.2027 52.1857C20.0754 52.311 20.0026 52.4814 20 52.66V58.31C20 58.4904 20.0716 58.6634 20.1992 58.7909C20.3267 58.9184 20.4996 58.9901 20.68 58.9901H53.28C53.3688 58.9901 53.4568 58.9724 53.5387 58.9381C53.6207 58.9038 53.695 58.8536 53.7573 58.7903C53.8197 58.727 53.8688 58.652 53.9019 58.5695C53.935 58.4871 53.9513 58.3989 53.95 58.31V52.66C53.95 52.4824 53.8794 52.3119 53.7538 52.1863C53.6281 52.0606 53.4577 51.9901 53.28 51.9901V51.9901ZM53.64 58.31C53.6413 58.3582 53.633 58.406 53.6155 58.4509C53.598 58.4957 53.5717 58.5366 53.5381 58.5711C53.5046 58.6056 53.4644 58.633 53.4201 58.6517C53.3758 58.6704 53.3281 58.6801 53.28 58.6801H20.68C20.5819 58.6801 20.4878 58.6411 20.4184 58.5717C20.349 58.5023 20.31 58.4082 20.31 58.31V52.66C20.3125 52.5627 20.3523 52.4701 20.4212 52.4012C20.49 52.3324 20.5827 52.2926 20.68 52.2901H29.79V49.22C29.7925 49.1227 29.8323 49.0301 29.9012 48.9612C29.97 48.8924 30.0627 48.8526 30.16 48.8501H43.79C43.8386 48.8501 43.8867 48.8596 43.9316 48.8782C43.9765 48.8968 44.0173 48.9241 44.0516 48.9584C44.086 48.9928 44.1132 49.0336 44.1318 49.0785C44.1504 49.1234 44.16 49.1715 44.16 49.22V52.2901H53.28C53.3764 52.2927 53.4679 52.3328 53.5352 52.4019C53.6024 52.471 53.64 52.5636 53.64 52.66V58.31Z" fill="#76CFF8"/>
<path d="M30.84 49.58H30.53V57.94H43.43V49.58H30.84ZM43.12 52.65V57.65H30.84V49.9H43.12V52.65Z" fill="#76CFF8"/>
<path d="M36.4099 52.68V55.42H35.6499V56.42H38.6499V55.42H37.9699V51.25H36.6499C36.3233 51.6947 35.8804 52.0407 35.3699 52.25L35.6999 53.07L36.4099 52.68ZM36.7599 51.55H37.6299V55.72H38.3099V56.09H35.9599V55.72H36.7199V52.2L36.2799 52.41L35.8299 52.62L35.7299 52.36C36.1258 52.1779 36.4773 51.9117 36.7599 51.58V51.55Z" fill="#76CFF8"/>
<path d="M44.4699 53.03H44.1799V57.95H52.9299V53.03H44.4899H44.4699ZM52.5999 57.64H44.4699V53.33H52.5999V57.64Z" fill="#76CFF8"/>
<defs>
<radialGradient id="paint0_diamond_313_30" cx="0" cy="0" r="1" gradientUnits="userSpaceOnUse" gradientTransform="translate(37.5 37.5) rotate(45.9496) scale(64.0019 66.4472)">
<stop offset="0.553067" stop-color="#5B0C88"/>
<stop offset="0.755325" stop-color="#340450"/>
</radialGradient>
</defs>
</svg>
