<svg width="75" height="75" viewBox="0 0 75 75" fill="none" xmlns="http://www.w3.org/2000/svg">
<rect width="75" height="75" rx="7" fill="url(#paint0_diamond_301_13)"/>
<path d="M50.4061 29.7901C48.9227 28.5391 47.056 27.8334 45.1161 27.7901C43.6867 27.808 42.2882 28.2085 41.0661 28.9501C40.5311 29.2597 39.9646 29.5111 39.3761 29.7001L38.9161 29.8501L38.9761 29.3801C39.1661 27.7401 39.7561 24.6901 41.6261 22.7301C41.8231 22.5243 41.9684 22.2746 42.0501 22.0017C42.1319 21.7287 42.1476 21.4403 42.0961 21.1601C42.0455 20.8652 41.9294 20.5855 41.7563 20.3415C41.5832 20.0974 41.3576 19.8953 41.0961 19.7501C40.8175 19.6073 40.5092 19.532 40.1961 19.5301C39.9418 19.5286 39.6899 19.5794 39.456 19.6791C39.2221 19.7789 39.0111 19.9256 38.8361 20.1101C38.4061 20.5501 37.9761 21.0301 37.5661 21.5101L37.1261 22.0301L37.0261 21.3601C36.8053 19.7258 36.0616 18.2068 34.9061 17.0301C32.977 15.3116 30.4895 14.3521 27.9061 14.3301C27.829 14.3301 27.7538 14.3542 27.691 14.399C27.6283 14.4438 27.5811 14.5071 27.5561 14.5801C26.5561 17.7201 26.6161 20.3401 27.8461 22.3601C29.3161 24.7901 32.0961 25.8301 34.1761 26.2701L34.5161 26.3501L34.3961 26.6801C34.1352 27.3859 33.9639 28.1216 33.8861 28.8701L33.8361 29.3201L33.4361 29.1101L33.3261 29.0501L33.1261 28.9501C31.904 28.2085 30.5055 27.808 29.0761 27.7901C27.1362 27.8334 25.2695 28.5391 23.7861 29.7901C19.3061 33.3101 19.5561 40.5901 22.1161 45.9501C23.0061 47.8101 26.3761 53.8501 32.5861 53.8501H32.9561H33.4561L33.2461 54.3001V54.3901C33.1998 54.5568 33.1939 54.7322 33.2288 54.9017C33.2637 55.0713 33.3385 55.23 33.447 55.3649C33.5555 55.4997 33.6945 55.6068 33.8526 55.6773C34.0107 55.7478 34.1833 55.7796 34.3561 55.7701C36.1649 55.4091 38.0273 55.4091 39.8361 55.7701H39.9061C40.0759 55.7705 40.2435 55.7319 40.3961 55.6574C40.5487 55.5828 40.6821 55.4743 40.7861 55.3401C40.8966 55.2014 40.9709 55.0374 41.0024 54.8628C41.0338 54.6883 41.0213 54.5086 40.9661 54.3401V54.2501L40.7561 53.8001H41.2561H41.6161C47.8361 53.8001 51.2061 47.8001 52.0861 45.9101C54.6361 40.5901 54.8861 33.3101 50.4061 29.7901ZM36.6461 23.9301C36.7461 23.7701 36.8561 23.6101 36.9661 23.4601C37.6814 22.4472 38.4738 21.4911 39.3361 20.6001C39.4475 20.4883 39.58 20.3998 39.7259 20.3397C39.8719 20.2796 40.0283 20.2491 40.1861 20.2501C40.3773 20.2478 40.5661 20.2925 40.7361 20.3801C40.9031 20.4678 41.0477 20.5929 41.1587 20.7455C41.2697 20.8981 41.3441 21.0741 41.3761 21.2601C41.4078 21.4277 41.3989 21.6005 41.3501 21.7641C41.3014 21.9276 41.2143 22.0771 41.0961 22.2001C38.8561 24.5601 38.3161 28.2001 38.1961 29.7301V29.9801H37.9461C37.6707 30.015 37.3937 30.035 37.1161 30.0401C36.3406 30.0275 35.5717 29.896 34.8361 29.6501L34.6161 29.5701V29.3401C34.6799 28.2403 34.9478 27.1619 35.4061 26.1601C35.6189 25.6849 35.8559 25.221 36.1161 24.7701L36.1861 24.6501L36.5161 24.1101L36.6461 23.9301ZM28.4861 21.9301C27.4861 20.2001 27.3161 17.9301 28.1261 15.2501L28.1961 15.0201H28.4361C30.6333 15.1412 32.7242 16.0051 34.3661 17.4701C35.0355 18.1861 35.5567 19.0274 35.9 19.9455C36.2432 20.8636 36.4016 21.8405 36.3661 22.8201V22.9201L36.3161 23.0001C36.1961 23.1701 36.0761 23.3401 35.9661 23.5201L35.7661 23.8201L35.5061 23.5801C33.7176 22.032 32.1015 20.2953 30.6861 18.4001C30.6543 18.3489 30.6102 18.3065 30.5578 18.2768C30.5054 18.2471 30.4463 18.2311 30.3861 18.2301C30.3107 18.2321 30.2376 18.2564 30.1761 18.3001C30.0985 18.3547 30.0448 18.437 30.0262 18.5301C30.0076 18.6232 30.0255 18.7198 30.0761 18.8001C31.5793 20.816 33.2996 22.6604 35.2061 24.3001L35.3861 24.4601L35.2661 24.6701L34.9061 25.3701L34.8061 25.5801H34.5761C32.5861 25.1901 29.8761 24.2601 28.5361 21.9601L28.4861 21.9301ZM40.1961 54.8401L40.0861 55.0001H39.8861C38.9367 54.8197 37.9725 54.7293 37.0061 54.7301C36.0947 54.733 35.185 54.8099 34.2861 54.9601L33.7061 55.0501L34.3461 53.6901L34.6561 53.6301H34.8261C36.3215 53.2435 37.8907 53.2435 39.3861 53.6301H39.5561L39.8661 53.6901L39.9361 53.8301C40.2761 54.5901 40.3161 54.7001 40.1961 54.8701V54.8401ZM51.4061 45.6101C49.1761 50.2901 45.4961 53.0801 41.5661 53.0801C40.8931 53.0764 40.2224 52.9993 39.5661 52.8501C37.9589 52.4369 36.2733 52.4369 34.6661 52.8501C34.0098 52.9991 33.3391 53.0762 32.6661 53.0801C28.7461 53.0801 25.0661 50.2901 22.8361 45.6101C20.3961 40.5001 20.1061 33.6101 24.2861 30.3401C25.6422 29.182 27.3535 28.5222 29.1361 28.4701C30.4295 28.4858 31.6944 28.8522 32.7961 29.5301C33.217 29.7713 33.6549 29.9819 34.1061 30.1601H34.2161C35.1499 30.5271 36.1429 30.7203 37.1461 30.7301C37.6106 30.7466 38.0756 30.7232 38.5361 30.6601V30.6601C38.6011 30.6506 38.6648 30.6338 38.7261 30.6101C39.6743 30.425 40.5861 30.0873 41.4261 29.6101C42.5313 28.9318 43.7995 28.5655 45.0961 28.5501C46.8784 28.6037 48.5891 29.2634 49.9461 30.4201C54.1361 33.6501 53.8461 40.5301 51.4061 45.6401V45.6101Z" fill="white"/>
<path d="M29.0861 31.1499C28.0034 31.3426 26.9899 31.8149 26.1461 32.52C23.8961 34.28 23.1461 37.7 24.0761 41.45C24.0961 41.5275 24.1414 41.5961 24.2047 41.645C24.2681 41.6939 24.346 41.7203 24.4261 41.7199H24.5361C24.5834 41.7083 24.628 41.6873 24.6672 41.6583C24.7064 41.6294 24.7395 41.5929 24.7646 41.5511C24.7897 41.5093 24.8063 41.4629 24.8134 41.4147C24.8205 41.3664 24.818 41.3172 24.8061 41.27C24.0961 38.56 24.2061 34.9999 26.6161 33.0999C27.3664 32.4831 28.261 32.0668 29.2161 31.8899C29.3128 31.8751 29.3997 31.8226 29.4578 31.7439C29.5158 31.6652 29.5404 31.5667 29.5261 31.4699C29.5188 31.4198 29.5015 31.3716 29.4753 31.3282C29.4491 31.2848 29.4145 31.247 29.3735 31.2172C29.3325 31.1874 29.2859 31.1661 29.2366 31.1545C29.1872 31.143 29.136 31.1414 29.0861 31.1499V31.1499Z" fill="white"/>
<path d="M35.2162 25.55C35.3262 25.32 35.4462 25.1 35.5662 24.87L35.8062 24.44L35.4362 24.12C33.5543 22.4992 31.8543 20.6785 30.3662 18.69C30.3662 18.69 30.3662 18.62 30.3662 18.59C30.3738 18.5856 30.3824 18.5833 30.3912 18.5833C30.3999 18.5833 30.4086 18.5856 30.4162 18.59C31.8425 20.5068 33.472 22.2637 35.2762 23.83L35.8062 24.3L36.1962 23.71C36.3162 23.53 36.4262 23.36 36.5462 23.2L36.6562 23.04V22.84C36.6876 21.8191 36.5165 20.8021 36.1526 19.8478C35.7887 18.8935 35.2393 18.0207 34.5362 17.28C32.8455 15.7588 30.6868 14.8593 28.4162 14.73H27.9162L27.7762 15.21C26.9462 18 27.0862 20.33 28.1762 22.13C29.6262 24.51 32.4162 25.49 34.4962 25.9L34.9562 25.99L35.2162 25.55ZM28.7562 21.8C27.7562 20.15 27.6362 17.99 28.4162 15.37C30.5384 15.493 32.5571 16.328 34.1462 17.74C34.7966 18.4241 35.304 19.231 35.6388 20.1136C35.9737 20.9961 36.1291 21.9366 36.0962 22.88L35.7362 23.4C33.9691 21.863 32.3732 20.1397 30.9762 18.26C30.9137 18.1688 30.8302 18.0939 30.7328 18.0417C30.6353 17.9895 30.5267 17.9615 30.4162 17.96C30.2843 17.9563 30.1547 17.9949 30.0462 18.07C29.9725 18.1185 29.9091 18.181 29.8597 18.254C29.8103 18.3271 29.7757 18.4091 29.7581 18.4955C29.7404 18.5819 29.74 18.671 29.7568 18.7575C29.7737 18.8441 29.8074 18.9265 29.8562 19C31.3712 21.0366 33.1049 22.9011 35.0262 24.56C34.9062 24.79 34.7762 25.03 34.6662 25.27C32.8562 24.93 30.1162 24.04 28.7562 21.8Z" fill="#8FFF3C"/>
<path d="M37.1062 52.88C37.9079 52.8871 38.7062 52.9844 39.4862 53.17C40.168 53.3308 40.8657 53.4146 41.5662 53.42C45.6162 53.42 49.3961 50.56 51.6861 45.77C54.1761 40.56 54.4462 33.51 50.1462 30.13C48.7451 28.9407 46.9829 28.2605 45.1462 28.2C43.7874 28.1981 42.4534 28.5644 41.2862 29.26C40.4769 29.7343 39.5951 30.0721 38.6762 30.26H38.5862H38.5262H38.4162C37.9876 30.3421 37.5525 30.3856 37.1162 30.39C36.1503 30.382 35.1942 30.1955 34.2962 29.84V29.84H34.2161C33.7863 29.6761 33.3715 29.4753 32.9762 29.24C31.8235 28.5409 30.5042 28.1644 29.1562 28.15C27.3194 28.2105 25.5572 28.8907 24.1562 30.08C19.8562 33.46 20.1562 40.51 22.6162 45.72C24.9062 50.51 28.6862 53.37 32.7262 53.37C33.43 53.3653 34.1311 53.2814 34.8162 53.12C35.5685 52.9573 36.3364 52.8769 37.1062 52.88V52.88ZM32.6362 52.8C28.2062 52.8 24.8461 49.21 23.0761 45.51C20.6961 40.51 20.3962 33.79 24.4462 30.61C25.7469 29.493 27.3923 28.8575 29.1062 28.81C30.3446 28.8228 31.5569 29.1682 32.6162 29.81C33.0378 30.0593 33.4793 30.2734 33.9362 30.45H34.0761C35.0318 30.8294 36.0481 31.0327 37.0761 31.05C37.5492 31.0431 38.0209 30.9962 38.4862 30.91V30.91C38.5791 30.9067 38.6706 30.8864 38.7562 30.85C39.7421 30.6398 40.6876 30.2718 41.5562 29.76C42.6154 29.1182 43.8277 28.7728 45.0662 28.76C46.78 28.8075 48.4254 29.443 49.7262 30.56C53.7762 33.74 53.4762 40.46 51.0962 45.46C49.3162 49.16 45.9662 52.75 41.5262 52.75C40.8733 52.7488 40.2227 52.675 39.5862 52.53C37.9459 52.1101 36.2264 52.1101 34.5862 52.53C33.9481 52.6919 33.2941 52.7824 32.6362 52.8V52.8Z" fill="#8FFF3C"/>
<path d="M50.5962 29.55C49.0622 28.2487 47.1274 27.5143 45.1162 27.47C43.6355 27.4872 42.1859 27.8979 40.9162 28.66C40.3999 28.9665 39.8495 29.2115 39.2762 29.39C39.4562 27.88 40.0162 24.84 41.8462 22.92C42.0775 22.6811 42.2481 22.3903 42.3438 22.0719C42.4395 21.7535 42.4575 21.4168 42.3962 21.09C42.3395 20.7454 42.2034 20.4187 41.9986 20.1357C41.7938 19.8528 41.5259 19.6215 41.2162 19.46C40.907 19.2983 40.565 19.2094 40.2162 19.2C39.9204 19.1997 39.6277 19.2598 39.356 19.3768C39.0843 19.4937 38.8393 19.665 38.6362 19.88C38.2462 20.28 37.8062 20.76 37.3462 21.3C37.1233 19.5952 36.3469 18.0108 35.1362 16.79C33.16 15.0273 30.6141 14.0366 27.9662 14C27.825 14.0007 27.6875 14.0454 27.5728 14.1278C27.4581 14.2103 27.3719 14.3264 27.3262 14.46C26.2562 17.69 26.3262 20.4 27.6362 22.46C29.1962 25.02 32.1262 26.07 34.1662 26.51C33.9001 27.2424 33.7254 28.0048 33.6462 28.78L33.3362 28.62C32.0665 27.8579 30.617 27.4472 29.1362 27.43C27.1248 27.4727 25.1894 28.2073 23.6562 29.51C19.0462 33.13 19.2862 40.57 21.9062 46.05C23.9062 50.15 27.6162 54.11 32.6462 54.11H33.0262C33.0206 54.1465 33.0206 54.1836 33.0262 54.22L33.6362 54.34L34.0562 53.43H33.0562H32.6962C26.6962 53.43 23.3762 47.52 22.5062 45.71C19.9962 40.45 19.7262 33.34 24.0862 29.92C25.5075 28.6898 27.3075 27.9839 29.1862 27.92C30.5585 27.9377 31.9013 28.3208 33.0762 29.03L33.2962 29.15H33.4062L34.2062 29.58L34.2962 28.67C34.3764 27.9457 34.5443 27.2338 34.7962 26.55L35.0362 25.89L34.3462 25.74C32.3462 25.31 29.6362 24.31 28.2162 21.97C27.0362 20.03 26.9462 17.5 27.9662 14.44C30.4649 14.5488 32.8418 15.5492 34.6662 17.26C35.7636 18.399 36.4649 19.8612 36.6662 21.43L36.8762 22.76L37.7362 21.76C38.1462 21.28 38.5662 20.76 38.9962 20.37C39.1437 20.2161 39.3206 20.0934 39.5164 20.0092C39.7123 19.925 39.9231 19.8811 40.1362 19.88C40.4008 19.8837 40.661 19.9487 40.8962 20.07C41.1208 20.1897 41.315 20.3592 41.464 20.5654C41.6131 20.7717 41.713 21.0092 41.7562 21.26C41.798 21.4936 41.7845 21.7338 41.7168 21.9613C41.6491 22.1888 41.529 22.3973 41.3662 22.57C39.4362 24.57 38.8262 27.71 38.6262 29.39L38.5362 30.26L39.4462 29.96C40.0597 29.7653 40.6499 29.5037 41.2062 29.18C42.3812 28.4708 43.7239 28.0877 45.0962 28.07C46.9749 28.1339 48.7749 28.8398 50.1962 30.07C54.5562 33.49 54.2862 40.6 51.7762 45.86C50.9062 47.67 47.6162 53.57 41.5762 53.57H40.2462L40.6662 54.48C40.7011 54.5977 40.7066 54.7221 40.6822 54.8425C40.6578 54.9628 40.6042 55.0752 40.5262 55.17C40.4413 55.2797 40.3268 55.363 40.1962 55.41C40.1002 55.4463 39.9988 55.4665 39.8962 55.47V55.47C38.0435 55.1101 36.1389 55.1101 34.2862 55.47C34.1416 55.4754 33.9987 55.437 33.8762 55.36L34.3262 55.29C35.2086 55.1427 36.1017 55.0691 36.9962 55.07C37.9422 55.0708 38.8861 55.1579 39.8162 55.33L40.1962 55.41L40.4262 55.1C40.6562 54.78 40.5462 54.54 40.1862 53.75L40.0562 53.46L39.7462 53.4H39.5862H39.4362C37.8934 53.0135 36.279 53.0135 34.7362 53.4H34.5862H34.4162L34.1162 53.46L33.9762 53.74L33.6562 54.44L33.4862 54.81C33.4614 54.7014 33.4614 54.5886 33.4862 54.48L32.8962 54.32C32.838 54.528 32.8293 54.7467 32.871 54.9586C32.9127 55.1705 33.0036 55.3696 33.1362 55.54C33.2677 55.7127 33.437 55.853 33.6312 55.9501C33.8253 56.0472 34.0392 56.0985 34.2562 56.1H34.3862C36.1561 55.7533 37.9764 55.7533 39.7462 56.1H39.8762C40.0933 56.0985 40.3071 56.0472 40.5013 55.9501C40.6954 55.853 40.8648 55.7127 40.9962 55.54C41.1289 55.3696 41.2197 55.1705 41.2614 54.9586C41.3031 54.7467 41.2945 54.528 41.2362 54.32C41.2419 54.2835 41.2419 54.2464 41.2362 54.21V54.21H41.6062C46.6062 54.21 50.3962 50.26 52.3562 46.21C54.9662 40.61 55.2062 33.17 50.5962 29.55ZM34.5962 53.95C34.7062 53.95 34.8162 53.95 34.9262 53.89C35.6528 53.7107 36.3979 53.6168 37.1462 53.61C37.8913 53.6162 38.6331 53.7101 39.3562 53.89L39.6962 53.95C39.8136 54.188 39.9106 54.4356 39.9862 54.69C38.0974 54.3571 36.165 54.3571 34.2762 54.69L34.5962 53.95Z" fill="#8FFF3C"/>
<path d="M37.0962 30.37C37.3871 30.3656 37.6775 30.3456 37.9662 30.31L38.4562 30.25V29.75C38.5862 28.31 39.1062 24.75 41.2762 22.41C41.4253 22.2517 41.5354 22.0608 41.5979 21.8525C41.6604 21.6442 41.6735 21.4242 41.6362 21.21C41.596 20.9776 41.5029 20.7576 41.3642 20.5669C41.2255 20.3761 41.0449 20.2198 40.8362 20.11C40.5519 19.9607 40.2269 19.9074 39.9097 19.9578C39.5926 20.0083 39.3002 20.1599 39.0762 20.39C38.2066 21.2933 37.4044 22.2592 36.6762 23.28C36.5662 23.44 36.4562 23.6 36.3562 23.76L36.2062 23.98C36.0962 24.16 35.9762 24.34 35.8762 24.53V24.61C35.6174 25.0532 35.3837 25.5106 35.1762 25.98V25.98V26.04C34.7041 27.0732 34.4293 28.1857 34.3662 29.32V29.78L34.7962 29.93C35.5356 30.1944 36.3114 30.3428 37.0962 30.37V30.37ZM35.6762 26.37C35.8837 25.9038 36.1174 25.4497 36.3762 25.01L36.4362 24.9L36.7662 24.37L36.9062 24.16L37.2162 23.69C37.9209 22.6767 38.6962 21.7143 39.5362 20.81C39.6669 20.6848 39.8326 20.6025 40.0112 20.5739C40.1899 20.5453 40.373 20.5718 40.5362 20.65C40.6611 20.7162 40.7693 20.8101 40.8525 20.9245C40.9356 21.0389 40.9916 21.1707 41.0162 21.31C41.0374 21.4311 41.0303 21.5554 40.9956 21.6733C40.961 21.7913 40.8995 21.8996 40.8162 21.99C38.4862 24.43 37.9562 28.26 37.8162 29.7C36.8052 29.8471 35.7734 29.737 34.8162 29.38C34.9008 28.3137 35.1929 27.2742 35.6762 26.32V26.37Z" fill="#8FFF3C"/>
<path d="M29.1363 30.84H29.0263C27.8947 31.0409 26.8339 31.53 25.9462 32.26C23.5962 34.1 22.7662 37.64 23.7662 41.5C23.802 41.6454 23.8855 41.7747 24.0033 41.8671C24.1211 41.9596 24.2665 42.0099 24.4163 42.01H24.5862C24.7597 41.9631 24.9075 41.8495 24.9974 41.694C25.0874 41.5385 25.1121 41.3537 25.0662 41.18C24.3962 38.57 24.4863 35.18 26.7763 33.33C27.4849 32.7434 28.3317 32.3475 29.2362 32.18C29.4139 32.1667 29.5791 32.0834 29.6954 31.9484C29.8116 31.8134 29.8695 31.6377 29.8563 31.46C29.843 31.2823 29.7597 31.1172 29.6247 31.0009C29.4896 30.8846 29.3139 30.8267 29.1363 30.84V30.84ZM29.1363 31.58C28.1279 31.7576 27.1834 32.1953 26.3962 32.85C23.8762 34.85 23.7462 38.54 24.4762 41.34C24.4762 41.34 24.4763 41.4 24.4163 41.41C24.4071 41.4153 24.3968 41.418 24.3863 41.418C24.3757 41.418 24.3654 41.4153 24.3563 41.41C23.4163 37.79 24.1663 34.49 26.3563 32.8C27.1602 32.1299 28.1255 31.6817 29.1562 31.5V31.5C29.1654 31.4947 29.1757 31.492 29.1862 31.492C29.1968 31.492 29.2071 31.4947 29.2162 31.5C29.2179 31.5109 29.2171 31.522 29.2136 31.5325C29.2102 31.543 29.2044 31.5525 29.1966 31.5603C29.1888 31.5681 29.1793 31.574 29.1688 31.5774C29.1583 31.5808 29.1471 31.5817 29.1363 31.58V31.58Z" fill="#8FFF3C"/>
<path d="M39.8661 53.6801H39.7061H39.5561H39.3861C37.8906 53.2935 36.3215 53.2935 34.826 53.6801H34.6561H34.4961H34.3461L34.2761 53.8201L33.9561 54.5201L33.7061 55.0401L34.2861 54.9501C35.185 54.7999 36.0947 54.723 37.0061 54.7201C37.9724 54.7193 38.9367 54.8097 39.8861 54.9901H40.076L40.1961 54.8301C40.3161 54.6601 40.2761 54.5501 39.9361 53.8301L39.8661 53.6801ZM37.0061 54.4201C36.0778 54.4171 35.1511 54.4941 34.2361 54.6501L34.5561 53.9501C34.6661 53.9501 34.7761 53.9501 34.8861 53.8901C35.6127 53.7108 36.3577 53.6168 37.1061 53.6101C37.8512 53.6162 38.593 53.7102 39.3161 53.8901L39.6561 53.9501C39.7734 54.1881 39.8705 54.4357 39.9461 54.6901C38.9764 54.5105 37.9922 54.4202 37.0061 54.4201Z" fill="#579A24"/>
<path d="M29.1363 30.84H29.0263C27.8947 31.0409 26.8339 31.53 25.9462 32.26C23.5962 34.1 22.7662 37.64 23.7662 41.5C23.802 41.6454 23.8855 41.7747 24.0033 41.8671C24.1211 41.9596 24.2665 42.0099 24.4163 42.01H24.5862C24.7597 41.9631 24.9075 41.8495 24.9974 41.694C25.0874 41.5385 25.1121 41.3537 25.0662 41.18C24.3962 38.57 24.4863 35.18 26.7763 33.33C27.4849 32.7434 28.3317 32.3475 29.2362 32.18C29.4139 32.1667 29.5791 32.0834 29.6954 31.9484C29.8116 31.8134 29.8695 31.6377 29.8563 31.46C29.843 31.2823 29.7597 31.1172 29.6247 31.0009C29.4896 30.8846 29.3139 30.8267 29.1363 30.84V30.84ZM29.1862 31.84C28.2312 32.0169 27.3366 32.4332 26.5862 33.05C24.1762 34.95 24.0663 38.51 24.7763 41.22C24.7882 41.2673 24.7907 41.3165 24.7836 41.3647C24.7765 41.413 24.7599 41.4593 24.7348 41.5011C24.7097 41.543 24.6766 41.5794 24.6374 41.6084C24.5982 41.6374 24.5536 41.6583 24.5062 41.67H24.4163C24.3362 41.6703 24.2583 41.6439 24.1949 41.595C24.1315 41.5461 24.0863 41.4775 24.0662 41.4C23.0662 37.65 23.8863 34.23 26.1363 32.47C26.9801 31.765 27.9936 31.2927 29.0762 31.1H29.1363C29.2231 31.1012 29.3067 31.1329 29.3726 31.1896C29.4384 31.2463 29.4822 31.3243 29.4963 31.41C29.5111 31.4614 29.5147 31.5155 29.5066 31.5684C29.4986 31.6213 29.4792 31.6718 29.4497 31.7165C29.4202 31.7612 29.3814 31.799 29.3359 31.8272C29.2904 31.8554 29.2394 31.8734 29.1862 31.88V31.84Z" fill="#579A24"/>
<path d="M38.706 30.61H38.576H38.4961C38.0517 30.7003 37.5995 30.7471 37.146 30.75C36.1179 30.7429 35.1003 30.5428 34.1461 30.16C34.1165 30.1672 34.0856 30.1672 34.0561 30.16C33.6106 29.9872 33.1792 29.7799 32.766 29.54C31.6644 28.8621 30.3995 28.4957 29.1061 28.48C27.3235 28.5321 25.6122 29.1919 24.2561 30.35C20.0761 33.63 20.3661 40.51 22.8061 45.62C25.0361 50.3 28.7161 53.09 32.6361 53.09C33.3091 53.0861 33.9797 53.009 34.6361 52.86C36.2433 52.4468 37.9288 52.4468 39.536 52.86C40.1924 53.0092 40.863 53.0863 41.536 53.09C45.466 53.09 49.136 50.3 51.376 45.62C53.816 40.51 54.106 33.62 49.926 30.35C48.5691 29.1933 46.8583 28.5336 45.076 28.48C43.7794 28.4954 42.5112 28.8617 41.406 29.54C40.5661 30.0172 39.6542 30.3549 38.706 30.54V30.61ZM41.596 29.82C42.6553 29.1781 43.8676 28.8327 45.1061 28.82C46.8199 28.8674 48.4653 29.503 49.766 30.62C53.816 33.8 53.5161 40.52 51.1361 45.52C49.3561 49.22 46.006 52.81 41.566 52.81C40.9132 52.8088 40.2626 52.735 39.626 52.59C37.9858 52.1701 36.2663 52.1701 34.626 52.59C33.9698 52.7387 33.2989 52.8125 32.626 52.81C28.196 52.81 24.836 49.22 23.066 45.52C20.686 40.52 20.386 33.8 24.436 30.62C25.7368 29.503 27.3822 28.8674 29.096 28.82C30.3345 28.8327 31.5468 29.1781 32.6061 29.82C33.0277 30.0693 33.4692 30.2833 33.926 30.46H34.066C35.0217 30.8394 36.038 31.0426 37.066 31.06C37.5391 31.053 38.0108 31.0062 38.4761 30.92V30.92C38.569 30.9167 38.6605 30.8963 38.7461 30.86C39.7463 30.6706 40.7089 30.3193 41.596 29.82V29.82Z" fill="#579A24"/>
<path d="M36.1562 24.7201L36.1062 24.8001C35.8487 25.2389 35.6182 25.6931 35.4162 26.1601C34.9569 27.158 34.6889 28.2333 34.6262 29.3301V29.5601L34.8462 29.6401C35.5818 29.8859 36.3507 30.0175 37.1262 30.0301C37.4038 30.0261 37.6809 30.0061 37.9562 29.9701H38.2062V29.7201C38.3262 28.2401 38.8662 24.5501 41.1062 22.1901C41.2216 22.0672 41.3069 21.9193 41.3555 21.758C41.4041 21.5966 41.4146 21.4262 41.3862 21.2601C41.3556 21.0723 41.2819 20.8943 41.1709 20.7398C41.0598 20.5854 40.9145 20.4588 40.7462 20.3701C40.5763 20.2824 40.3874 20.2378 40.1962 20.2401C40.0384 20.2391 39.882 20.2696 39.7361 20.3297C39.5901 20.3898 39.4576 20.4783 39.3462 20.5901C38.4839 21.4811 37.6915 22.4372 36.9762 23.4501C36.8662 23.6001 36.7562 23.7601 36.6562 23.9201L36.5162 24.1301L36.1862 24.6701L36.1562 24.7201ZM36.4362 24.8401L36.7662 24.3101L36.9062 24.1001L37.2162 23.6301C37.9232 22.6374 38.6984 21.6951 39.5362 20.8101C39.6669 20.6849 39.8326 20.6026 40.0112 20.574C40.1899 20.5454 40.373 20.5719 40.5362 20.6501C40.6611 20.7163 40.7693 20.8102 40.8525 20.9246C40.9357 21.039 40.9917 21.1708 41.0162 21.3101C41.0374 21.4312 41.0303 21.5555 40.9957 21.6734C40.961 21.7914 40.8996 21.8997 40.8162 21.9901C38.4862 24.4301 37.9562 28.2601 37.8162 29.7001C36.8052 29.8471 35.7735 29.7371 34.8162 29.3801C34.8695 28.3205 35.1276 27.2814 35.5762 26.3201V26.3201C35.7837 25.8539 36.0174 25.3998 36.2762 24.9601L36.4362 24.8401Z" fill="#579A24"/>
<path d="M50.5962 29.55C49.0621 28.2487 47.1273 27.5143 45.1162 27.47C43.6354 27.4872 42.1859 27.8979 40.9162 28.66C40.3999 28.9665 39.8495 29.2115 39.2762 29.39C39.4562 27.88 40.0162 24.84 41.8462 22.92C42.0774 22.6811 42.2481 22.3903 42.3438 22.0719C42.4395 21.7535 42.4574 21.4168 42.3962 21.09C42.3395 20.7454 42.2034 20.4187 41.9985 20.1357C41.7937 19.8528 41.5259 19.6215 41.2162 19.46C40.907 19.2983 40.565 19.2094 40.2162 19.2C39.9204 19.1997 39.6276 19.2598 39.3559 19.3768C39.0842 19.4937 38.8393 19.665 38.6362 19.88C38.2462 20.28 37.8062 20.76 37.3462 21.3C37.1233 19.5952 36.3469 18.0108 35.1362 16.79C33.1599 15.0273 30.6141 14.0366 27.9662 14V14.31C30.5496 14.332 33.0371 15.2915 34.9662 17.01C36.1216 18.1867 36.8654 19.7057 37.0862 21.34L37.1862 22.01L37.6262 21.49C38.0362 21.01 38.4562 20.49 38.8962 20.09C39.0712 19.9055 39.2821 19.7588 39.5161 19.6591C39.75 19.5593 40.0019 19.5086 40.2562 19.51C40.5693 19.5119 40.8775 19.5872 41.1562 19.73C41.4177 19.8753 41.6433 20.0774 41.8164 20.3214C41.9894 20.5654 42.1056 20.8451 42.1562 21.14C42.2077 21.4202 42.1919 21.7087 42.1102 21.9816C42.0285 22.2545 41.8832 22.5042 41.6862 22.71C39.8162 24.71 39.2262 27.71 39.0362 29.36L38.9762 29.83L39.4362 29.68C40.0247 29.491 40.5912 29.2396 41.1262 28.93C42.3483 28.1884 43.7468 27.7879 45.1762 27.77C47.1161 27.8133 48.9828 28.5191 50.4662 29.77C54.9462 33.29 54.6962 40.57 52.1262 45.93C51.2462 47.78 47.8762 53.82 41.6562 53.82H40.8062L41.0162 54.28C41.0205 54.2998 41.0205 54.3202 41.0162 54.34C41.0714 54.5085 41.0839 54.6882 41.0524 54.8627C41.021 55.0373 40.9467 55.2013 40.8362 55.34C40.7322 55.4742 40.5987 55.5828 40.4462 55.6573C40.2936 55.7319 40.126 55.7704 39.9562 55.77H39.8862C38.0773 55.409 36.215 55.409 34.4062 55.77H34.3362C34.1662 55.7714 33.9983 55.7334 33.8455 55.6589C33.6927 55.5845 33.5593 55.4757 33.4556 55.341C33.3519 55.2064 33.2809 55.0495 33.248 54.8828C33.2151 54.716 33.2214 54.5439 33.2662 54.38V54.29L33.4762 53.84H32.9762H32.6062C26.3962 53.84 23.0262 47.84 22.1362 45.94C19.5762 40.58 19.3162 33.3 23.8062 29.78C25.2895 28.5291 27.1562 27.8233 29.0962 27.78C30.5256 27.7979 31.9241 28.1984 33.1462 28.94L33.3462 29.04L33.4562 29.1L33.8562 29.31L33.9062 28.86C33.9839 28.1116 34.1553 27.3758 34.4162 26.67L34.5362 26.34L34.1962 26.26C32.1162 25.82 29.3362 24.78 27.8662 22.35C26.6362 20.35 26.5362 17.71 27.5762 14.57C27.6012 14.4971 27.6484 14.4337 27.7111 14.3889C27.7739 14.3441 27.8491 14.32 27.9262 14.32V14.01C27.7849 14.0107 27.6474 14.0554 27.5327 14.1378C27.418 14.2203 27.3319 14.3364 27.2862 14.47C26.2162 17.7 26.2862 20.41 27.5962 22.47C29.1562 25.03 32.0862 26.08 34.1262 26.52C33.86 27.2524 33.6854 28.0148 33.6062 28.79L33.2962 28.63C32.0265 27.8679 30.5769 27.4572 29.0962 27.44C27.0847 27.4827 25.1494 28.2173 23.6162 29.52C19.0062 33.14 19.2462 40.58 21.8662 46.06C23.8662 50.16 27.5762 54.12 32.6062 54.12H32.9862C32.9805 54.1565 32.9805 54.1936 32.9862 54.23C32.9279 54.438 32.9193 54.6567 32.961 54.8686C33.0027 55.0805 33.0935 55.2796 33.2262 55.45C33.3576 55.6227 33.527 55.763 33.7211 55.8601C33.9153 55.9572 34.1291 56.0085 34.3462 56.01H34.4762C36.246 55.6633 38.0663 55.6633 39.8362 56.01H39.9662C40.1832 56.0085 40.3971 55.9572 40.5912 55.8601C40.7854 55.763 40.9547 55.6227 41.0862 55.45C41.2188 55.2796 41.3097 55.0805 41.3514 54.8686C41.393 54.6567 41.3844 54.438 41.3262 54.23C41.3318 54.1936 41.3318 54.1565 41.3262 54.12V54.12H41.6962C46.6962 54.12 50.4862 50.17 52.4462 46.12C54.9662 40.61 55.2062 33.17 50.5962 29.55Z" fill="#579A24"/>
<path d="M28.536 21.9601C29.926 24.2401 32.636 25.1901 34.656 25.5901H34.886L34.986 25.3801L35.346 24.6801L35.466 24.4701L35.286 24.3101C33.3795 22.6704 31.6592 20.826 30.156 18.8101C30.1302 18.7701 30.1125 18.7254 30.104 18.6785C30.0955 18.6317 30.0964 18.5836 30.1067 18.5371C30.1169 18.4906 30.1362 18.4466 30.1636 18.4076C30.191 18.3687 30.2258 18.3355 30.266 18.3101C30.3239 18.2666 30.3937 18.2422 30.466 18.2401C30.5263 18.241 30.5853 18.2571 30.6377 18.2868C30.6901 18.3165 30.7342 18.3589 30.766 18.4101C32.1635 20.3167 33.7628 22.0668 35.536 23.6301L35.796 23.8701L35.996 23.5701C36.106 23.3901 36.226 23.2201 36.346 23.0501L36.396 22.9701V22.8701C36.4315 21.8905 36.2731 20.9136 35.9299 19.9955C35.5867 19.0774 35.0654 18.2361 34.396 17.5201C32.7541 16.0551 30.6632 15.1912 28.466 15.0701H28.226L28.156 15.3001C27.316 17.9901 27.436 20.2601 28.536 21.9601ZM28.466 15.3701C30.5882 15.4931 32.607 16.3281 34.196 17.7401C34.8464 18.4242 35.3539 19.2311 35.6887 20.1137C36.0235 20.9962 36.179 21.9367 36.146 22.8801L35.786 23.4001C34.0015 21.8658 32.3887 20.1424 30.976 18.2601C30.9136 18.1689 30.8301 18.094 30.7326 18.0418C30.6352 17.9896 30.5266 17.9616 30.416 17.9601C30.2841 17.9564 30.1545 17.995 30.046 18.0701C29.9724 18.1186 29.909 18.1811 29.8596 18.2541C29.8101 18.3272 29.7756 18.4092 29.7579 18.4956C29.7403 18.582 29.7399 18.6711 29.7567 18.7576C29.7735 18.8442 29.8073 18.9266 29.856 19.0001C31.3711 21.0367 33.1048 22.9012 35.026 24.5601C34.906 24.7901 34.776 25.0301 34.666 25.2701C32.856 24.9101 30.116 24.0201 28.756 21.7801C27.746 20.1501 27.636 17.9901 28.416 15.3701H28.466Z" fill="#579A24"/>
<path d="M35.3961 41.63C35.3909 42.4108 35.6571 43.1691 36.149 43.7755C36.641 44.3818 37.3282 44.7985 38.0933 44.9543C38.8584 45.1102 39.6539 44.9955 40.3438 44.63C41.0338 44.2644 41.5754 43.6706 41.8761 42.95C41.8955 42.9055 41.9058 42.8575 41.9062 42.8089C41.9066 42.7603 41.8972 42.7121 41.8785 42.6673C41.8598 42.6224 41.8323 42.5818 41.7975 42.5479C41.7627 42.514 41.7214 42.4875 41.6761 42.47C41.63 42.4596 41.5822 42.4596 41.5361 42.47C41.4644 42.4709 41.3945 42.492 41.3343 42.5309C41.2742 42.5698 41.2262 42.625 41.1961 42.69C41.0403 43.0623 40.8012 43.394 40.4972 43.6594C40.1932 43.9249 39.8323 44.1171 39.4424 44.2214C39.0525 44.3256 38.6439 44.339 38.2479 44.2606C37.852 44.1822 37.4793 44.0141 37.1586 43.7692C36.8378 43.5242 36.5774 43.209 36.3975 42.8477C36.2176 42.4864 36.1229 42.0887 36.1207 41.6851C36.1186 41.2815 36.209 40.8828 36.385 40.5196C36.561 40.1564 36.8179 39.8384 37.1361 39.59C37.1746 39.5617 37.2068 39.5257 37.2309 39.4845C37.255 39.4432 37.2704 39.3974 37.2761 39.35C37.2816 39.3019 37.2773 39.2532 37.2636 39.2068C37.2498 39.1604 37.2269 39.1173 37.1961 39.08C37.1619 39.0357 37.1179 39 37.0676 38.9757C37.0173 38.9514 36.962 38.9392 36.9061 38.94C36.8659 38.9379 36.8257 38.9439 36.7879 38.9576C36.7502 38.9714 36.7155 38.9926 36.6861 39.02C36.288 39.3294 35.9651 39.725 35.7417 40.177C35.5183 40.629 35.4001 41.1258 35.3961 41.63V41.63Z" fill="white"/>
<path d="M44.3461 42C44.2561 41.9992 44.1688 42.0313 44.1007 42.0902C44.0326 42.1491 43.9883 42.2308 43.9761 42.32C43.8554 43.2186 43.5041 44.0707 42.9563 44.7932C42.4085 45.5157 41.6829 46.084 40.8503 46.4427C40.0176 46.8015 39.1062 46.9385 38.2048 46.8404C37.3035 46.7423 36.4429 46.4125 35.7069 45.883C34.9709 45.3535 34.3846 44.6424 34.005 43.819C33.6254 42.9956 33.4656 42.0879 33.5411 41.1844C33.6165 40.2808 33.9247 39.4123 34.4355 38.6632C34.9464 37.9141 35.6425 37.3101 36.4561 36.91C36.4999 36.8907 36.5388 36.8618 36.57 36.8255C36.6011 36.7891 36.6237 36.7463 36.6361 36.7C36.656 36.656 36.6663 36.6083 36.6663 36.56C36.6663 36.5118 36.656 36.464 36.6361 36.42C36.604 36.3603 36.5564 36.3102 36.4984 36.275C36.4404 36.2399 36.374 36.2209 36.3061 36.22C36.2533 36.2095 36.1989 36.2095 36.1461 36.22C35.2112 36.6736 34.41 37.3621 33.8211 38.2183C33.2322 39.0745 32.8758 40.069 32.7867 41.1043C32.6977 42.1396 32.879 43.1804 33.3131 44.1245C33.7471 45.0687 34.4189 45.884 35.2627 46.4905C36.1065 47.097 37.0934 47.474 38.1266 47.5845C39.1599 47.695 40.2042 47.5352 41.1571 47.1209C42.1101 46.7065 42.9391 46.0517 43.563 45.2207C44.1869 44.3896 44.5842 43.4108 44.7161 42.38C44.7175 42.3306 44.7089 42.2814 44.6909 42.2354C44.6729 42.1893 44.6458 42.1473 44.6114 42.1119C44.5769 42.0765 44.5356 42.0483 44.4901 42.0291C44.4445 42.0099 44.3956 42 44.3461 42Z" fill="white"/>
<path d="M58.2462 21.67L55.9962 21.44L55.3562 19.26C55.3357 19.1963 55.2992 19.1389 55.2502 19.0934C55.2012 19.0478 55.1412 19.0157 55.0762 19H54.9962C54.9431 19.0015 54.8909 19.0138 54.8428 19.0361C54.7946 19.0585 54.7515 19.0904 54.7162 19.13L51.1762 23.26C51.1159 23.3364 51.0873 23.4331 51.0962 23.53L51.3262 26.34L39.6362 40.14L39.4462 37.14C39.4385 37.0436 39.3934 36.954 39.3205 36.8905C39.2476 36.827 39.1527 36.7945 39.0562 36.8V36.8C39.0083 36.8007 38.9611 36.8117 38.918 36.8325C38.8748 36.8532 38.8366 36.8831 38.8062 36.92C38.7726 36.9558 38.7471 36.9985 38.7316 37.0451C38.716 37.0917 38.7108 37.1412 38.7162 37.19L38.9662 41.12L39.0162 41.23L39.0962 41.32L39.2062 41.38H39.3862L43.3862 40.58C43.4811 40.5621 43.5653 40.5078 43.6207 40.4286C43.6762 40.3494 43.6984 40.2517 43.6827 40.1564C43.6671 40.061 43.6147 39.9756 43.5369 39.9184C43.459 39.8611 43.3619 39.8366 43.2662 39.85V39.85L40.2662 40.45L51.8662 26.75L54.6762 26.52C54.7722 26.5076 54.8608 26.4615 54.9262 26.39L58.5362 22.26C58.5791 22.2077 58.6073 22.145 58.6178 22.0782C58.6284 22.0114 58.6209 21.943 58.5962 21.88C58.5659 21.8137 58.5163 21.7581 58.4538 21.7206C58.3913 21.6831 58.3189 21.6655 58.2462 21.67V21.67ZM54.5362 25.86L52.0962 26.06L51.8862 23.62L54.8862 20.08L55.4062 21.88C55.427 21.9488 55.4674 22.01 55.5225 22.0561C55.5775 22.1023 55.6448 22.1314 55.7162 22.14L57.5262 22.33L54.5362 25.86Z" fill="white"/>
<path d="M55.6962 21.84L55.3362 20.6L55.0262 19.5L54.2862 20.37L51.7362 23.37L51.5762 23.56V23.81L51.7462 25.81V26.42H52.3562L54.3562 26.25H54.6162L54.7762 26.06L57.3162 23.06L58.0662 22.17L56.9062 22.05L55.6962 21.84ZM54.3262 25.56L52.3262 25.73L52.1562 23.73L54.7062 20.73L55.0562 21.97C55.0943 22.0994 55.1696 22.2149 55.2727 22.302C55.3758 22.389 55.5022 22.444 55.6362 22.46L56.8662 22.58L54.3262 25.56Z" fill="#F6EB86"/>
<path d="M36.5362 38.74C36.0942 39.0866 35.7375 39.5297 35.4933 40.0355C35.2491 40.5412 35.1239 41.0961 35.1273 41.6578C35.1306 42.2194 35.2625 42.7728 35.5128 43.2756C35.7631 43.7783 36.1251 44.2171 36.5712 44.5584C37.0173 44.8996 37.5355 45.1343 38.0863 45.2443C38.637 45.3543 39.2056 45.3368 39.7486 45.1932C40.2915 45.0495 40.7944 44.7834 41.2186 44.4154C41.6429 44.0474 41.9773 43.5872 42.1962 43.07C42.2634 42.9039 42.2635 42.7182 42.1963 42.5521C42.1291 42.386 42 42.2525 41.8362 42.18C41.7502 42.1648 41.6622 42.1648 41.5761 42.18C41.4439 42.1795 41.3144 42.2181 41.2041 42.2911C41.0937 42.3641 41.0075 42.468 40.9562 42.59C40.7486 43.087 40.3752 43.4967 39.8995 43.7495C39.4239 44.0023 38.8753 44.0824 38.3472 43.9763C37.8191 43.8702 37.3441 43.5844 37.003 43.1676C36.6619 42.7508 36.4757 42.2286 36.4762 41.69C36.4771 41.3362 36.5576 40.9871 36.7116 40.6686C36.8657 40.3501 37.0894 40.0703 37.3662 39.8499C37.4774 39.7639 37.5588 39.6451 37.5988 39.5102C37.6387 39.3753 37.6352 39.2313 37.5888 39.0985C37.5423 38.9658 37.4552 38.851 37.3399 38.7705C37.2245 38.69 37.0868 38.6478 36.9462 38.65C36.8035 38.6373 36.6604 38.6687 36.5362 38.74V38.74ZM36.9962 39.24C37.0024 39.2446 37.0074 39.2507 37.0109 39.2576C37.0143 39.2645 37.0161 39.2722 37.0161 39.2799C37.0161 39.2877 37.0143 39.2954 37.0109 39.3023C37.0074 39.3093 37.0024 39.3153 36.9962 39.32C36.6456 39.5981 36.3631 39.9525 36.1702 40.3564C35.9774 40.7602 35.8793 41.2027 35.8834 41.6502C35.8875 42.0977 35.9937 42.5384 36.1939 42.9386C36.3941 43.3388 36.683 43.6881 37.0387 43.9597C37.3943 44.2314 37.8073 44.4182 38.2461 44.5061C38.6849 44.5939 39.138 44.5804 39.5708 44.4667C40.0036 44.3529 40.4047 44.1418 40.7436 43.8495C41.0824 43.5572 41.3501 43.1914 41.5262 42.7799C41.5262 42.7799 41.5262 42.7799 41.5862 42.7799C41.596 42.791 41.6014 42.8052 41.6014 42.82C41.6014 42.8347 41.596 42.849 41.5862 42.86C41.4038 43.2894 41.1256 43.6715 40.7729 43.9769C40.4202 44.2823 40.0023 44.5031 39.5512 44.6223C39.1001 44.7414 38.6278 44.7559 38.1702 44.6645C37.7127 44.5731 37.2821 44.3783 36.9114 44.0949C36.5407 43.8116 36.2397 43.4473 36.0315 43.0298C35.8232 42.6122 35.7131 42.1526 35.7097 41.6861C35.7063 41.2195 35.8096 40.7584 36.0118 40.3379C36.214 39.9174 36.5096 39.5487 36.8762 39.26C36.8762 39.26 36.8762 39.26 36.8762 39.26C36.8808 39.2537 36.8868 39.2487 36.8938 39.2452C36.9007 39.2418 36.9084 39.24 36.9162 39.24C36.9239 39.24 36.9316 39.2418 36.9385 39.2452C36.9455 39.2487 36.9515 39.2537 36.9562 39.26L36.9962 39.24Z" fill="#F6EB86"/>
<path d="M44.4262 41.69H44.3462C44.1815 41.6888 44.0222 41.7483 43.8986 41.8571C43.775 41.9659 43.6958 42.1165 43.6762 42.28C43.5781 43.1463 43.2552 43.9719 42.7395 44.6749C42.2237 45.3779 41.5332 45.9339 40.7362 46.2876C39.9393 46.6413 39.0638 46.7804 38.1965 46.6912C37.3292 46.602 36.5002 46.2876 35.792 45.7791C35.0837 45.2707 34.5207 44.5858 34.1589 43.7926C33.797 42.9993 33.6489 42.1253 33.7292 41.2571C33.8094 40.3889 34.1153 39.5568 34.6165 38.8434C35.1177 38.1299 35.7967 37.5599 36.5862 37.19C36.7466 37.1117 36.8695 36.9729 36.9276 36.8042C36.9857 36.6354 36.9744 36.4504 36.8962 36.29C36.8179 36.1295 36.6792 36.0067 36.5104 35.9486C36.3416 35.8904 36.1566 35.9017 35.9962 35.98C35.0148 36.4564 34.174 37.1795 33.5559 38.0784C32.9379 38.9774 32.564 40.0214 32.4706 41.1083C32.3773 42.1953 32.5678 43.2878 33.0234 44.279C33.4791 45.2701 34.1844 46.126 35.0701 46.7628C35.9559 47.3996 36.9919 47.7954 38.0766 47.9116C39.1613 48.0278 40.2576 47.8603 41.2581 47.4256C42.2586 46.9908 43.1291 46.3037 43.7844 45.4316C44.4397 44.5594 44.8572 43.532 44.9962 42.45C45.0192 42.2739 44.9724 42.0959 44.8659 41.9539C44.7594 41.8119 44.6016 41.7172 44.4262 41.69ZM38.7662 47.32C37.4843 47.3148 36.2418 46.8769 35.2398 46.0773C34.2379 45.2776 33.5354 44.1631 33.246 42.9143C32.9567 41.6655 33.0975 40.3556 33.6457 39.1968C34.1938 38.0381 35.1172 37.0984 36.2662 36.53V36.53C36.2662 36.53 36.2662 36.53 36.3162 36.53C36.3244 36.5417 36.3287 36.5556 36.3287 36.57C36.3287 36.5843 36.3244 36.5982 36.3162 36.61C35.459 37.0391 34.7274 37.6826 34.1923 38.478C33.6572 39.2733 33.3368 40.1935 33.2623 41.1492C33.1877 42.1049 33.3615 43.0636 33.7668 43.9323C34.1721 44.801 34.7951 45.5502 35.5754 46.1071C36.3556 46.664 37.2666 47.0097 38.2198 47.1107C39.1731 47.2116 40.1363 47.0644 41.0159 46.6833C41.8954 46.3022 42.6616 45.7002 43.2398 44.9357C43.8181 44.1711 44.1889 43.2701 44.3162 42.32C44.3253 42.3147 44.3357 42.3119 44.3462 42.3119C44.3567 42.3119 44.3671 42.3147 44.3762 42.32V42.32C44.3916 42.3251 44.4053 42.3344 44.4158 42.3467C44.4264 42.359 44.4334 42.374 44.4362 42.39C44.2495 43.7595 43.5715 45.0145 42.5285 45.9214C41.4854 46.8283 40.1484 47.3253 38.7662 47.32Z" fill="#F6EB86"/>
<path d="M52.0162 25.76V26.06H52.3162L54.3162 25.89H54.5362L54.6162 25.79L57.1462 22.79L57.5262 22.35L56.9462 22.29L55.7162 22.16C55.6449 22.1514 55.5776 22.1223 55.5225 22.0761C55.4675 22.0299 55.4271 21.9687 55.4062 21.9L55.0462 20.65L54.8862 20.1L54.5162 20.54L51.9762 23.54L51.8862 23.64V23.77L52.0162 25.76ZM54.7062 20.76L55.0562 22C55.0944 22.1294 55.1697 22.2448 55.2728 22.3319C55.3759 22.419 55.5022 22.474 55.6362 22.49L56.8662 22.61L54.3262 25.61L52.3262 25.78L52.1562 23.78L54.7062 20.76Z" fill="#E59323"/>
<path d="M36.5362 38.74C36.0942 39.0866 35.7375 39.5297 35.4933 40.0355C35.2491 40.5412 35.1239 41.0961 35.1273 41.6578C35.1306 42.2194 35.2625 42.7728 35.5128 43.2756C35.7631 43.7783 36.1251 44.2171 36.5712 44.5584C37.0173 44.8996 37.5355 45.1343 38.0863 45.2443C38.637 45.3543 39.2056 45.3368 39.7486 45.1932C40.2915 45.0495 40.7944 44.7834 41.2186 44.4154C41.6429 44.0474 41.9773 43.5872 42.1962 43.07C42.2634 42.9039 42.2635 42.7182 42.1963 42.5521C42.1291 42.386 42 42.2525 41.8362 42.18C41.7502 42.1648 41.6622 42.1648 41.5761 42.18C41.4439 42.1795 41.3144 42.2181 41.2041 42.2911C41.0937 42.3641 41.0075 42.468 40.9562 42.59C40.7486 43.087 40.3752 43.4967 39.8995 43.7495C39.4239 44.0023 38.8753 44.0824 38.3472 43.9763C37.8191 43.8702 37.3441 43.5844 37.003 43.1676C36.6619 42.7508 36.4757 42.2286 36.4762 41.69C36.4771 41.3362 36.5576 40.9871 36.7116 40.6686C36.8657 40.3501 37.0894 40.0703 37.3662 39.8499C37.4774 39.7639 37.5588 39.6451 37.5988 39.5102C37.6387 39.3753 37.6352 39.2313 37.5888 39.0985C37.5423 38.9658 37.4552 38.851 37.3399 38.7705C37.2245 38.69 37.0868 38.6478 36.9462 38.65C36.8035 38.6373 36.6604 38.6687 36.5362 38.74V38.74ZM37.2362 39.05C37.2669 39.0873 37.2899 39.1304 37.3037 39.1768C37.3174 39.2232 37.3216 39.2719 37.3162 39.32C37.3104 39.3674 37.2951 39.4132 37.271 39.4544C37.2469 39.4957 37.2146 39.5316 37.1762 39.56C36.858 39.8083 36.6011 40.1263 36.4251 40.4895C36.249 40.8527 36.1586 41.2515 36.1608 41.6551C36.163 42.0587 36.2577 42.4564 36.4376 42.8177C36.6175 43.179 36.8779 43.4942 37.1986 43.7391C37.5194 43.9841 37.8921 44.1522 38.288 44.2306C38.684 44.309 39.0926 44.2955 39.4825 44.1913C39.8724 44.0871 40.2332 43.8949 40.5373 43.6294C40.8413 43.3639 41.0804 43.0323 41.2362 42.66C41.2663 42.595 41.3143 42.5398 41.3744 42.5009C41.4346 42.462 41.5045 42.4408 41.5761 42.44C41.6222 42.4296 41.6701 42.4296 41.7161 42.44C41.7615 42.4575 41.8028 42.484 41.8376 42.5179C41.8724 42.5518 41.8999 42.5924 41.9186 42.6373C41.9373 42.6821 41.9467 42.7303 41.9463 42.7789C41.9459 42.8274 41.9356 42.8754 41.9162 42.92C41.7082 43.3853 41.3974 43.7974 41.0072 44.1253C40.617 44.4531 40.1574 44.6882 39.6632 44.8128C39.169 44.9374 38.6529 44.9483 38.1539 44.8446C37.6549 44.7409 37.1859 44.5254 36.7822 44.2143C36.3785 43.9032 36.0506 43.5045 35.8232 43.0483C35.5959 42.5922 35.475 42.0904 35.4696 41.5807C35.4642 41.0711 35.5744 40.5668 35.7921 40.1059C36.0098 39.6451 36.3291 39.2396 36.7262 38.92C36.7556 38.8926 36.7902 38.8714 36.828 38.8576C36.8658 38.8439 36.906 38.8379 36.9462 38.84C37.0014 38.8528 37.0529 38.8785 37.0963 38.915C37.1398 38.9515 37.174 38.9977 37.1962 39.05H37.2362Z" fill="#E59323"/>
<path d="M38.8962 41.6H38.9062L38.8962 41.59V41.6Z" fill="#E59323"/>
<path d="M44.4262 41.69H44.3462C44.1815 41.6888 44.0222 41.7483 43.8986 41.8571C43.775 41.9659 43.6958 42.1165 43.6762 42.28C43.5781 43.1463 43.2552 43.9719 42.7395 44.6749C42.2237 45.3779 41.5332 45.9339 40.7362 46.2876C39.9393 46.6413 39.0638 46.7804 38.1965 46.6912C37.3292 46.602 36.5002 46.2876 35.792 45.7791C35.0837 45.2707 34.5207 44.5858 34.1589 43.7926C33.797 42.9993 33.6489 42.1253 33.7292 41.2571C33.8094 40.3889 34.1153 39.5568 34.6165 38.8434C35.1177 38.1299 35.7967 37.5599 36.5862 37.19C36.7466 37.1117 36.8695 36.9729 36.9276 36.8042C36.9857 36.6354 36.9744 36.4504 36.8962 36.29C36.8179 36.1295 36.6792 36.0067 36.5104 35.9486C36.3416 35.8904 36.1566 35.9017 35.9962 35.98C35.0148 36.4564 34.174 37.1795 33.5559 38.0784C32.9379 38.9774 32.564 40.0214 32.4706 41.1083C32.3773 42.1953 32.5678 43.2878 33.0234 44.279C33.4791 45.2701 34.1844 46.126 35.0701 46.7628C35.9559 47.3996 36.9919 47.7954 38.0766 47.9116C39.1613 48.0278 40.2576 47.8603 41.2581 47.4256C42.2586 46.9908 43.1291 46.3037 43.7844 45.4316C44.4397 44.5594 44.8572 43.532 44.9962 42.45C45.0192 42.2739 44.9724 42.0959 44.8659 41.9539C44.7594 41.8119 44.6016 41.7172 44.4262 41.69ZM38.7662 47.62C37.4215 47.6052 36.1207 47.1392 35.0725 46.2966C34.0244 45.454 33.2898 44.2838 32.9864 42.9736C32.6831 41.6634 32.8287 40.2894 33.3999 39.0719C33.9711 37.8544 34.9348 36.8641 36.1362 36.26C36.1885 36.2449 36.2439 36.2449 36.2962 36.26C36.364 36.2608 36.4304 36.2798 36.4885 36.3149C36.5465 36.3501 36.594 36.4002 36.6262 36.46C36.6461 36.5039 36.6563 36.5517 36.6563 36.5999C36.6563 36.6482 36.6461 36.696 36.6262 36.74C36.6138 36.7862 36.5912 36.8291 36.5601 36.8654C36.5289 36.9018 36.49 36.9306 36.4462 36.95C35.6282 37.3486 34.9276 37.9527 34.4128 38.7031C33.8981 39.4535 33.5869 40.3246 33.5096 41.2313C33.4322 42.138 33.5915 43.0493 33.9717 43.876C34.3519 44.7028 34.94 45.4168 35.6787 45.9482C36.4174 46.4796 37.2814 46.8103 38.1861 46.908C39.0908 47.0056 40.0054 46.8669 40.8405 46.5053C41.6756 46.1437 42.4026 45.5717 42.9504 44.8451C43.4983 44.1186 43.8483 43.2623 43.9662 42.36C43.9783 42.2707 44.0226 42.189 44.0908 42.1301C44.1589 42.0712 44.2461 42.0391 44.3362 42.04V42.04C44.3854 42.0443 44.4331 42.0591 44.4762 42.0832C44.5193 42.1073 44.5568 42.1403 44.5862 42.18C44.6439 42.2574 44.669 42.3543 44.6562 42.45C44.4572 43.8747 43.753 45.1805 42.6719 46.1295C41.5908 47.0784 40.2047 47.6074 38.7662 47.62V47.62Z" fill="#E59323"/>
<defs>
<radialGradient id="paint0_diamond_301_13" cx="0" cy="0" r="1" gradientUnits="userSpaceOnUse" gradientTransform="translate(37.5 37.5) rotate(45.9496) scale(64.0019 66.4472)">
<stop offset="0.553067" stop-color="#5B0C88"/>
<stop offset="0.755325" stop-color="#340450"/>
</radialGradient>
</defs>
</svg>
