<svg width="75" height="75" viewBox="0 0 75 75" fill="none" xmlns="http://www.w3.org/2000/svg">
<rect width="75" height="75" rx="7" fill="url(#paint0_diamond_313_25)"/>
<g filter="url(#filter0_d_313_25)">
<path d="M48.168 39.1523C48.168 41.7695 47.7122 44.0677 46.8008 46.0469C45.9023 48.026 44.6133 49.5495 42.9336 50.6172C41.2539 51.6849 39.3138 52.2188 37.1133 52.2188C33.793 52.2188 31.1107 51.0339 29.0664 48.6641C27.0221 46.2812 26 43.0716 26 39.0352V36.1055C26 33.5143 26.4557 31.2227 27.3672 29.2305C28.2917 27.2253 29.5938 25.6888 31.2734 24.6211C32.9531 23.5404 34.8867 23 37.0742 23C39.2617 23 41.1888 23.5273 42.8555 24.582C44.5352 25.6367 45.8307 27.1276 46.7422 29.0547C47.6536 30.9818 48.1289 33.2148 48.168 35.7539V39.1523ZM45.7656 36.0664C45.7656 32.6419 44.9909 29.9596 43.4414 28.0195C41.8919 26.0794 39.7695 25.1094 37.0742 25.1094C34.431 25.1094 32.3216 26.0859 30.7461 28.0391C29.1836 29.9792 28.4023 32.694 28.4023 36.1836V39.1523C28.4023 42.5247 29.1836 45.2005 30.7461 47.1797C32.3086 49.1458 34.431 50.1289 37.1133 50.1289C39.8346 50.1289 41.957 49.1589 43.4805 47.2188C45.0039 45.2656 45.7656 42.5508 45.7656 39.0742V36.0664Z" fill="#FFA318"/>
</g>
<defs>
<filter id="filter0_d_313_25" x="18" y="19" width="38.168" height="45.2188" filterUnits="userSpaceOnUse" color-interpolation-filters="sRGB">
<feFlood flood-opacity="0" result="BackgroundImageFix"/>
<feColorMatrix in="SourceAlpha" type="matrix" values="0 0 0 0 0 0 0 0 0 0 0 0 0 0 0 0 0 0 127 0" result="hardAlpha"/>
<feOffset dy="4"/>
<feGaussianBlur stdDeviation="4"/>
<feComposite in2="hardAlpha" operator="out"/>
<feColorMatrix type="matrix" values="0 0 0 0 0.873737 0 0 0 0 0 0 0 0 0 1 0 0 0 0.6 0"/>
<feBlend mode="normal" in2="BackgroundImageFix" result="effect1_dropShadow_313_25"/>
<feBlend mode="normal" in="SourceGraphic" in2="effect1_dropShadow_313_25" result="shape"/>
</filter>
<radialGradient id="paint0_diamond_313_25" cx="0" cy="0" r="1" gradientUnits="userSpaceOnUse" gradientTransform="translate(37.5 37.5) rotate(45.9496) scale(64.0019 66.4472)">
<stop offset="0.553067" stop-color="#5B0C88"/>
<stop offset="0.755325" stop-color="#340450"/>
</radialGradient>
</defs>
</svg>
