<svg width="75" height="75" viewBox="0 0 75 75" fill="none" xmlns="http://www.w3.org/2000/svg">
<rect width="75" height="75" rx="7" fill="url(#paint0_diamond_301_17)"/>
<g filter="url(#filter0_d_301_17)">
<path d="M52.5275 53.1922H47.394V52.1763C47.394 51.3848 47.0791 50.6256 46.5186 50.0659C45.9581 49.5062 45.198 49.1917 44.4053 49.1917H40.8725V46.1048L41.0618 46.0654C41.4703 45.9752 41.8357 45.7484 42.0976 45.4226C42.3595 45.0969 42.5023 44.6916 42.5023 44.2738C42.5023 43.856 42.3595 43.4508 42.0976 43.125C41.8357 42.7993 41.4703 42.5725 41.0618 42.4823L40.8725 42.4429V39.2929L41.0224 39.2378C42.4021 38.692 43.6536 37.8669 44.6982 36.8143C45.7429 35.7617 46.5579 34.5044 47.092 33.1218C47.6261 31.7391 47.8677 30.261 47.8016 28.7805C47.7355 27.3 47.3631 25.8492 46.7079 24.5195L46.5739 24.2518L46.8656 24.1809C47.2274 24.0967 47.5453 23.882 47.7582 23.578C47.9711 23.274 48.064 22.9021 48.019 22.5339C47.974 22.1656 47.7943 21.8269 47.5145 21.583C47.2346 21.339 46.8743 21.2069 46.5029 21.2121H27.6168C27.2453 21.2069 26.885 21.339 26.6052 21.583C26.3254 21.8269 26.1457 22.1656 26.1007 22.5339C26.0557 22.9021 26.1486 23.274 26.3614 23.578C26.5743 23.882 26.8922 24.0967 27.254 24.1809L27.5458 24.2518L27.4117 24.5195C26.7478 25.8495 26.3676 27.3026 26.2953 28.7869C26.223 30.2712 26.4601 31.7543 26.9916 33.1423C27.5231 34.5303 28.3374 35.793 29.383 36.8504C30.4286 37.9078 31.6826 38.7368 33.0657 39.2851L33.2156 39.3402V42.4902L33.0342 42.5295C32.6257 42.6198 32.2603 42.8465 31.9984 43.1723C31.7365 43.498 31.5937 43.9033 31.5937 44.3211C31.5937 44.7388 31.7365 45.1441 31.9984 45.4699C32.2603 45.7957 32.6257 46.0224 33.0342 46.1126L33.2156 46.152V49.1917H29.6828C28.8902 49.1917 28.13 49.5062 27.5695 50.0659C27.009 50.6256 26.6941 51.3848 26.6941 52.1763V53.1922H21.5685C21.5267 53.1853 21.4839 53.1875 21.443 53.1988C21.4022 53.21 21.3643 53.23 21.332 53.2574C21.2997 53.2847 21.2737 53.3188 21.2559 53.3572C21.2381 53.3955 21.2289 53.4373 21.2289 53.4796C21.2289 53.5219 21.2381 53.5637 21.2559 53.6021C21.2737 53.6405 21.2997 53.6746 21.332 53.7019C21.3643 53.7293 21.4022 53.7493 21.443 53.7605C21.4839 53.7718 21.5267 53.774 21.5685 53.7671H52.496C52.5642 53.7558 52.6261 53.7207 52.6708 53.668C52.7155 53.6154 52.74 53.5486 52.74 53.4796C52.74 53.4106 52.7155 53.3439 52.6708 53.2912C52.6261 53.2386 52.5642 53.2035 52.496 53.1922H52.5275ZM26.6862 22.7792C26.6862 22.5327 26.7843 22.2964 26.9588 22.1221C27.1333 21.9478 27.37 21.8499 27.6168 21.8499H46.4714C46.6013 21.838 46.7323 21.8533 46.856 21.8947C46.9797 21.9362 47.0933 22.003 47.1897 22.0908C47.2861 22.1786 47.3631 22.2855 47.4158 22.4047C47.4685 22.5239 47.4957 22.6528 47.4957 22.7831C47.4957 22.9134 47.4685 23.0423 47.4158 23.1615C47.3631 23.2807 47.2861 23.3876 47.1897 23.4754C47.0933 23.5632 46.9797 23.63 46.856 23.6715C46.7323 23.713 46.6013 23.7282 46.4714 23.7163H27.6168C27.4925 23.7163 27.3696 23.6915 27.2551 23.6434C27.1406 23.5952 27.037 23.5246 26.9503 23.4358C26.8636 23.347 26.7955 23.2418 26.7502 23.1263C26.7048 23.0108 26.6831 22.8874 26.6862 22.7634V22.7792ZM26.8834 29.3233C26.8862 28.5461 26.9788 27.7718 27.1594 27.0159L27.1988 26.8269H41.0303C41.072 26.8338 41.1148 26.8316 41.1557 26.8203C41.1965 26.8091 41.2344 26.7891 41.2667 26.7617C41.299 26.7344 41.325 26.7003 41.3428 26.6619C41.3606 26.6236 41.3698 26.5818 41.3698 26.5395C41.3698 26.4972 41.3606 26.4554 41.3428 26.417C41.325 26.3786 41.299 26.3445 41.2667 26.3172C41.2344 26.2898 41.1965 26.2698 41.1557 26.2586C41.1148 26.2473 41.072 26.2451 41.0303 26.252H27.3644L27.4748 25.9292C27.6576 25.4069 27.8845 24.9011 28.153 24.4172L28.2239 24.2912H45.9036L45.9667 24.4172C46.2351 24.9011 46.462 25.4069 46.6448 25.9292L46.7631 26.252H43.8533C43.8115 26.2451 43.7687 26.2473 43.7279 26.2586C43.6871 26.2698 43.6492 26.2898 43.6169 26.3172C43.5846 26.3445 43.5586 26.3786 43.5408 26.417C43.523 26.4554 43.5137 26.4972 43.5137 26.5395C43.5137 26.5818 43.523 26.6236 43.5408 26.6619C43.5586 26.7003 43.5846 26.7344 43.6169 26.7617C43.6492 26.7891 43.6871 26.8091 43.7279 26.8203C43.7687 26.8316 43.8115 26.8338 43.8533 26.8269H46.9208L46.9603 27.0159C47.1409 27.7718 47.2335 28.5461 47.2363 29.3233C47.2254 31.4002 46.5822 33.4248 45.3921 35.1281C44.2019 36.8314 42.5212 38.1329 40.5729 38.8598H40.5335H33.5862C31.628 38.1383 29.9371 36.8371 28.7393 35.1302C27.5415 33.4232 26.894 31.3918 26.8834 29.3075V29.3233ZM40.289 39.4504V42.4823H33.8543V39.4504H40.289ZM32.2141 44.325C32.2141 43.9901 32.3468 43.6688 32.5832 43.4313C32.8195 43.1937 33.1405 43.0592 33.4758 43.0572H40.6439C40.9623 43.0823 41.2595 43.2263 41.4763 43.4606C41.6931 43.6949 41.8135 44.0021 41.8135 44.3211C41.8135 44.64 41.6931 44.9473 41.4763 45.1816C41.2595 45.4158 40.9623 45.5599 40.6439 45.585H33.4758C33.3088 45.585 33.1434 45.5519 32.9893 45.4876C32.8352 45.4233 32.6954 45.3291 32.578 45.2104C32.4606 45.0917 32.368 44.951 32.3056 44.7963C32.2431 44.6416 32.212 44.4761 32.2141 44.3093V44.325ZM40.289 46.1599V49.1917H33.8543V46.1599H40.289ZM46.8183 53.1922H27.3013V52.1763C27.3013 51.5372 27.5556 50.9243 28.0081 50.4724C28.4606 50.0205 29.0744 49.7666 29.7143 49.7666H44.4053C44.7222 49.7666 45.036 49.8289 45.3287 49.95C45.6215 50.0711 45.8875 50.2486 46.1116 50.4724C46.3356 50.6962 46.5134 50.9618 46.6347 51.2542C46.7559 51.5465 46.8183 51.8599 46.8183 52.1763V53.1922Z" fill="#E4F5FF"/>
<path d="M44.4063 49.5151H29.7153C29.3674 49.5151 29.0228 49.5836 28.7014 49.7166C28.3799 49.8495 28.0878 50.0444 27.8418 50.2901C27.5957 50.5358 27.4006 50.8275 27.2674 51.1486C27.1343 51.4696 27.0657 51.8137 27.0657 52.1611V53.4133H47.0559V52.1611C47.0569 51.8134 46.9891 51.4688 46.8563 51.1473C46.7235 50.8258 46.5284 50.5337 46.2822 50.2878C46.0359 50.0419 45.7434 49.8471 45.4215 49.7144C45.0995 49.5818 44.7545 49.5141 44.4063 49.5151ZM46.5749 52.9329H27.5468V52.1454C27.5468 51.571 27.7752 51.0202 28.1819 50.6141C28.5886 50.2079 29.1402 49.9798 29.7153 49.9798H44.4063C44.9814 49.9798 45.533 50.2079 45.9397 50.6141C46.3464 51.0202 46.5749 51.571 46.5749 52.1454V52.9329Z" fill="#9FDAF9"/>
<path d="M46.0625 23.9374H46.4726C46.7863 23.9374 47.0871 23.813 47.309 23.5915C47.5308 23.3699 47.6554 23.0695 47.6554 22.7562C47.6554 22.4429 47.5308 22.1424 47.309 21.9209C47.0871 21.6994 46.7863 21.575 46.4726 21.575H27.618C27.3043 21.575 27.0034 21.6994 26.7816 21.9209C26.5597 22.1424 26.4351 22.4429 26.4351 22.7562C26.4351 23.0695 26.5597 23.3699 26.7816 23.5915C27.0034 23.813 27.3043 23.9374 27.618 23.9374H46.0625V23.9374ZM26.924 22.7641C26.9261 22.5816 27.0001 22.4074 27.13 22.2791C27.26 22.1509 27.4353 22.0789 27.618 22.0789H46.4726C46.5694 22.0686 46.6673 22.0787 46.7599 22.1086C46.8526 22.1385 46.9379 22.1876 47.0103 22.2526C47.0827 22.3175 47.1406 22.397 47.1802 22.4858C47.2199 22.5746 47.2404 22.6708 47.2404 22.768C47.2404 22.8652 47.2199 22.9614 47.1802 23.0502C47.1406 23.139 47.0827 23.2185 47.0103 23.2834C46.9379 23.3484 46.8526 23.3975 46.7599 23.4274C46.6673 23.4573 46.5694 23.4674 46.4726 23.4571H27.618C27.4339 23.4571 27.2574 23.384 27.1273 23.2541C26.9971 23.1241 26.924 22.9479 26.924 22.7641V22.7641Z" fill="#9FDAF9"/>
<path d="M33.5872 45.9006V49.4129H40.5345V45.9006H33.5872ZM40.0535 48.9325H34.0682V46.3889H40.0535V48.9325Z" fill="#9FDAF9"/>
<path d="M33.6348 39.1046H40.5741H40.653C42.6514 38.3658 44.3759 37.0344 45.5951 35.2891C46.8143 33.5437 47.4699 31.4678 47.4741 29.3397C47.4753 28.5441 47.3827 27.7511 47.1981 26.9772L47.1114 26.6071H43.8546C43.842 26.6071 43.83 26.6021 43.8211 26.5932C43.8122 26.5844 43.8073 26.5724 43.8073 26.5598C43.8073 26.5473 43.8122 26.5353 43.8211 26.5264C43.83 26.5176 43.842 26.5126 43.8546 26.5126H47.1035L46.8748 25.8668C46.6879 25.3234 46.4558 24.7966 46.1808 24.2919L46.0468 24.0477H28.0833L27.9413 24.2919C27.6697 24.7982 27.4377 25.3248 27.2474 25.8668L27.0187 26.5126H41.0315C41.0315 26.5126 41.0867 26.5126 41.0867 26.5598C41.0848 26.573 41.0782 26.5851 41.068 26.5938C41.0578 26.6025 41.0449 26.6072 41.0315 26.6071H27.0108L26.9241 26.9772C26.7433 27.7518 26.6508 28.5443 26.6481 29.3397C26.6522 31.4678 27.3079 33.5437 28.5271 35.2891C29.7463 37.0344 31.4707 38.3658 33.4692 39.1046H33.548H33.6348ZM27.1291 29.3082C27.1308 28.5496 27.2207 27.7938 27.3972 27.056H41.0315C41.1016 27.057 41.1711 27.0441 41.2361 27.0181C41.3011 26.992 41.3603 26.9533 41.4102 26.9042C41.4601 26.8551 41.4997 26.7966 41.5268 26.7321C41.5538 26.6675 41.5677 26.5983 41.5677 26.5283C41.5677 26.3863 41.5112 26.2501 41.4107 26.1497C41.3101 26.0493 41.1737 25.9928 41.0315 25.9928H27.7047C27.8831 25.484 28.1047 24.9913 28.3671 24.5202H45.755C46.0175 24.9913 46.2391 25.484 46.4174 25.9928H43.8546C43.7137 25.9949 43.5794 26.0522 43.4805 26.1524C43.3816 26.2526 43.3262 26.3877 43.3262 26.5283C43.3262 26.6683 43.3819 26.8025 43.481 26.9014C43.5801 27.0004 43.7144 27.056 43.8546 27.056H46.7328C46.9028 27.7948 46.9901 28.5501 46.9931 29.3082C46.9911 31.3377 46.3665 33.3179 45.2033 34.9821C44.0402 36.6463 42.3943 37.9146 40.4874 38.6164H33.6348C31.7278 37.9146 30.082 36.6463 28.9188 34.9821C27.7557 33.3179 27.1311 31.3377 27.1291 29.3082V29.3082Z" fill="#9FDAF9"/>
<path d="M40.5819 45.8062H40.645C40.8514 45.8211 41.0587 45.7934 41.254 45.7248C41.4492 45.6562 41.6282 45.5481 41.7797 45.4074C41.9312 45.2666 42.0521 45.0961 42.1348 44.9066C42.2174 44.7171 42.2601 44.5127 42.2601 44.306C42.2601 44.0993 42.2174 43.8948 42.1348 43.7054C42.0521 43.5159 41.9312 43.3454 41.7797 43.2046C41.6282 43.0639 41.4492 42.9558 41.254 42.8872C41.0587 42.8186 40.8514 42.7909 40.645 42.8058H33.4769C33.2705 42.7909 33.0632 42.8186 32.868 42.8872C32.6728 42.9558 32.4938 43.0639 32.3422 43.2046C32.1907 43.3454 32.0698 43.5159 31.9872 43.7054C31.9045 43.8948 31.8619 44.0993 31.8619 44.306C31.8619 44.5127 31.9045 44.7171 31.9872 44.9066C32.0698 45.0961 32.1907 45.2666 32.3422 45.4074C32.4938 45.5481 32.6728 45.6562 32.868 45.7248C33.0632 45.7934 33.2705 45.8211 33.4769 45.8062H40.574H40.5819ZM32.4597 44.3099C32.4597 44.0398 32.5666 43.7806 32.7572 43.5888C32.9477 43.3971 33.2064 43.2883 33.4769 43.2862H40.645C40.7867 43.2738 40.9293 43.2909 41.064 43.3365C41.1987 43.3821 41.3224 43.4552 41.4272 43.5511C41.5321 43.647 41.6158 43.7636 41.6731 43.8936C41.7304 44.0235 41.76 44.164 41.76 44.306C41.76 44.448 41.7304 44.5884 41.6731 44.7184C41.6158 44.8484 41.5321 44.965 41.4272 45.0609C41.3224 45.1569 41.1987 45.2299 41.064 45.2755C40.9293 45.3211 40.7867 45.3383 40.645 45.3258H33.4769C33.2072 45.3258 32.9484 45.2188 32.7576 45.0283C32.5669 44.8378 32.4597 44.5794 32.4597 44.3099Z" fill="#9FDAF9"/>
<path d="M34.0682 39.1991H33.5872V42.7113H40.5345V39.1991H34.0682ZM40.0535 42.2231H34.0682V39.6795H40.0535V42.2231Z" fill="#9FDAF9"/>
<path d="M52.5287 52.933H47.6396V52.1455C47.6375 51.2898 47.2962 50.4697 46.6903 49.8647C46.0844 49.2596 45.2633 48.9188 44.4065 48.9167H41.1102V46.3101C41.569 46.2063 41.9788 45.9499 42.2724 45.5828C42.566 45.2158 42.7259 44.76 42.7259 44.2902C42.7259 43.8204 42.566 43.3646 42.2724 42.9976C41.9788 42.6305 41.569 42.3741 41.1102 42.2703V39.4904C42.5225 38.9356 43.8041 38.094 44.8737 37.0189C45.9433 35.9437 46.7777 34.6585 47.3241 33.2445C47.8704 31.8306 48.1168 30.3187 48.0476 28.8048C47.9783 27.2908 47.5951 25.8076 46.922 24.4493C47.3406 24.3501 47.7081 24.1004 47.9541 23.7479C48.2001 23.3954 48.3076 22.9648 48.2559 22.5382C48.2042 22.1116 47.997 21.719 47.6739 21.4353C47.3507 21.1516 46.9343 20.9966 46.504 21.0001H27.6179C27.1876 20.9966 26.7712 21.1516 26.448 21.4353C26.1249 21.719 25.9177 22.1116 25.866 22.5382C25.8143 22.9648 25.9218 23.3954 26.1678 23.7479C26.4139 24.1004 26.7813 24.3501 27.1999 24.4493C26.5269 25.8076 26.1436 27.2908 26.0744 28.8048C26.0052 30.3187 26.2515 31.8306 26.7979 33.2445C27.3442 34.6585 28.1786 35.9437 29.2482 37.0189C30.3178 38.094 31.5994 38.9356 33.0117 39.4904V42.2703C32.5529 42.3741 32.1431 42.6305 31.8495 42.9976C31.5559 43.3646 31.396 43.8204 31.396 44.2902C31.396 44.76 31.5559 45.2158 31.8495 45.5828C32.1431 45.9499 32.5529 46.2063 33.0117 46.3101V48.9167H29.7155C28.8586 48.9188 28.0375 49.2596 27.4316 49.8647C26.8257 50.4697 26.4844 51.2898 26.4823 52.1455V52.933H21.6011C21.5258 52.9238 21.4494 52.9307 21.3769 52.9532C21.3044 52.9757 21.2376 53.0134 21.1807 53.0636C21.1239 53.1138 21.0784 53.1755 21.0473 53.2447C21.0161 53.3138 21 53.3887 21 53.4645C21 53.5403 21.0161 53.6152 21.0473 53.6843C21.0784 53.7534 21.1239 53.8152 21.1807 53.8654C21.2376 53.9157 21.3044 53.9533 21.3769 53.9758C21.4494 53.9983 21.5258 54.0052 21.6011 53.9961H52.5287C52.6587 53.9802 52.7784 53.9174 52.8652 53.8195C52.9521 53.7216 53 53.5953 53 53.4645C53 53.3337 52.9521 53.2074 52.8652 53.1095C52.7784 53.0116 52.6587 52.9488 52.5287 52.933ZM52.5287 53.5157H21.6011C21.5878 53.5158 21.5748 53.5111 21.5646 53.5024C21.5545 53.4937 21.5478 53.4817 21.5459 53.4685C21.5459 53.4538 21.5517 53.4398 21.5621 53.4295C21.5725 53.4191 21.5865 53.4133 21.6011 53.4133H26.9713V52.1612C26.9713 51.4337 27.2601 50.7358 27.7745 50.2206C28.289 49.7054 28.9869 49.4149 29.7155 49.4129H33.4927V45.9479L33.1221 45.8613C32.7516 45.8022 32.4143 45.6132 32.1708 45.3281C31.9273 45.043 31.7935 44.6806 31.7935 44.3059C31.7935 43.9313 31.9273 43.5689 32.1708 43.2838C32.4143 42.9987 32.7516 42.8097 33.1221 42.7506L33.4927 42.664V39.1833L33.1852 39.0573C31.8398 38.5213 30.62 37.7129 29.6027 36.6832C28.5854 35.6534 27.7926 34.4245 27.2741 33.0738C26.7556 31.7231 26.5227 30.2799 26.59 28.8349C26.6573 27.3899 27.0234 25.9744 27.6652 24.6777L27.9254 24.1343L27.3498 23.9925C27.0512 23.9165 26.7905 23.7346 26.6162 23.4808C26.442 23.227 26.3662 22.9186 26.4028 22.6131C26.4395 22.3075 26.5862 22.0257 26.8156 21.8202C27.0449 21.6147 27.3413 21.4996 27.6494 21.4962H46.4725C46.7813 21.4977 47.0789 21.6116 47.3097 21.8165C47.5404 22.0213 47.6885 22.3032 47.7262 22.6092C47.7639 22.9153 47.6887 23.2245 47.5145 23.4792C47.3403 23.7338 47.0792 23.9163 46.78 23.9925L46.1965 24.1343L46.4567 24.6777C47.101 25.974 47.469 27.3898 47.5375 28.8354C47.606 30.281 47.3736 31.7251 46.8548 33.0765C46.3361 34.4278 45.5423 35.6571 44.5237 36.6865C43.505 37.716 42.2837 38.5232 40.9368 39.0573L40.6292 39.1833V42.664L41.0077 42.7506C41.3782 42.8097 41.7155 42.9987 41.959 43.2838C42.2025 43.5689 42.3363 43.9313 42.3363 44.3059C42.3363 44.6806 42.2025 45.043 41.959 45.3281C41.7155 45.6132 41.3782 45.8022 41.0077 45.8613L40.6292 45.9479V49.4129H44.4065C45.1357 49.4149 45.8345 49.7051 46.3502 50.2201C46.8658 50.7351 47.1565 51.4329 47.1585 52.1612V53.4133H52.5287C52.5419 53.4152 52.554 53.4219 52.5627 53.432C52.5714 53.4422 52.5761 53.4551 52.576 53.4685C52.576 53.481 52.571 53.493 52.5621 53.5019C52.5533 53.5107 52.5412 53.5157 52.5287 53.5157Z" fill="#9FDAF9"/>
<path d="M33.5872 38.8605H40.5345H40.5739C42.5291 38.1365 44.2167 36.8342 45.4115 35.1275C46.6063 33.4207 47.2515 31.3907 47.2609 29.3082C47.2582 28.531 47.1656 27.7568 46.9849 27.0009L46.9455 26.8119H43.878C43.8098 26.8006 43.7479 26.7655 43.7032 26.7128C43.6585 26.6602 43.634 26.5934 43.634 26.5244C43.634 26.4554 43.6585 26.3887 43.7032 26.336C43.7479 26.2834 43.8098 26.2483 43.878 26.237H46.7878L46.6695 25.9141C46.4867 25.3919 46.2598 24.8861 45.9913 24.4021L45.9283 24.2761H28.225L28.154 24.4021C27.8855 24.8861 27.6587 25.3919 27.4758 25.9141L27.3654 26.237H41.0313C41.0731 26.2301 41.1159 26.2323 41.1567 26.2435C41.1975 26.2548 41.2354 26.2748 41.2677 26.3022C41.3 26.3295 41.326 26.3636 41.3438 26.4019C41.3616 26.4403 41.3708 26.4821 41.3708 26.5244C41.3708 26.5667 41.3616 26.6085 41.3438 26.6469C41.326 26.6853 41.3 26.7193 41.2677 26.7467C41.2354 26.774 41.1975 26.794 41.1567 26.8053C41.1159 26.8165 41.0731 26.8188 41.0313 26.8119H27.1998L27.1604 27.0009C26.9798 27.7568 26.8872 28.531 26.8844 29.3082C26.8952 31.3852 27.5384 33.4097 28.7286 35.113C29.9187 36.8163 31.5995 38.1179 33.5478 38.8448L33.5872 38.8605ZM27.1289 29.3082C27.1305 28.5496 27.2205 27.7938 27.397 27.056H41.0313C41.1013 27.057 41.1709 27.0441 41.2359 27.0181C41.3009 26.9921 41.3601 26.9533 41.41 26.9042C41.4599 26.8551 41.4995 26.7966 41.5265 26.7321C41.5536 26.6676 41.5675 26.5983 41.5675 26.5284C41.5675 26.3863 41.511 26.2501 41.4104 26.1497C41.3099 26.0493 41.1735 25.9929 41.0313 25.9929H27.7045C27.8828 25.484 28.1044 24.9913 28.3669 24.5202H45.7548C46.0172 24.9913 46.2388 25.484 46.4172 25.9929H43.8543C43.7135 25.9949 43.5791 26.0523 43.4802 26.1525C43.3814 26.2527 43.326 26.3877 43.326 26.5284C43.326 26.6683 43.3817 26.8025 43.4807 26.9014C43.5798 27.0004 43.7142 27.056 43.8543 27.056H46.7326C46.9026 27.7948 46.9898 28.5502 46.9928 29.3082C46.9908 31.3377 46.3662 33.3179 45.2031 34.9821C44.0399 36.6463 42.3941 37.9147 40.4872 38.6164H33.6345C31.7276 37.9147 30.0818 36.6463 28.9186 34.9821C27.7554 33.3179 27.1308 31.3377 27.1289 29.3082V29.3082Z" fill="#76CFF8"/>
<path d="M28.0594 23.7012H46.4725C46.6024 23.7132 46.7334 23.6979 46.8571 23.6564C46.9808 23.615 47.0944 23.5482 47.1908 23.4604C47.2872 23.3726 47.3642 23.2656 47.4169 23.1464C47.4696 23.0272 47.4968 22.8984 47.4968 22.7681C47.4968 22.6378 47.4696 22.5089 47.4169 22.3897C47.3642 22.2705 47.2872 22.1635 47.1908 22.0757C47.0944 21.9879 46.9808 21.9211 46.8571 21.8797C46.7334 21.8382 46.6024 21.8229 46.4725 21.8349H27.6178C27.3848 21.8563 27.1682 21.9638 27.0105 22.1365C26.8528 22.3091 26.7654 22.5344 26.7654 22.7681C26.7654 23.0017 26.8528 23.227 27.0105 23.3996C27.1682 23.5723 27.3848 23.6798 27.6178 23.7012H28.0594ZM26.9239 22.7641C26.926 22.5817 27 22.4074 27.1299 22.2792C27.2598 22.1509 27.4352 22.079 27.6178 22.079H46.4725C46.5693 22.0687 46.6672 22.0788 46.7598 22.1087C46.8524 22.1386 46.9377 22.1876 47.0102 22.2526C47.0826 22.3176 47.1405 22.3971 47.1801 22.4859C47.2198 22.5747 47.2403 22.6708 47.2403 22.7681C47.2403 22.8653 47.2198 22.9614 47.1801 23.0502C47.1405 23.139 47.0826 23.2185 47.0102 23.2835C46.9377 23.3485 46.8524 23.3975 46.7598 23.4274C46.6672 23.4573 46.5693 23.4675 46.4725 23.4571H27.6178C27.4338 23.4571 27.2573 23.3841 27.1272 23.2541C26.997 23.1242 26.9239 22.9479 26.9239 22.7641Z" fill="#76CFF8"/>
<path d="M44.4064 49.7515H29.7154C29.0755 49.7515 28.4617 50.0053 28.0092 50.4572C27.5567 50.9092 27.3024 51.5221 27.3024 52.1612V53.1928H46.8194V52.1769C46.8215 51.8592 46.7606 51.5441 46.6403 51.2499C46.52 50.9558 46.3425 50.6883 46.1183 50.4628C45.894 50.2374 45.6273 50.0585 45.3335 49.9364C45.0397 49.8143 44.7246 49.7515 44.4064 49.7515ZM46.575 52.9014H27.5469V52.1139C27.5469 51.5396 27.7754 50.9888 28.182 50.5826C28.5887 50.1765 29.1403 49.9483 29.7154 49.9483H44.4064C44.9816 49.9483 45.5331 50.1765 45.9398 50.5826C46.3465 50.9888 46.575 51.5396 46.575 52.1139V52.9014Z" fill="#76CFF8"/>
<path d="M33.8554 46.1448V49.1766H40.3138V46.1448H33.8554ZM40.0772 48.9325H34.092V46.3889H40.0772V48.9325Z" fill="#76CFF8"/>
<path d="M52.5287 52.933H47.6396V52.1455C47.6375 51.2898 47.2962 50.4697 46.6903 49.8647C46.0844 49.2596 45.2633 48.9188 44.4065 48.9167H41.1102V46.3101C41.569 46.2063 41.9788 45.9499 42.2724 45.5828C42.566 45.2158 42.7259 44.76 42.7259 44.2902C42.7259 43.8204 42.566 43.3646 42.2724 42.9976C41.9788 42.6305 41.569 42.3741 41.1102 42.2703V39.4904C42.5225 38.9356 43.8041 38.094 44.8737 37.0189C45.9433 35.9437 46.7777 34.6585 47.3241 33.2445C47.8704 31.8306 48.1168 30.3187 48.0476 28.8048C47.9783 27.2908 47.5951 25.8076 46.922 24.4493C47.3406 24.3501 47.7081 24.1004 47.9541 23.7479C48.2001 23.3954 48.3076 22.9648 48.2559 22.5382C48.2042 22.1116 47.997 21.719 47.6739 21.4353C47.3507 21.1516 46.9343 20.9966 46.504 21.0001H27.6179C27.1876 20.9966 26.7712 21.1516 26.448 21.4353C26.1249 21.719 25.9177 22.1116 25.866 22.5382C25.8143 22.9648 25.9218 23.3954 26.1678 23.7479C26.4139 24.1004 26.7813 24.3501 27.1999 24.4493C26.5269 25.8076 26.1436 27.2908 26.0744 28.8048C26.0052 30.3187 26.2515 31.8306 26.7979 33.2445C27.3442 34.6585 28.1786 35.9437 29.2482 37.0189C30.3178 38.094 31.5994 38.9356 33.0117 39.4904V42.2703C32.5529 42.3741 32.1431 42.6305 31.8495 42.9976C31.5559 43.3646 31.396 43.8204 31.396 44.2902C31.396 44.76 31.5559 45.2158 31.8495 45.5828C32.1431 45.9499 32.5529 46.2063 33.0117 46.3101V48.9167H29.7155C28.8586 48.9188 28.0375 49.2596 27.4316 49.8647C26.8257 50.4697 26.4844 51.2898 26.4823 52.1455V52.933H21.6011C21.5258 52.9238 21.4494 52.9307 21.3769 52.9532C21.3044 52.9757 21.2376 53.0134 21.1807 53.0636C21.1239 53.1138 21.0784 53.1755 21.0473 53.2447C21.0161 53.3138 21 53.3887 21 53.4645C21 53.5403 21.0161 53.6152 21.0473 53.6843C21.0784 53.7534 21.1239 53.8152 21.1807 53.8654C21.2376 53.9157 21.3044 53.9533 21.3769 53.9758C21.4494 53.9983 21.5258 54.0052 21.6011 53.9961H52.5287C52.6587 53.9802 52.7784 53.9174 52.8652 53.8195C52.9521 53.7216 53 53.5953 53 53.4645C53 53.3337 52.9521 53.2074 52.8652 53.1095C52.7784 53.0116 52.6587 52.9488 52.5287 52.933ZM52.5287 53.7205H21.6011C21.5593 53.7274 21.5165 53.7251 21.4757 53.7139C21.4349 53.7026 21.397 53.6826 21.3647 53.6553C21.3324 53.6279 21.3064 53.5939 21.2886 53.5555C21.2708 53.5171 21.2616 53.4753 21.2616 53.433C21.2616 53.3907 21.2708 53.3489 21.2886 53.3105C21.3064 53.2721 21.3324 53.2381 21.3647 53.2107C21.397 53.1834 21.4349 53.1634 21.4757 53.1521C21.5165 53.1409 21.5593 53.1386 21.6011 53.1456H26.7583V52.1297C26.7583 51.3381 27.0732 50.579 27.6337 50.0193C28.1942 49.4595 28.9544 49.1451 29.747 49.1451H33.2798V46.1054H33.0669C32.6584 46.0151 32.293 45.7884 32.0311 45.4626C31.7691 45.1369 31.6264 44.7316 31.6264 44.3138C31.6264 43.8961 31.7691 43.4908 32.0311 43.165C32.293 42.8392 32.6584 42.6125 33.0669 42.5223L33.2482 42.4829V39.3329L33.0984 39.2778C31.7187 38.732 30.4672 37.9069 29.4225 36.8543C28.3779 35.8017 27.5629 34.5444 27.0288 33.1618C26.4947 31.7791 26.2531 30.301 26.3192 28.8205C26.3853 27.34 26.7576 25.8892 27.4129 24.5595L27.5469 24.2918L27.2551 24.2209C26.8934 24.1367 26.5755 23.922 26.3626 23.618C26.1497 23.314 26.0568 22.9421 26.1018 22.5739C26.1468 22.2056 26.3265 21.8669 26.6063 21.623C26.8862 21.379 27.2464 21.2469 27.6179 21.2521H46.4725C46.8439 21.2469 47.2042 21.379 47.484 21.623C47.7639 21.8669 47.9436 22.2056 47.9886 22.5739C48.0336 22.9421 47.9407 23.314 47.7278 23.618C47.5149 23.922 47.197 24.1367 46.8352 24.2209L46.5435 24.2918L46.6775 24.5595C47.3327 25.8892 47.7051 27.34 47.7712 28.8205C47.8373 30.301 47.5957 31.7791 47.0616 33.1618C46.5275 34.5444 45.7125 35.8017 44.6678 36.8543C43.6232 37.9069 42.3717 38.732 40.992 39.2778L40.8421 39.3329V42.4829L41.0314 42.5223C41.4399 42.6125 41.8053 42.8392 42.0672 43.165C42.3291 43.4908 42.4719 43.8961 42.4719 44.3138C42.4719 44.7316 42.3291 45.1369 42.0672 45.4626C41.8053 45.7884 41.4399 46.0151 41.0314 46.1054L40.8421 46.1447V49.1845H44.3749C45.1675 49.1845 45.9277 49.4989 46.4882 50.0586C47.0487 50.6184 47.3636 51.3775 47.3636 52.1691V53.1928H52.4971C52.5653 53.2041 52.6272 53.2392 52.6719 53.2919C52.7166 53.3445 52.7411 53.4112 52.7411 53.4803C52.7411 53.5493 52.7166 53.616 52.6719 53.6687C52.6272 53.7213 52.5653 53.7564 52.4971 53.7677L52.5287 53.7205Z" fill="#76CFF8"/>
<path d="M33.54 45.5697H40.6371C40.9555 45.5446 41.2527 45.4006 41.4695 45.1663C41.6863 44.932 41.8067 44.6248 41.8067 44.3058C41.8067 43.9868 41.6863 43.6796 41.4695 43.4453C41.2527 43.2111 40.9555 43.067 40.6371 43.0419H33.469C33.1506 43.067 32.8533 43.2111 32.6366 43.4453C32.4198 43.6796 32.2994 43.9868 32.2994 44.3058C32.2994 44.6248 32.4198 44.932 32.6366 45.1663C32.8533 45.4006 33.1506 45.5446 33.469 45.5697H33.54ZM32.4596 44.3097C32.4596 44.0396 32.5665 43.7804 32.7571 43.5886C32.9476 43.3969 33.2064 43.2881 33.4769 43.286H40.6449C40.7866 43.2736 40.9293 43.2907 41.0639 43.3363C41.1986 43.3819 41.3223 43.455 41.4271 43.5509C41.532 43.6468 41.6157 43.7634 41.673 43.8934C41.7303 44.0234 41.7599 44.1638 41.7599 44.3058C41.7599 44.4478 41.7303 44.5883 41.673 44.7182C41.6157 44.8482 41.532 44.9649 41.4271 45.0608C41.3223 45.1567 41.1986 45.2297 41.0639 45.2753C40.9293 45.3209 40.7866 45.3381 40.6449 45.3256H33.4769C33.2071 45.3256 32.9483 45.2186 32.7576 45.0281C32.5668 44.8376 32.4596 44.5792 32.4596 44.3097Z" fill="#76CFF8"/>
<path d="M33.8554 39.4353V42.4672H40.3138V39.4353H33.8554ZM40.0772 42.223H34.092V39.6794H40.0772V42.223Z" fill="#76CFF8"/>
</g>
<defs>
<filter id="filter0_d_301_17" x="15" y="15" width="44" height="45" filterUnits="userSpaceOnUse" color-interpolation-filters="sRGB">
<feFlood flood-opacity="0" result="BackgroundImageFix"/>
<feColorMatrix in="SourceAlpha" type="matrix" values="0 0 0 0 0 0 0 0 0 0 0 0 0 0 0 0 0 0 127 0" result="hardAlpha"/>
<feOffset/>
<feGaussianBlur stdDeviation="3"/>
<feComposite in2="hardAlpha" operator="out"/>
<feColorMatrix type="matrix" values="0 0 0 0 0.462745 0 0 0 0 0.811765 0 0 0 0 0.972549 0 0 0 0.8 0"/>
<feBlend mode="normal" in2="BackgroundImageFix" result="effect1_dropShadow_301_17"/>
<feBlend mode="normal" in="SourceGraphic" in2="effect1_dropShadow_301_17" result="shape"/>
</filter>
<radialGradient id="paint0_diamond_301_17" cx="0" cy="0" r="1" gradientUnits="userSpaceOnUse" gradientTransform="translate(37.5 37.5) rotate(45.9496) scale(64.0019 66.4472)">
<stop offset="0.553067" stop-color="#5B0C88"/>
<stop offset="0.755325" stop-color="#340450"/>
</radialGradient>
</defs>
</svg>
