<svg width="75" height="75" viewBox="0 0 75 75" fill="none" xmlns="http://www.w3.org/2000/svg">
<rect width="75" height="75" rx="7" fill="url(#paint0_diamond_313_29)"/>
<path d="M30.7198 41.49C30.6655 41.49 30.6119 41.5026 30.5633 41.5269C30.5147 41.5512 30.4725 41.5865 30.4398 41.63C30.0998 42.06 29.7399 42.55 29.3499 43.15L29.1099 43.5C27.4199 46.07 26.6498 47.24 24.6498 47.83C24.6021 47.8417 24.5575 47.8639 24.5195 47.8951C24.4814 47.9262 24.4508 47.9655 24.4298 48.01C24.4106 48.0542 24.4006 48.1018 24.4006 48.15C24.4006 48.1982 24.4106 48.2458 24.4298 48.29C24.4531 48.3648 24.4996 48.4303 24.5625 48.477C24.6254 48.5238 24.7015 48.5493 24.7798 48.55H24.8899C27.1399 47.87 28.0699 46.47 29.7599 43.92L29.9898 43.56C30.3698 42.99 30.7099 42.51 31.0399 42.1C31.0707 42.0627 31.0936 42.0195 31.1073 41.9731C31.1211 41.9267 31.1253 41.8781 31.1198 41.83C31.1154 41.7822 31.1005 41.736 31.0763 41.6945C31.0521 41.6531 31.0192 41.6174 30.9799 41.59C30.9469 41.5548 30.9063 41.5275 30.8613 41.5102C30.8163 41.4929 30.7679 41.486 30.7198 41.49V41.49Z" fill="white"/>
<path d="M58.0498 52.66H57.6599L57.6099 52.41C57.2299 50.48 56.2599 45.66 55.4199 42.65C54.9199 40.83 53.4999 39.34 52.0099 37.76C50.3299 36 48.5899 34.17 48.0099 31.76C47.3899 28.94 45.8999 28.27 45.0699 28.11H44.8199V24.26H49.8998V25.61C49.8998 25.6581 49.9095 25.7057 49.9282 25.7501C49.9469 25.7944 49.9743 25.8346 50.0088 25.8681C50.0433 25.9017 50.0842 25.928 50.129 25.9455C50.1738 25.963 50.2217 25.9713 50.2698 25.97H54.0598C54.1553 25.97 54.2469 25.932 54.3144 25.8645C54.3819 25.797 54.4199 25.7054 54.4199 25.61V20.61C54.4199 20.5135 54.3823 20.4209 54.315 20.3518C54.2478 20.2827 54.1562 20.2426 54.0598 20.24H50.6299V18.9C50.6299 18.8035 50.5923 18.7109 50.525 18.6418C50.4578 18.5727 50.3662 18.5326 50.2698 18.53H44.8199V17.7C44.8199 17.6018 44.7809 17.5077 44.7115 17.4383C44.6421 17.3689 44.548 17.33 44.4499 17.33C44.3517 17.33 44.2576 17.3689 44.1882 17.4383C44.1188 17.5077 44.0799 17.6018 44.0799 17.7V28.13L43.8499 28.19C43.4133 28.299 43.0069 28.5048 42.6607 28.7921C42.3145 29.0795 42.0374 29.441 41.8499 29.85L41.6798 30.2299C40.6052 32.8429 39.2148 35.3146 37.5399 37.59L37.1898 38.03L37.0099 37.49C36.7863 36.696 36.4708 35.9308 36.0699 35.21C35.8383 34.7697 35.4962 34.3971 35.0772 34.1289C34.6582 33.8607 34.1767 33.706 33.6798 33.68V33.68C32.1198 33.68 30.4398 35.27 28.2398 38.75L27.9199 39.26C25.5499 43.01 24.4699 44.73 21.6399 45.61C18.2899 46.61 17.0298 51.11 16.7198 52.45V52.69H15.7198C15.6225 52.6925 15.5299 52.7323 15.461 52.8011C15.3922 52.87 15.3524 52.9626 15.3499 53.06C15.3525 53.1563 15.3926 53.2479 15.4617 53.3151C15.5308 53.3824 15.6234 53.42 15.7198 53.42H58.0999C58.1963 53.42 58.2889 53.3824 58.358 53.3151C58.4271 53.2479 58.4672 53.1563 58.4698 53.06C58.4731 53.0048 58.4643 52.9497 58.444 52.8983C58.4237 52.847 58.3925 52.8007 58.3526 52.7626C58.3126 52.7245 58.2648 52.6956 58.2125 52.6779C58.1602 52.6602 58.1047 52.6541 58.0498 52.66ZM50.6699 20.94H53.7299V25.19H50.6699V20.94ZM44.8599 19.22H49.9398V23.4799H44.8599V19.22ZM44.0999 51.81C44.0999 51.94 44.0999 52.05 44.0999 52.16L44.0399 52.65H17.3998L17.4998 52.27C17.8998 50.75 19.0999 47.12 21.8499 46.27C24.9299 45.27 26.1298 43.4099 28.5298 39.6199L28.8499 39.1C30.8499 35.94 32.4298 34.4 33.6798 34.38C34.0473 34.4178 34.3993 34.5476 34.7034 34.7573C35.0075 34.967 35.2539 35.2499 35.4199 35.58C35.9048 36.538 36.2902 37.5432 36.5699 38.58H36.6498V38.84L36.8299 39.42L37.0598 40.1C37.1198 40.27 37.1698 40.43 37.2498 40.64V40.74C37.3198 40.94 37.3999 41.13 37.4799 41.31C38.2599 43.11 39.2098 44.13 42.0598 46.31C42.2121 46.4262 42.3558 46.5532 42.4898 46.69L42.6198 46.82L42.8698 47.1199L42.9799 47.28C43.0599 47.39 43.1298 47.5 43.2198 47.65L43.2798 47.74C43.3598 47.9 43.4399 48.06 43.5099 48.22V48.31L43.6599 48.72L43.7098 48.89L43.8098 49.27V49.4C43.8098 49.53 43.8099 49.66 43.8799 49.79V49.94L43.9398 50.42C43.9398 50.42 43.9398 50.77 43.9398 50.88C43.9398 50.99 43.9398 51.2299 43.9398 51.3699C43.9398 51.5099 44.1099 51.67 44.0999 51.82V51.81ZM45.0999 52.65L44.7698 52.57V52.2299V51.7299C44.7698 51.5899 44.7698 51.44 44.7698 51.26C44.7698 51.08 44.7698 50.97 44.7698 50.81C44.7698 50.81 44.7698 50.42 44.7698 50.3V50.13L44.7098 49.68V49.59C44.7098 49.42 44.6499 49.24 44.6099 49.05V48.91C44.6099 48.77 44.5398 48.64 44.4898 48.5L44.4298 48.33C44.4298 48.19 44.3298 48.06 44.2498 47.86V47.78C44.1698 47.61 44.0799 47.43 43.9799 47.26L43.9199 47.17C43.8391 47.0306 43.7489 46.8969 43.6498 46.77L43.5298 46.6199C43.4357 46.4923 43.3321 46.372 43.2198 46.26L43.1099 46.15C42.9593 45.9995 42.799 45.8592 42.6299 45.7299C41.3048 44.8354 40.1159 43.7543 39.0999 42.52L38.9398 42.3L39.1399 42.11C40.4299 40.9 43.5498 37.68 44.5198 34.11C44.5335 34.064 44.5379 34.0158 44.5327 33.9681C44.5275 33.9204 44.5128 33.8743 44.4895 33.8324C44.4662 33.7904 44.4348 33.7536 44.3971 33.724C44.3594 33.6944 44.3161 33.6726 44.2698 33.66H44.1699C44.0898 33.6596 44.0119 33.686 43.9485 33.7349C43.8851 33.7838 43.8399 33.8524 43.8199 33.93C42.9399 37.15 40.0598 40.1999 38.8698 41.3699L38.5598 41.67L38.2798 41.07L38.0699 40.54C38.0699 40.54 37.8999 40.0899 37.8299 39.8699L37.4898 38.8699L37.6099 38.74C39.5953 36.2513 41.2119 33.4896 42.4099 30.54L42.5699 30.16C42.7635 29.7701 43.0612 29.4414 43.4301 29.2102C43.7989 28.979 44.2246 28.8543 44.6599 28.85H44.8698C46.0698 28.97 46.9699 30.07 47.3899 31.96C47.9699 34.57 49.8598 36.56 51.5198 38.31C52.9598 39.82 54.3098 41.24 54.7698 42.88C55.1698 44.34 55.6598 46.4 56.2098 49.02L56.2899 49.39H48.9199C48.8225 49.3925 48.7299 49.4323 48.661 49.5011C48.5922 49.57 48.5524 49.6626 48.5498 49.76C48.5524 49.8564 48.5926 49.9479 48.6617 50.0152C48.7308 50.0824 48.8234 50.12 48.9199 50.1199H56.4398L56.4898 50.3699C56.6598 51.1599 56.7899 51.8499 56.8899 52.3699L56.9598 52.7299L45.0999 52.65Z" fill="white"/>
<path d="M44.42 50.85C44.42 50.73 44.42 50.61 44.42 50.45V50.37C44.42 50.21 44.42 50.04 44.37 49.87V49.76C44.37 49.63 44.32 49.5 44.3 49.36V49.19C44.3 49.07 44.24 48.95 44.19 48.8C44.1946 48.7501 44.1946 48.6999 44.19 48.65L44.03 48.2V48.13C43.9634 47.9633 43.8834 47.7933 43.79 47.62L43.73 47.51C43.66 47.39 43.59 47.27 43.51 47.15L43.19 46.94L42.91 46.61L42.81 46.5C42.6635 46.3521 42.5064 46.2151 42.34 46.09C39.54 43.98 38.62 42.98 37.86 41.24C37.78 41.07 37.71 40.88 37.63 40.68V40.6V40.53L37.46 40.05L37.4 39.86V39.78V39.7L37.3 39.38L37.15 38.91V38.84V38.79V38.7V38.63C36.8635 37.5324 36.4577 36.4694 35.94 35.46C35.7479 35.0852 35.4634 34.7655 35.1135 34.5311C34.7636 34.2966 34.3598 34.1551 33.94 34.12V34.12C32.56 34.12 30.94 35.69 28.85 38.99L28.53 39.5C26.1 43.35 24.99 45.1 22.02 46.03C19.23 46.9 17.97 50.29 17.47 52.24L17.27 53.01H44.56L44.62 52.46V52.3V52.23C44.62 52.13 44.62 52.01 44.62 51.88V51.83C44.62 51.72 44.62 51.61 44.62 51.49V51.36C44.62 51.25 44.62 51.15 44.62 51.04L44.42 50.85ZM43.81 51.43C43.81 51.55 43.81 51.66 43.81 51.76V51.81C43.81 51.93 43.81 52.04 43.81 52.14C43.8149 52.1664 43.8149 52.1936 43.81 52.22C43.81 52.27 43.81 52.31 43.81 52.35H17.8C18.2 50.79 19.36 47.35 21.94 46.57C25.13 45.57 26.35 43.64 28.79 39.79L29.11 39.28C31.02 36.28 32.57 34.71 33.69 34.69C34.21 34.69 34.69 35.05 35.17 35.76C35.6496 36.7193 36.0315 37.7243 36.31 38.76C36.3222 38.8146 36.3389 38.8682 36.36 38.92V38.92C36.36 38.92 36.36 39.02 36.36 39.07L36.51 39.54C36.56 39.68 36.6 39.82 36.65 39.95L36.74 40.23C36.8 40.4 36.85 40.56 36.91 40.71L36.97 40.88L37.2 41.46C38.02 43.32 38.98 44.37 41.88 46.56C42.0258 46.6692 42.1629 46.7896 42.29 46.92L42.4 47.04C42.4881 47.1261 42.5685 47.2198 42.64 47.32L42.74 47.46C42.8158 47.5628 42.8859 47.6696 42.95 47.78C42.9696 47.8221 42.993 47.8623 43.02 47.9C43.1 48.05 43.17 48.2 43.24 48.35C43.2359 48.3765 43.2359 48.4035 43.24 48.43C43.29 48.56 43.34 48.69 43.38 48.83C43.42 48.97 43.38 48.93 43.38 48.98C43.38 49.03 43.44 49.21 43.47 49.32C43.4655 49.3699 43.4655 49.4201 43.47 49.47L43.53 49.85C43.53 49.85 43.53 49.91 43.53 49.95C43.53 49.99 43.53 50.26 43.53 50.41C43.53 50.56 43.53 50.49 43.53 50.52C43.53 50.55 43.53 50.75 43.53 50.86V51.42L43.81 51.43Z" fill="#F6EB86"/>
<path d="M53.4199 25.51H54.0399V20.64H50.3699V25.51H53.4199ZM50.9799 23.85V21.25H53.4199V24.94H50.9799V23.85Z" fill="#F6EB86"/>
<path d="M58.05 52.35H57.91C57.59 50.71 56.58 45.66 55.72 42.56C55.19 40.67 53.72 39.16 52.23 37.56C50.74 35.96 48.87 34.03 48.35 31.7C47.68 28.7 46.05 27.98 45.16 27.82V24.54H49.63V25.54C49.63 25.6288 49.6477 25.7168 49.6819 25.7987C49.7162 25.8807 49.7665 25.955 49.8298 26.0173C49.8931 26.0797 49.9681 26.1288 50.0505 26.1619C50.133 26.195 50.2212 26.2113 50.31 26.21H54.1C54.2777 26.21 54.4481 26.1394 54.5738 26.0138C54.6994 25.8881 54.77 25.7177 54.77 25.54V20.54C54.77 20.3623 54.6994 20.1919 54.5738 20.0662C54.4481 19.9406 54.2777 19.87 54.1 19.87H50.98V18.87C50.98 18.6914 50.9098 18.5199 50.7844 18.3927C50.659 18.2654 50.4886 18.1926 50.31 18.19H45.19V17.67C45.19 17.4923 45.1194 17.3219 44.9938 17.1962C44.8681 17.0706 44.6977 17 44.52 17C44.3423 17 44.1719 17.0706 44.0462 17.1962C43.9206 17.3219 43.85 17.4923 43.85 17.67V27.87C43.3625 27.9852 42.9071 28.2086 42.5176 28.5237C42.1282 28.8387 41.8146 29.2373 41.6 29.69L41.43 30.08C40.3665 32.6685 38.9895 35.1167 37.33 37.37C37.0977 36.5442 36.7617 35.7513 36.33 35.01C36.0762 34.535 35.7049 34.1329 35.2514 33.8423C34.798 33.5517 34.2776 33.3822 33.74 33.35H33.68C32 33.35 30.25 34.98 27.98 38.56L27.66 39.07C25.33 42.76 24.27 44.44 21.55 45.29C18.09 46.36 16.78 50.78 16.42 52.35H15.68C15.5005 52.3526 15.329 52.4251 15.202 52.552C15.0751 52.679 15.0026 52.8505 15 53.03C15.0026 53.2086 15.0754 53.379 15.2027 53.5044C15.3299 53.6297 15.5014 53.7 15.68 53.7H58.06C58.2377 53.7 58.4081 53.6294 58.5338 53.5038C58.6594 53.3781 58.73 53.2077 58.73 53.03C58.73 52.8497 58.6583 52.6767 58.5308 52.5492C58.4033 52.4216 58.2303 52.35 58.05 52.35ZM58.05 53.09H15.67C15.6541 53.09 15.6388 53.0837 15.6276 53.0724C15.6163 53.0612 15.61 53.0459 15.61 53.03C15.6081 53.0217 15.6083 53.0131 15.6106 53.0049C15.613 52.9968 15.6173 52.9894 15.6234 52.9834C15.6294 52.9774 15.6368 52.973 15.645 52.9706C15.6531 52.9683 15.6617 52.9681 15.67 52.97H16.9L17.01 52.49C17.31 51.19 18.53 46.86 21.72 45.87C24.65 44.96 25.83 43.1 28.17 39.4L28.49 38.88C30.6 35.55 32.25 33.98 33.68 33.96H33.73C34.1667 33.9944 34.5872 34.1403 34.9514 34.3836C35.3155 34.627 35.6112 34.9597 35.81 35.35C36.2006 36.0476 36.5061 36.7896 36.72 37.56L37.07 38.64L37.78 37.75C39.4738 35.4548 40.8777 32.9592 41.96 30.32L42.13 29.94C42.3075 29.5721 42.5648 29.2485 42.8831 28.9925C43.2013 28.7365 43.5726 28.5546 43.97 28.46L44.43 28.34V17.67C44.43 17.6541 44.4363 17.6388 44.4476 17.6276C44.4588 17.6163 44.4741 17.61 44.49 17.61C44.5059 17.61 44.5212 17.6163 44.5324 17.6276C44.5437 17.6388 44.55 17.6541 44.55 17.67V18.81H50.31C50.3259 18.81 50.3412 18.8163 50.3524 18.8276C50.3637 18.8388 50.37 18.8541 50.37 18.87V20.52H54.1C54.1159 20.52 54.1312 20.5263 54.1424 20.5376C54.1537 20.5488 54.16 20.5641 54.16 20.58V25.58C54.16 25.5959 54.1537 25.6112 54.1424 25.6224C54.1312 25.6337 54.1159 25.64 54.1 25.64H50.31C50.293 25.6402 50.2766 25.6342 50.2637 25.6232C50.2509 25.6121 50.2424 25.5968 50.24 25.58V23.94H44.55V28.34L45.05 28.43C45.81 28.57 47.17 29.2 47.75 31.84C48.33 34.48 50.08 36.2 51.75 38C53.22 39.54 54.6 41 55.09 42.75C55.95 45.85 56.98 50.99 57.27 52.49L57.37 52.99H58.01C58.0259 52.99 58.0412 52.9963 58.0524 53.0076C58.0637 53.0188 58.07 53.0341 58.07 53.05C58.0687 53.0654 58.0616 53.0797 58.05 53.09Z" fill="#F6EB86"/>
<path d="M56.7398 50.27L56.6399 49.78H48.8698C48.8539 49.78 48.8387 49.7737 48.8274 49.7624C48.8162 49.7512 48.8098 49.7359 48.8098 49.72C48.8079 49.7117 48.8081 49.7031 48.8105 49.6949C48.8128 49.6868 48.8172 49.6794 48.8232 49.6734C48.8292 49.6674 48.8366 49.663 48.8448 49.6606C48.8529 49.6583 48.8616 49.6581 48.8698 49.66H56.6198L56.4598 48.92C55.9098 46.3 55.4599 44.22 55.0099 42.76C54.5299 41.05 53.1599 39.6 51.6999 38.06C50.0599 36.33 48.1999 34.38 47.6299 31.85C47.0299 29.12 45.6299 28.58 44.8499 28.51H44.6099C44.1151 28.5179 43.632 28.662 43.2139 28.9267C42.7957 29.1913 42.4587 29.5662 42.2398 30.01L42.0799 30.39C40.8933 33.31 39.2936 36.0446 37.3299 38.51L37.1099 38.8L37.2098 39.13V39.28V39.35C37.2598 39.5 37.2999 39.65 37.3499 39.8L37.4199 40.01C37.4699 40.16 37.5299 40.3 37.5799 40.44V40.5V40.61C37.6499 40.81 37.7298 40.99 37.7998 41.16L37.8998 41.38L38.2599 42.16L38.8799 41.56C40.3899 40.09 43.0399 37.15 43.8799 33.98C43.8799 33.98 43.8799 33.98 43.9499 33.98C43.9569 33.9922 43.9606 34.006 43.9606 34.02C43.9606 34.034 43.9569 34.0478 43.9499 34.06C42.9499 37.65 39.6398 40.98 38.6498 41.92L38.2498 42.29L38.5699 42.72C39.5983 43.988 40.8119 45.0937 42.1699 46C42.3278 46.1242 42.478 46.2578 42.6198 46.4L42.6999 46.48C42.8039 46.5833 42.9007 46.6936 42.9898 46.81L43.0898 46.93C43.1798 47.05 43.2598 47.18 43.3398 47.31L43.3998 47.4C43.4898 47.55 43.5698 47.72 43.6498 47.89V47.96V48.02C43.7085 48.1465 43.7586 48.2768 43.7998 48.41L43.8599 48.58C43.8599 48.71 43.9398 48.84 43.9698 48.96V49.03V49.1C43.9698 49.28 44.0399 49.45 44.0799 49.65V49.71C44.1096 49.8518 44.1297 49.9955 44.1399 50.14V50.3C44.1399 50.42 44.1399 50.54 44.1399 50.66V51.26C44.1399 51.41 44.1399 51.56 44.1399 51.69V51.81C44.1399 51.9 44.1399 52 44.1399 52.1V52.26L44.0699 52.94H56.9199L56.7798 52.21C57.0398 51.75 56.9098 51.06 56.7398 50.27ZM45.1099 52.35C45.105 52.3269 45.105 52.3031 45.1099 52.28C45.1049 52.2401 45.1049 52.1999 45.1099 52.16C45.1099 52.07 45.1099 51.98 45.1099 51.87V51.75C45.1099 51.61 45.1099 51.46 45.1099 51.3C45.1099 51.15 45.1099 51 45.1099 50.84C45.1099 50.68 45.1099 50.74 45.1099 50.69C45.1099 50.64 45.1099 50.44 45.1099 50.31C45.1099 50.18 45.1099 50.2 45.1099 50.14L45.0498 49.67C45.045 49.6402 45.045 49.6098 45.0498 49.58C45.0498 49.4 44.9798 49.21 44.9298 49.02C44.9344 48.9701 44.9344 48.9199 44.9298 48.87C44.8991 48.7275 44.859 48.5872 44.8098 48.45L44.7498 48.27C44.6998 48.13 44.6498 47.98 44.5898 47.84L44.5298 47.7C44.4398 47.51 44.3498 47.33 44.2498 47.15L44.1798 47.05C44.0998 46.91 43.9998 46.77 43.8998 46.63C43.8621 46.5723 43.8186 46.5187 43.7698 46.47C43.6798 46.35 43.5698 46.23 43.4698 46.11C43.4183 46.0684 43.3714 46.0215 43.3299 45.97C43.1654 45.8132 42.9918 45.6662 42.8098 45.53C41.5122 44.6503 40.3471 43.5896 39.3499 42.38C40.5399 41.25 43.8099 37.92 44.8199 34.23C44.8441 34.1446 44.8512 34.0553 44.8406 33.9672C44.8301 33.8791 44.8021 33.794 44.7584 33.7167C44.7146 33.6395 44.656 33.5718 44.5859 33.5174C44.5157 33.463 44.4355 33.4231 44.3499 33.4C44.2903 33.3901 44.2295 33.3901 44.1699 33.4C44.0223 33.3973 43.8781 33.444 43.7603 33.5329C43.6425 33.6217 43.5578 33.7474 43.5198 33.89C42.6698 37.01 39.8998 39.97 38.6498 41.19L38.5598 40.98C38.4898 40.83 38.4199 40.65 38.3499 40.47L38.2899 40.3C38.2432 40.1733 38.1932 40.0333 38.1399 39.88C38.121 39.8119 38.0976 39.745 38.0699 39.68C38.0699 39.53 37.9798 39.38 37.9298 39.23C37.8798 39.08 37.8799 39.09 37.8599 39.01V38.94C39.8721 36.4353 41.5062 33.6489 42.7098 30.67L42.8698 30.29C43.0405 29.9551 43.2992 29.6729 43.618 29.4738C43.9369 29.2747 44.304 29.1663 44.6798 29.16H44.8599C45.9199 29.26 46.7199 30.28 47.1099 32.02C47.7099 34.72 49.6299 36.74 51.3199 38.52C52.7299 40 54.0598 41.4 54.4898 42.96C54.9698 44.7 55.4898 47.06 55.9298 49.08H48.9298C48.7503 49.0826 48.5788 49.1551 48.4519 49.282C48.3249 49.409 48.2524 49.5805 48.2498 49.76C48.2525 49.9386 48.3253 50.109 48.4525 50.2344C48.5798 50.3598 48.7512 50.43 48.9298 50.43H56.1898C56.3598 51.22 56.4898 51.91 56.5898 52.43L45.1099 52.35Z" fill="#F6EB86"/>
<path d="M49.6298 23.7899H50.2398V18.9399H44.5498V23.7999H49.6298V23.7899ZM45.1898 19.5399H49.6598V23.1799H45.1898V19.5399Z" fill="#F6EB86"/>
<path d="M30.7198 41.19C30.6198 41.1888 30.5208 41.2108 30.4306 41.2541C30.3404 41.2975 30.2614 41.3611 30.1999 41.44C29.8499 41.88 29.4898 42.38 29.0898 42.98L28.8599 43.33C27.1599 45.91 26.4498 46.97 24.5598 47.54C24.3983 47.5797 24.2572 47.678 24.1642 47.8159C24.0711 47.9538 24.0327 48.1215 24.0564 48.2861C24.0801 48.4508 24.1642 48.6008 24.2924 48.7068C24.4206 48.8129 24.5836 48.8675 24.7498 48.86C24.8128 48.8696 24.8769 48.8696 24.9398 48.86C27.3098 48.16 28.2598 46.72 29.9398 44.1L30.1798 43.75C30.5498 43.19 30.8898 42.75 31.1798 42.31C31.2908 42.1719 31.3426 41.9955 31.3239 41.8194C31.3051 41.6432 31.2174 41.4816 31.0799 41.37C30.9801 41.276 30.8549 41.2134 30.7198 41.19V41.19ZM29.7198 43.38L29.4898 43.74C27.7898 46.31 26.9398 47.6 24.7698 48.25C24.756 48.2486 24.7429 48.243 24.7322 48.2341C24.7216 48.2252 24.7137 48.2133 24.7098 48.2C24.7098 48.2 24.7098 48.13 24.7098 48.13C26.8198 47.5 27.6099 46.3 29.3499 43.67L29.5799 43.32C29.9699 42.73 30.3199 42.24 30.6599 41.82C30.6662 41.8256 30.6713 41.8325 30.6748 41.8403C30.6783 41.8481 30.6802 41.8565 30.6802 41.865C30.6802 41.8735 30.6783 41.8819 30.6748 41.8897C30.6713 41.8974 30.6662 41.9044 30.6599 41.91C30.4399 42.32 30.0899 42.8 29.6999 43.38H29.7198Z" fill="#F6EB86"/>
<path d="M58.05 52.35H57.91C57.59 50.71 56.58 45.66 55.72 42.56C55.19 40.67 53.72 39.16 52.23 37.56C50.74 35.96 48.87 34.03 48.35 31.7C47.68 28.7 46.05 27.98 45.16 27.82V24.54H49.63V25.54C49.63 25.6288 49.6477 25.7168 49.6819 25.7987C49.7162 25.8807 49.7665 25.955 49.8298 26.0173C49.8931 26.0797 49.9681 26.1288 50.0505 26.1619C50.133 26.195 50.2212 26.2113 50.31 26.21H54.1C54.2777 26.21 54.4481 26.1394 54.5738 26.0138C54.6994 25.8881 54.77 25.7177 54.77 25.54V20.54C54.77 20.3623 54.6994 20.1919 54.5738 20.0662C54.4481 19.9406 54.2777 19.87 54.1 19.87H50.98V18.87C50.98 18.6914 50.9098 18.5199 50.7844 18.3927C50.659 18.2654 50.4886 18.1926 50.31 18.19H45.19V17.67C45.19 17.4923 45.1194 17.3219 44.9938 17.1962C44.8681 17.0706 44.6977 17 44.52 17C44.3423 17 44.1719 17.0706 44.0462 17.1962C43.9206 17.3219 43.85 17.4923 43.85 17.67V27.87C43.3625 27.9852 42.9071 28.2086 42.5176 28.5237C42.1282 28.8387 41.8146 29.2373 41.6 29.69L41.43 30.08C40.3665 32.6685 38.9895 35.1167 37.33 37.37C37.0977 36.5442 36.7617 35.7513 36.33 35.01C36.0762 34.535 35.7049 34.1329 35.2514 33.8423C34.798 33.5517 34.2776 33.3822 33.74 33.35H33.68C32 33.35 30.25 34.98 27.98 38.56L27.66 39.07C25.33 42.76 24.27 44.44 21.55 45.29C18.09 46.36 16.78 50.78 16.42 52.35H15.68C15.5005 52.3526 15.329 52.4251 15.202 52.552C15.0751 52.679 15.0026 52.8505 15 53.03C15.0026 53.2086 15.0754 53.379 15.2027 53.5044C15.3299 53.6297 15.5014 53.7 15.68 53.7H58.06C58.2377 53.7 58.4081 53.6294 58.5338 53.5038C58.6594 53.3781 58.73 53.2077 58.73 53.03C58.73 52.8497 58.6583 52.6767 58.5308 52.5492C58.4033 52.4216 58.2303 52.35 58.05 52.35ZM58.05 53.35H15.67C15.5736 53.35 15.4809 53.3124 15.4118 53.2452C15.3427 53.178 15.3026 53.0864 15.3 52.99C15.3025 52.8927 15.3423 52.8 15.4112 52.7312C15.48 52.6623 15.5727 52.6225 15.67 52.62H16.67V52.38C16.98 51.04 18.24 46.58 21.59 45.54C24.42 44.66 25.5 42.95 27.87 39.19L28.19 38.68C30.39 35.2 32.07 33.68 33.64 33.61H33.69C34.1779 33.6453 34.6487 33.8043 35.0581 34.072C35.4675 34.3397 35.802 34.7072 36.03 35.14C36.431 35.8608 36.7464 36.626 36.97 37.42L37.15 37.96L37.5 37.52C39.177 35.246 40.5675 32.7741 41.64 30.16L41.81 29.78C41.9976 29.371 42.2747 29.0095 42.6209 28.7222C42.9671 28.4348 43.3735 28.229 43.81 28.12L44.04 28.06V17.67C44.04 17.5719 44.079 17.4778 44.1484 17.4084C44.2178 17.339 44.3119 17.3 44.41 17.3C44.5081 17.3 44.6022 17.339 44.6716 17.4084C44.741 17.4778 44.78 17.5719 44.78 17.67V18.5H50.23C50.2781 18.5 50.3258 18.5096 50.3701 18.5283C50.4145 18.547 50.4546 18.5745 50.4882 18.6089C50.5217 18.6434 50.548 18.6843 50.5655 18.7292C50.583 18.774 50.5913 18.8219 50.59 18.87V20.21H54.02C54.1164 20.2126 54.2079 20.2527 54.2752 20.3218C54.3424 20.3909 54.38 20.4836 54.38 20.58V25.58C54.38 25.6764 54.3424 25.7691 54.2752 25.8382C54.2079 25.9073 54.1164 25.9474 54.02 25.95H50.23C50.1319 25.95 50.0378 25.911 49.9684 25.8416C49.899 25.7722 49.86 25.6781 49.86 25.58V24.23H44.78V28.08H45.03C45.86 28.24 47.35 28.91 47.97 31.73C48.51 34.14 50.25 35.97 51.97 37.73C53.46 39.3 54.88 40.79 55.38 42.6C56.25 45.72 57.28 50.87 57.57 52.37L57.62 52.62H58.01C58.1073 52.6225 58.2 52.6623 58.2688 52.7312C58.3377 52.8 58.3775 52.8927 58.38 52.99C58.3884 53.0866 58.3585 53.1827 58.2968 53.2575C58.2351 53.3323 58.1464 53.3799 58.05 53.39V53.35Z" fill="#E59323"/>
<path d="M53.4199 25.1999H53.7299V20.9399H50.6699V25.1899H53.4199V25.1999ZM50.9799 23.8499V21.2499H53.4199V24.9399H50.9799V23.8499Z" fill="#E59323"/>
<path d="M44.1098 50.86C44.1098 50.75 44.1098 50.63 44.1098 50.51V50.4C44.1098 50.24 44.1098 50.08 44.0498 49.92V49.81C44.0498 49.68 43.9998 49.55 43.9798 49.42V49.26C43.9798 49.14 43.9198 49.02 43.8798 48.88C43.8398 48.74 43.8798 48.79 43.8798 48.74L43.7198 48.3V48.24C43.6498 48.08 43.5698 47.92 43.4898 47.76L43.4298 47.67L43.2098 47.34C43.179 47.2828 43.1421 47.2292 43.0998 47.18L42.8498 46.88C42.8288 46.8424 42.8018 46.8087 42.7698 46.78C42.6314 46.644 42.4845 46.5171 42.3298 46.4C39.4798 44.24 38.5298 43.22 37.7498 41.4C37.6698 41.22 37.5898 41.03 37.5198 40.83V40.74V40.67C37.4598 40.52 37.4098 40.36 37.3498 40.19L37.2898 40V39.91V39.84L37.1798 39.51L37.0398 39.04V38.97V38.91V38.83V38.75C36.7605 37.6814 36.3683 36.6455 35.8698 35.66C35.7012 35.3259 35.4502 35.0404 35.1404 34.8304C34.8307 34.6205 34.4726 34.4929 34.0998 34.46C32.8498 34.46 31.2698 36.02 29.2698 39.18L28.9498 39.7C26.5498 43.49 25.3498 45.39 22.2698 46.35C19.5198 47.2 18.2698 50.83 17.9198 52.35L17.8198 52.7299H44.4398V52.46V52.29V52.24C44.4398 52.13 44.4398 52.02 44.4398 51.89C44.4398 51.79 44.4398 51.68 44.4398 51.56V50.9799L44.1098 50.86ZM43.8098 51.43C43.8098 51.55 43.8098 51.66 43.8098 51.76V51.81C43.8098 51.93 43.8098 52.04 43.8098 52.14C43.8147 52.1664 43.8147 52.1935 43.8098 52.22C43.8098 52.27 43.8098 52.31 43.8098 52.35H17.7998C18.1998 50.79 19.3598 47.35 21.9398 46.57C25.1298 45.57 26.3498 43.64 28.7898 39.79L29.1098 39.28C31.0198 36.28 32.5698 34.71 33.6898 34.69C34.2098 34.69 34.6898 35.05 35.1698 35.76C35.6494 36.7192 36.0313 37.7243 36.3098 38.76C36.322 38.8146 36.3387 38.8681 36.3598 38.92V38.92C36.3598 38.92 36.3598 39.02 36.3598 39.07L36.5098 39.54C36.5598 39.68 36.5998 39.82 36.6498 39.95L36.7398 40.2299C36.7998 40.3999 36.8498 40.56 36.9098 40.71L36.9698 40.88L37.1998 41.46C38.0198 43.32 38.9798 44.37 41.8798 46.56C42.0256 46.6692 42.1627 46.7895 42.2898 46.92L42.3998 47.04C42.4879 47.126 42.5682 47.2197 42.6398 47.32L42.7398 47.46C42.8155 47.5628 42.8857 47.6696 42.9498 47.78C42.9694 47.822 42.9928 47.8622 43.0198 47.9C43.0998 48.05 43.1698 48.2 43.2398 48.35C43.2357 48.3765 43.2357 48.4035 43.2398 48.43C43.2898 48.56 43.3398 48.69 43.3798 48.83C43.4198 48.97 43.3798 48.9299 43.3798 48.9799C43.3798 49.0299 43.4398 49.21 43.4698 49.32C43.4653 49.3699 43.4653 49.4201 43.4698 49.47L43.5298 49.85C43.5298 49.85 43.5298 49.91 43.5298 49.95C43.5298 49.99 43.5298 50.26 43.5298 50.41C43.5298 50.56 43.5298 50.49 43.5298 50.52C43.5298 50.55 43.5298 50.75 43.5298 50.86V51.42L43.8098 51.43Z" fill="#E59323"/>
<path d="M56.44 50.33L56.39 50.08H48.87C48.817 50.0888 48.7627 50.086 48.7109 50.0717C48.6592 50.0574 48.6111 50.032 48.5701 49.9973C48.5291 49.9625 48.4962 49.9193 48.4736 49.8705C48.4511 49.8218 48.4394 49.7687 48.4394 49.715C48.4394 49.6613 48.4511 49.6082 48.4736 49.5595C48.4962 49.5107 48.5291 49.4675 48.5701 49.4328C48.6111 49.398 48.6592 49.3726 48.7109 49.3584C48.7627 49.3441 48.817 49.3412 48.87 49.35H56.24L56.19 48.94C55.64 46.33 55.19 44.26 54.75 42.8C54.29 41.16 52.94 39.74 51.5 38.23C49.84 36.48 47.95 34.49 47.37 31.88C46.95 29.99 46.05 28.88 44.85 28.77H44.64C44.2034 28.7742 43.7765 28.8999 43.4074 29.133C43.0382 29.3662 42.7413 29.6976 42.55 30.09L42.39 30.46C41.192 33.4097 39.5754 36.1714 37.59 38.66L37.48 38.82L37.54 38.99V39.13V39.21C37.59 39.36 37.64 39.51 37.68 39.65L37.75 39.86C37.8 40.01 37.85 40.15 37.91 40.29V40.35V40.46L38.12 40.99L38.21 41.2L38.4 41.59L38.71 41.29C39.9 40.13 42.78 37.07 43.66 33.85C43.68 33.7725 43.7253 33.7039 43.7887 33.655C43.8521 33.6061 43.9299 33.5797 44.01 33.58H44.11C44.1562 33.5927 44.1995 33.6145 44.2372 33.6441C44.2749 33.6737 44.3064 33.7105 44.3297 33.7524C44.3529 33.7943 44.3676 33.8405 44.3728 33.8882C44.378 33.9358 44.3737 33.9841 44.36 34.03C43.36 37.6 40.27 40.82 38.98 42.03L38.78 42.22L38.94 42.43C39.9523 43.6707 41.1417 44.7557 42.47 45.65C42.64 45.7781 42.8005 45.9185 42.95 46.07L43.04 46.16V46.21C43.1507 46.3164 43.2542 46.43 43.35 46.55L43.45 46.69C43.5491 46.817 43.6393 46.9506 43.72 47.09V47.09C43.8198 47.258 43.91 47.4317 43.99 47.61V47.69V47.75C44.04 47.89 44.1 48.02 44.14 48.16L44.2 48.33C44.25 48.47 44.28 48.6 44.32 48.74V48.94V49.02C44.32 49.21 44.4 49.39 44.42 49.56V49.65L44.48 50.1V50.27V50.63V50.78C44.48 50.94 44.48 51.09 44.48 51.26C44.48 51.43 44.48 51.56 44.48 51.7V51.82C44.48 51.91 44.48 52.01 44.48 52.11V52.28V52.62H56.62L56.55 52.26C56.74 51.81 56.61 51.12 56.44 50.33ZM45.11 52.33C45.1051 52.3069 45.1051 52.2831 45.11 52.26C45.1051 52.2202 45.1051 52.1799 45.11 52.14C45.11 52.05 45.11 51.96 45.11 51.85V51.73C45.11 51.59 45.11 51.44 45.11 51.28C45.11 51.13 45.11 50.98 45.11 50.82C45.11 50.66 45.11 50.72 45.11 50.67C45.11 50.62 45.11 50.42 45.11 50.29C45.11 50.16 45.11 50.18 45.11 50.12L45.05 49.65C45.0451 49.6202 45.0451 49.5898 45.05 49.56C45.05 49.38 44.98 49.19 44.93 49C44.9345 48.9501 44.9345 48.8999 44.93 48.85C44.8993 48.7075 44.8592 48.5672 44.81 48.43L44.75 48.25C44.7 48.11 44.65 47.96 44.59 47.82L44.53 47.68C44.44 47.49 44.35 47.31 44.25 47.13L44.18 47.03C44.1 46.89 44 46.75 43.9 46.61C43.8623 46.5523 43.8187 46.4987 43.77 46.45C43.68 46.33 43.57 46.21 43.47 46.09C43.4185 46.0485 43.3715 46.0015 43.33 45.95C43.1655 45.7932 42.9919 45.6462 42.81 45.51C41.5123 44.6304 40.3472 43.5696 39.35 42.36C40.54 41.23 43.81 37.9 44.82 34.21C44.8442 34.1247 44.8513 34.0353 44.8407 33.9472C44.8302 33.8591 44.8022 33.774 44.7585 33.6968C44.7148 33.6195 44.6561 33.5518 44.586 33.4974C44.5159 33.443 44.4357 33.4031 44.35 33.38C44.2904 33.3701 44.2296 33.3701 44.17 33.38C44.0225 33.3773 43.8783 33.4241 43.7604 33.5129C43.6426 33.6017 43.5579 33.7274 43.52 33.87C42.67 36.99 39.9 39.95 38.65 41.17L38.56 40.96C38.49 40.81 38.42 40.63 38.35 40.45L38.29 40.28C38.2433 40.1533 38.1933 40.0133 38.14 39.86C38.1211 39.7919 38.0977 39.7251 38.07 39.66C38.07 39.51 37.98 39.36 37.93 39.21C37.88 39.06 37.88 39.07 37.86 38.99V38.92C39.8723 36.4153 41.5063 33.629 42.71 30.65L42.87 30.27C43.0406 29.9351 43.2993 29.6529 43.6182 29.4538C43.937 29.2547 44.3041 29.1463 44.68 29.14H44.86C45.92 29.24 46.72 30.26 47.11 32C47.71 34.7 49.63 36.72 51.32 38.5C52.73 39.98 54.06 41.38 54.49 42.94C54.97 44.68 55.49 47.04 55.93 49.06H48.93C48.7504 49.0626 48.579 49.1351 48.452 49.262C48.325 49.389 48.2526 49.5605 48.25 49.74C48.2526 49.9186 48.3254 50.089 48.4526 50.2144C48.5799 50.3398 48.7513 50.41 48.93 50.41H56.19C56.36 51.2 56.49 51.89 56.59 52.41L45.11 52.33Z" fill="#E59323"/>
<path d="M49.6299 23.49H49.9398V19.23H44.8599V23.49H49.6299ZM45.1599 19.49H49.6299V23.13H45.1898L45.1599 19.49Z" fill="#E59323"/>
<path d="M30.7198 41.19C30.6198 41.1888 30.5208 41.2108 30.4306 41.2541C30.3404 41.2975 30.2614 41.3611 30.1999 41.44C29.8499 41.88 29.4898 42.38 29.0898 42.98L28.8599 43.33C27.1599 45.91 26.4498 46.97 24.5598 47.54C24.3983 47.5797 24.2572 47.678 24.1642 47.8159C24.0711 47.9538 24.0327 48.1215 24.0564 48.2861C24.0801 48.4508 24.1642 48.6008 24.2924 48.7068C24.4206 48.8129 24.5836 48.8675 24.7498 48.86C24.8128 48.8696 24.8769 48.8696 24.9398 48.86C27.3098 48.16 28.2598 46.72 29.9398 44.1L30.1798 43.75C30.5498 43.19 30.8898 42.75 31.1798 42.31C31.2908 42.1719 31.3426 41.9955 31.3239 41.8194C31.3051 41.6432 31.2174 41.4816 31.0799 41.37C30.9801 41.276 30.8549 41.2134 30.7198 41.19V41.19ZM31.0099 42.09C30.6799 42.5 30.3398 42.98 29.9598 43.55L29.7299 43.91C28.0399 46.46 27.1099 47.86 24.8599 48.54H24.7498C24.6715 48.5393 24.5954 48.5137 24.5325 48.467C24.4696 48.4203 24.4231 48.3548 24.3998 48.28C24.3806 48.2358 24.3706 48.1882 24.3706 48.14C24.3706 48.0918 24.3806 48.0441 24.3998 48C24.4208 47.9555 24.4514 47.9162 24.4895 47.8851C24.5275 47.8539 24.5721 47.8317 24.6198 47.82C26.6198 47.23 27.3899 46.06 29.0799 43.49L29.3199 43.14C29.7099 42.55 30.0599 42.05 30.4099 41.62C30.4425 41.5765 30.4847 41.5412 30.5333 41.5169C30.5819 41.4926 30.6355 41.48 30.6898 41.48C30.7322 41.479 30.7744 41.4865 30.8139 41.5019C30.8534 41.5174 30.8894 41.5405 30.9199 41.57C30.9614 41.597 30.9969 41.6323 31.0241 41.6736C31.0514 41.715 31.0698 41.7616 31.0783 41.8104C31.0867 41.8592 31.085 41.9092 31.0732 41.9573C31.0614 42.0054 31.0399 42.0506 31.0099 42.09V42.09Z" fill="#E59323"/>
<defs>
<radialGradient id="paint0_diamond_313_29" cx="0" cy="0" r="1" gradientUnits="userSpaceOnUse" gradientTransform="translate(37.5 37.5) rotate(45.9496) scale(64.0019 66.4472)">
<stop offset="0.553067" stop-color="#5B0C88"/>
<stop offset="0.755325" stop-color="#340450"/>
</radialGradient>
</defs>
</svg>
