<svg width="75" height="75" viewBox="0 0 75 75" fill="none" xmlns="http://www.w3.org/2000/svg">
<rect width="75" height="75" rx="7" fill="#1C022A"/>
<rect x="1" y="1" width="73" height="73" rx="6" stroke="#FFA318" stroke-opacity="0.8" stroke-width="2"/>
<path d="M34.8125 44.5312C34.8438 42.6875 35.0938 41.2031 35.5625 40.0781C36.0312 38.9531 37.0391 37.6328 38.5859 36.1172C40.1328 34.5859 41.125 33.5078 41.5625 32.8828C42.0156 32.2422 42.3594 31.5469 42.5938 30.7969C42.8438 30.0312 42.9688 29.1641 42.9688 28.1953C42.9688 26.2422 42.4453 24.7109 41.3984 23.6016C40.3672 22.4766 38.9219 21.9141 37.0625 21.9141C35.1875 21.9141 33.6719 22.4531 32.5156 23.5312C31.375 24.5938 30.7891 26.0391 30.7578 27.8672H27.9688C28 25.3047 28.8672 23.2578 30.5703 21.7266C32.2734 20.1797 34.4375 19.4062 37.0625 19.4062C39.75 19.4062 41.8672 20.1953 43.4141 21.7734C44.9766 23.3359 45.7578 25.4609 45.7578 28.1484C45.7578 29.8359 45.375 31.4219 44.6094 32.9062C43.8438 34.375 42.3906 36.0938 40.25 38.0625C38.4844 39.5469 37.6016 41.7031 37.6016 44.5312H34.8125ZM34.4375 52.3594C34.4375 51.8281 34.6016 51.3828 34.9297 51.0234C35.2734 50.6484 35.75 50.4609 36.3594 50.4609C36.9531 50.4609 37.4219 50.6484 37.7656 51.0234C38.125 51.3828 38.3047 51.8281 38.3047 52.3594C38.3047 52.875 38.125 53.3125 37.7656 53.6719C37.4219 54.0156 36.9531 54.1875 36.3594 54.1875C35.75 54.1875 35.2734 54.0156 34.9297 53.6719C34.6016 53.3125 34.4375 52.875 34.4375 52.3594Z" fill="#E59323" fill-opacity="0.8"/>
</svg>
