<svg width="75" height="75" viewBox="0 0 75 75" fill="none" xmlns="http://www.w3.org/2000/svg">
<rect width="75" height="75" rx="7" fill="url(#paint0_diamond_313_28)"/>
<g filter="url(#filter0_d_313_28)">
<path d="M36.21 36.81L36.41 37.19L36.83 37.13H36.92H37.17H37.41H37.5L37.92 37.19L38.12 36.81L43.85 25.9L44.32 25H30L30.48 25.9L36.21 36.81ZM43.31 25.62L37.58 36.53C37.4447 36.5035 37.3077 36.4868 37.17 36.48C37.0323 36.4862 36.8952 36.5029 36.76 36.53L31.02 25.62H43.31Z" fill="#E18AF4"/>
<path d="M36.8242 36.3901H37.0442H37.0941C37.1906 36.3802 37.2877 36.3802 37.3842 36.3901C37.4772 36.3802 37.5711 36.3802 37.6642 36.3901H37.7542H37.9641L38.0641 36.2001L43.8341 25.2601L44.0641 24.8101H30.7542L30.9941 25.2601L36.7242 36.1701L36.8242 36.3901ZM43.5541 25.1501L37.8242 36.06C37.6889 36.0336 37.5518 36.0169 37.4142 36.0101C37.2764 36.0162 37.1393 36.0329 37.0042 36.06L31.2642 25.1501H43.5541Z" fill="#D72AF0"/>
<path d="M48.3244 20.16L48.2344 20.01H26.5844L26.4944 20.16L24.4944 23.65L24.2344 24.1H50.6143L50.3444 23.65L48.3244 20.16ZM44.6743 23.8H24.7544L26.7544 20.32H48.0944L50.0944 23.8H44.6743Z" fill="#D72AF0"/>
<path d="M45.0943 24.8401H44.9043L44.8243 25.0001L38.8243 36.3701L38.6943 36.6201L38.9343 36.7701C39.4286 37.0824 39.8186 37.535 40.0543 38.0701L40.2643 38.5601L40.5743 38.1401L50.0943 25.3301L50.4643 24.8401H45.0943V24.8401ZM40.3543 37.9501C40.0953 37.3563 39.6631 36.8544 39.1143 36.5101L45.1143 25.1501H49.9243L40.3543 37.9501Z" fill="#D72AF0"/>
<path d="M51.5542 24.2601L48.7642 19.4301C48.7335 19.3749 48.6885 19.3291 48.634 19.2974C48.5794 19.2657 48.5173 19.2494 48.4542 19.2501H26.3742C26.3096 19.2486 26.2458 19.2646 26.1895 19.2962C26.1332 19.3279 26.0865 19.3741 26.0542 19.4301L23.2842 24.2601V24.3301V24.4201V24.5201V24.6201L34.6542 39.8801V39.9301C34.8159 40.5428 35.1758 41.0847 35.6777 41.4714C36.1797 41.8581 36.7955 42.0678 37.4292 42.0678C38.0628 42.0678 38.6787 41.8581 39.1806 41.4714C39.6826 41.0847 40.0425 40.5428 40.2042 39.9301V39.8801L51.5442 24.6601V24.5701V24.4801V24.3801L51.5542 24.2601ZM34.7542 38.0401L34.5442 38.5301L24.3142 24.8101H29.9242L36.1242 36.5901L35.8842 36.7401C35.3799 37.0569 34.9853 37.5212 34.7542 38.0701V38.0401ZM30.7542 24.8101H44.0942L38.0242 36.3601H37.7242H37.4442C37.3511 36.3498 37.2572 36.3498 37.1642 36.3601H36.8542L30.7542 24.8101ZM37.4142 41.3301C36.9861 41.3321 36.5671 41.2068 36.2104 40.9702C35.8536 40.7337 35.5752 40.3964 35.4105 40.0013C35.2458 39.6062 35.2022 39.1711 35.2852 38.7512C35.3682 38.3312 35.5742 37.9454 35.8769 37.6427C36.1795 37.3401 36.5653 37.1342 36.9853 37.0511C37.4052 36.9681 37.8403 37.0117 38.2354 37.1764C38.6305 37.3412 38.9677 37.6196 39.2043 37.9763C39.4409 38.333 39.5662 38.752 39.5642 39.1801C39.5682 39.465 39.5155 39.7477 39.4092 40.0121C39.3029 40.2764 39.1452 40.517 38.9452 40.7198C38.7451 40.9226 38.5068 41.0837 38.2439 41.1936C37.9811 41.3035 37.6991 41.3601 37.4142 41.3601V41.3301ZM40.2742 38.5301L40.0642 38.0401C39.8284 37.505 39.4385 37.0524 38.9442 36.7401L38.7042 36.5901L44.8942 24.8101H50.5042L40.2742 38.5301ZM24.2242 24.0701L26.5842 19.9801H48.2342L50.6042 24.0701H24.2242Z" fill="#F0D4F7"/>
<path d="M51.8943 24.33C51.8943 24.33 51.8943 24.26 51.8943 24.22C51.8943 24.18 51.8943 24.22 51.8943 24.17L49.1143 19.34C49.0562 19.2373 48.9719 19.1517 48.8701 19.092C48.7682 19.0323 48.6524 19.0006 48.5343 19H26.3743C26.2546 18.9988 26.1367 19.0297 26.0329 19.0895C25.9292 19.1493 25.8433 19.2358 25.7843 19.34L23.0043 24.17V24.23C22.9986 24.2631 22.9986 24.297 23.0043 24.33C22.9995 24.3531 22.9995 24.3769 23.0043 24.4C22.9999 24.4332 22.9999 24.4668 23.0043 24.5C23.0043 24.5 23.0043 24.56 23.0043 24.58C23.0043 24.6 23.0043 24.65 23.0043 24.68V24.75V24.81L34.2944 39.96C34.4733 40.6391 34.872 41.2399 35.4283 41.6685C35.9846 42.0972 36.6671 42.3296 37.3693 42.3296C38.0716 42.3296 38.7541 42.0972 39.3104 41.6685C39.8666 41.2399 40.2654 40.6391 40.4443 39.96L51.7344 24.81V24.75V24.68C51.7344 24.68 51.7344 24.62 51.7344 24.58C51.7344 24.54 51.7344 24.58 51.7344 24.5V24.4C51.7522 24.375 51.7765 24.3552 51.8047 24.3429C51.8328 24.3306 51.8638 24.3261 51.8943 24.33ZM51.2843 24.5L39.9943 39.66L39.9243 39.75V39.86C39.7988 40.4296 39.4826 40.9392 39.0279 41.3046C38.5733 41.6699 38.0076 41.869 37.4243 41.869C36.8411 41.869 36.2754 41.6699 35.8207 41.3046C35.3661 40.9392 35.0499 40.4296 34.9243 39.86V39.75L34.8443 39.66L23.5843 24.55V24.46L26.3443 19.67C26.3535 19.6648 26.3638 19.662 26.3743 19.662C26.3849 19.662 26.3952 19.6648 26.4043 19.67H48.4844C48.492 19.6656 48.5006 19.6633 48.5093 19.6633C48.5181 19.6633 48.5267 19.6656 48.5343 19.67L51.2944 24.46V24.51L51.2843 24.5Z" fill="#E18AF4"/>
<path d="M36.0944 37.03L36.5744 36.73L36.3144 36.23L30.3144 24.86L30.1344 24.53H23.7344L24.4644 25.53L34.0144 38.34L34.6544 39.19L35.0644 38.19C35.2838 37.7089 35.6426 37.3048 36.0944 37.03V37.03ZM34.5244 37.95L24.9744 25.15H29.7944L35.7944 36.51C35.2183 36.8448 34.7579 37.3471 34.4744 37.95H34.5244Z" fill="#E18AF4"/>
<path d="M37.4143 36.75C36.9274 36.748 36.4508 36.8906 36.0449 37.1597C35.6391 37.4289 35.3222 37.8123 35.1345 38.2617C34.9467 38.711 34.8966 39.2059 34.9904 39.6838C35.0842 40.1616 35.3177 40.6009 35.6613 40.9459C36.005 41.291 36.4433 41.5263 36.9207 41.622C37.3982 41.7177 37.8933 41.6696 38.3434 41.4837C38.7935 41.2978 39.1783 40.9825 39.449 40.5778C39.7198 40.173 39.8643 39.697 39.8643 39.21C39.8643 38.5593 39.6065 37.9351 39.1473 37.4741C38.6882 37.013 38.065 36.7527 37.4143 36.75V36.75ZM37.4143 41.05C37.0476 41.052 36.6885 40.9449 36.3828 40.7424C36.077 40.5399 35.8384 40.2511 35.6971 39.9126C35.5558 39.5742 35.5184 39.2014 35.5894 38.8416C35.6605 38.4818 35.8369 38.1512 36.0962 37.8919C36.3556 37.6326 36.6861 37.4562 37.0459 37.3851C37.4057 37.3141 37.7785 37.3515 38.1169 37.4928C38.4554 37.634 38.7442 37.8727 38.9467 38.1785C39.1492 38.4842 39.2563 38.8433 39.2543 39.21C39.2517 39.6972 39.057 40.1637 38.7125 40.5082C38.368 40.8527 37.9015 41.0474 37.4143 41.05Z" fill="#E18AF4"/>
<path d="M48.5941 20.0099L48.4141 19.7H26.4141L26.2341 20.0099L24.2341 23.4899L23.7041 24.4099H51.0941L50.5641 23.4899L48.5941 20.0099ZM44.6741 23.7999H24.7541L26.7541 20.3199H48.0941L50.0941 23.7999H44.6741Z" fill="#E18AF4"/>
<path d="M45.0942 24.53H44.7242L44.5442 24.86L38.5442 36.23L38.2742 36.73L38.7542 37.03C39.1952 37.3089 39.5433 37.7127 39.7542 38.19L40.1642 39.19L40.8042 38.34L50.3542 25.53L51.0842 24.53H45.0842H45.0942ZM40.3542 37.95C40.0951 37.3562 39.663 36.8544 39.1142 36.51L45.1142 25.15H49.9242L40.3542 37.95Z" fill="#E18AF4"/>
<path d="M36.0941 36.6201L35.9541 36.3701L29.9541 25.0001L29.8641 24.8401H24.2542L24.6241 25.3301L34.1741 38.1401L34.4842 38.5601L34.6942 38.0701C34.9305 37.5323 35.3245 37.079 35.8242 36.7701L36.0941 36.6201ZM34.4442 37.9501L24.8941 25.1501H29.7141L35.7141 36.5101C35.1678 36.8572 34.7363 37.3582 34.4742 37.9501H34.4442Z" fill="#D72AF0"/>
<path d="M37.4142 37.0601C36.9889 37.0601 36.5733 37.1862 36.2197 37.4224C35.8661 37.6587 35.5905 37.9944 35.4278 38.3873C35.2651 38.7802 35.2225 39.2125 35.3055 39.6295C35.3884 40.0466 35.5932 40.4297 35.8939 40.7303C36.1946 41.031 36.5777 41.2358 36.9947 41.3188C37.4118 41.4017 37.8441 41.3591 38.2369 41.1964C38.6298 41.0337 38.9656 40.7581 39.2018 40.4045C39.4381 40.051 39.5642 39.6353 39.5642 39.2101C39.5642 38.6399 39.3376 38.093 38.9344 37.6898C38.5312 37.2866 37.9844 37.0601 37.4142 37.0601V37.0601ZM37.4142 41.0601C37.0474 41.062 36.6884 40.955 36.3826 40.7525C36.0769 40.55 35.8382 40.2611 35.6969 39.9227C35.5557 39.5842 35.5182 39.2114 35.5893 38.8516C35.6603 38.4918 35.8367 38.1613 36.0961 37.9019C36.3554 37.6426 36.6859 37.4662 37.0457 37.3952C37.4055 37.3241 37.7783 37.3616 38.1168 37.5028C38.4552 37.6441 38.744 37.8827 38.9466 38.1885C39.1491 38.4943 39.2562 38.8533 39.2542 39.2201C39.2489 39.7055 39.0531 40.1695 38.7089 40.5118C38.3646 40.8542 37.8996 41.0475 37.4142 41.0501V41.0601Z" fill="#D72AF0"/>
<path d="M51.8943 24.33C51.8943 24.33 51.8943 24.26 51.8943 24.22C51.8943 24.18 51.8943 24.22 51.8943 24.17L49.1143 19.34C49.0562 19.2373 48.9719 19.1517 48.8701 19.092C48.7682 19.0323 48.6524 19.0006 48.5343 19H26.3743C26.2546 18.9988 26.1367 19.0297 26.0329 19.0895C25.9292 19.1493 25.8433 19.2358 25.7843 19.34L23.0043 24.17V24.23C22.9986 24.2631 22.9986 24.297 23.0043 24.33C22.9995 24.3531 22.9995 24.3769 23.0043 24.4C22.9999 24.4332 22.9999 24.4668 23.0043 24.5C23.0043 24.5 23.0043 24.56 23.0043 24.58C23.0043 24.6 23.0043 24.65 23.0043 24.68V24.75V24.81L34.2944 39.96C34.4733 40.6391 34.872 41.2399 35.4283 41.6685C35.9846 42.0972 36.6671 42.3296 37.3693 42.3296C38.0716 42.3296 38.7541 42.0972 39.3104 41.6685C39.8666 41.2399 40.2654 40.6391 40.4443 39.96L51.7344 24.81V24.75V24.68C51.7344 24.68 51.7344 24.62 51.7344 24.58C51.7344 24.54 51.7344 24.58 51.7344 24.5V24.4C51.7522 24.375 51.7765 24.3552 51.8047 24.3429C51.8328 24.3306 51.8638 24.3261 51.8943 24.33ZM51.5744 24.53V24.58L40.2944 39.71V39.76V39.81C40.1327 40.4227 39.7728 40.9646 39.2708 41.3513C38.7688 41.738 38.153 41.9477 37.5193 41.9477C36.8857 41.9477 36.2699 41.738 35.7679 41.3513C35.2659 40.9646 34.906 40.4227 34.7443 39.81V39.76V39.71L23.4643 24.58C23.4643 24.58 23.4643 24.58 23.4643 24.53V24.39L26.0943 19.46C26.1266 19.4041 26.1734 19.3578 26.2297 19.3262C26.286 19.2945 26.3498 19.2786 26.4143 19.28H48.4943C48.5574 19.2793 48.6196 19.2956 48.6741 19.3273C48.7287 19.359 48.7737 19.4049 48.8043 19.46L51.5843 24.27C51.5843 24.27 51.5843 24.27 51.5843 24.33L51.5744 24.53Z" fill="#D72AF0"/>
<path d="M37.4143 41.3601C35.4791 41.3581 33.5869 41.9303 31.977 43.0042C30.3672 44.078 29.1121 45.6054 28.3706 47.3928C27.6292 49.1803 27.4347 51.1476 27.8117 53.0456C28.1888 54.9437 29.1204 56.6872 30.4888 58.0556C31.8571 59.424 33.6007 60.3556 35.4987 60.7327C37.3968 61.1097 39.3641 60.9152 41.1515 60.1737C42.939 59.4323 44.4663 58.1772 45.5402 56.5674C46.6141 54.9575 47.1862 53.0653 47.1843 51.1301C47.1816 48.5397 46.1514 46.0562 44.3198 44.2246C42.4881 42.3929 40.0046 41.3628 37.4143 41.3601V41.3601ZM37.4143 60.1801C35.6364 60.1801 33.8983 59.6535 32.4194 58.6667C30.9404 57.68 29.7869 56.2773 29.1042 54.6357C28.4216 52.9941 28.2405 51.1871 28.5837 49.4426C28.9269 47.6982 29.7792 46.0944 31.0328 44.8338C32.2865 43.5732 33.8855 42.7121 35.628 42.3592C37.3705 42.0063 39.1785 42.1774 40.8239 42.8509C42.4693 43.5245 43.8783 44.6702 44.8733 46.1437C45.8682 47.6171 46.4044 49.3522 46.4143 51.1301C46.4117 53.5209 45.4642 55.8137 43.7784 57.5089C42.0925 59.2041 39.805 60.1643 37.4143 60.1801V60.1801Z" fill="white"/>
<path d="M38.9342 53.2601V46.6301H36.8442C36.3222 47.308 35.633 47.8387 34.8442 48.1701L35.3742 49.4701L36.5443 48.9201V53.2601H35.3442V54.8201H40.0642V53.2601H38.9742H38.9342ZM39.4042 54.2601H35.9142V53.9201H37.0942V48.0001L36.2142 48.4101L35.6242 48.6901L35.5542 48.5201C36.1468 48.2076 36.6705 47.7791 37.0942 47.2601H38.2943V53.8801H39.3742L39.4042 54.2601Z" fill="#EFCA09"/>
<path d="M37.4142 41.78C35.5645 41.7781 33.7558 42.3247 32.2169 43.3509C30.678 44.3771 29.478 45.8367 28.7688 47.545C28.0596 49.2533 27.873 51.1336 28.2326 52.948C28.5923 54.7624 29.482 56.4293 30.7892 57.738C32.0964 59.0466 33.7625 59.9381 35.5765 60.2997C37.3904 60.6612 39.2709 60.4766 40.98 59.7693C42.6891 59.0619 44.1499 57.8635 45.1778 56.3257C46.2056 54.7878 46.7542 52.9797 46.7542 51.13C46.7516 48.6528 45.767 46.2777 44.0163 44.5251C42.2655 42.7725 39.8914 41.7853 37.4142 41.78ZM37.4142 59.87C35.6852 59.872 33.9944 59.3611 32.5558 58.402C31.1172 57.4428 29.9954 56.0785 29.3324 54.4816C28.6693 52.8848 28.4948 51.1271 28.8309 49.4311C29.167 47.735 29.9986 46.1768 31.2206 44.9535C32.4425 43.7302 33.9998 42.8968 35.6954 42.5587C37.3911 42.2207 39.1489 42.3932 40.7466 43.0544C42.3442 43.7156 43.7098 44.8358 44.6706 46.2733C45.6314 47.7108 46.1442 49.401 46.1442 51.13C46.1416 53.4455 45.2213 55.6655 43.5849 57.3037C41.9486 58.9419 39.7297 59.8647 37.4142 59.87V59.87Z" fill="#EFCA09"/>
<path d="M37.4142 41.0501C35.4178 41.0481 33.4656 41.6384 31.8048 42.7463C30.1439 43.8543 28.8491 45.43 28.0842 47.2741C27.3192 49.1183 27.1186 51.1479 27.5076 53.1061C27.8966 55.0643 28.8578 56.863 30.2695 58.2748C31.6812 59.6865 33.48 60.6477 35.4382 61.0367C37.3964 61.4257 39.426 61.225 41.2701 60.4601C43.1142 59.6951 44.69 58.4003 45.7979 56.7395C46.9059 55.0787 47.4962 53.1265 47.4942 51.13C47.4889 48.4583 46.4252 45.8975 44.536 44.0082C42.6468 42.119 40.086 41.0553 37.4142 41.0501V41.0501ZM37.4142 60.6C35.5412 60.6 33.7103 60.0446 32.153 59.0041C30.5956 57.9635 29.3818 56.4845 28.6651 54.7541C27.9483 53.0236 27.7608 51.1195 28.1262 49.2825C28.4916 47.4455 29.3935 45.7582 30.7179 44.4338C32.0423 43.1093 33.7297 42.2074 35.5667 41.842C37.4037 41.4766 39.3078 41.6641 41.0382 42.3809C42.7686 43.0977 44.2477 44.3115 45.2882 45.8688C46.3288 47.4261 46.8842 49.2571 46.8842 51.13C46.8816 53.6408 45.883 56.048 44.1076 57.8234C42.3322 59.5988 39.925 60.5974 37.4142 60.6V60.6Z" fill="#EFCA09"/>
<path d="M37.4142 44.73C36.1484 44.73 34.911 45.1053 33.8585 45.8086C32.806 46.5118 31.9857 47.5114 31.5013 48.6808C31.0169 49.8503 30.8902 51.1371 31.1371 52.3786C31.3841 53.62 31.9936 54.7604 32.8887 55.6555C33.7837 56.5505 34.9241 57.1601 36.1656 57.407C37.4071 57.654 38.6939 57.5272 39.8633 57.0428C41.0328 56.5584 42.0323 55.7381 42.7356 54.6856C43.4388 53.6332 43.8142 52.3958 43.8142 51.13C43.8115 49.4334 43.1364 47.8071 41.9367 46.6074C40.7371 45.4078 39.1107 44.7326 37.4142 44.73V44.73ZM37.4142 56.92C36.2686 56.922 35.1482 56.5841 34.1947 55.9491C33.2412 55.3141 32.4976 54.4105 32.0578 53.3527C31.618 52.2949 31.5019 51.1304 31.7242 50.0066C31.9465 48.8828 32.4971 47.8501 33.3065 47.0394C34.1158 46.2286 35.1475 45.6762 36.2709 45.452C37.3943 45.2277 38.559 45.3418 39.6176 45.7798C40.6761 46.2177 41.581 46.9598 42.2177 47.9122C42.8543 48.8646 43.1942 49.9844 43.1942 51.13C43.1942 52.6638 42.5855 54.135 41.5019 55.2206C40.4182 56.3061 38.948 56.9173 37.4142 56.92V56.92Z" fill="#EFCA09"/>
<path d="M37.4142 45.04C36.2069 45.0381 35.0261 45.3944 34.0215 46.0639C33.0168 46.7334 32.2334 47.686 31.7705 48.8011C31.3075 49.9161 31.1859 51.1434 31.4209 52.3276C31.656 53.5119 32.2371 54.5997 33.0908 55.4534C33.9445 56.3071 35.0324 56.8883 36.2166 57.1233C37.4008 57.3584 38.6281 57.2367 39.7432 56.7738C40.8582 56.3108 41.8108 55.5274 42.4803 54.5228C43.1499 53.5181 43.5062 52.3374 43.5042 51.13C43.5016 49.5157 42.8591 47.9682 41.7176 46.8267C40.576 45.6852 39.0286 45.0427 37.4142 45.04V45.04ZM37.4142 56.9201C36.2686 56.922 35.1482 56.5841 34.1947 55.9491C33.2412 55.3141 32.4976 54.4105 32.0578 53.3527C31.6181 52.2949 31.502 51.1304 31.7242 50.0066C31.9465 48.8828 32.4972 47.8502 33.3065 47.0394C34.1159 46.2287 35.1475 45.6763 36.271 45.452C37.3944 45.2278 38.559 45.3419 39.6176 45.7798C40.6762 46.2178 41.581 46.9599 42.2177 47.9123C42.8544 48.8646 43.1942 49.9845 43.1942 51.13C43.1942 52.6639 42.5856 54.1351 41.5019 55.2207C40.4182 56.3062 38.9481 56.9174 37.4142 56.9201V56.9201Z" fill="#E59323"/>
<path d="M38.9342 53.2601V46.6301H36.8442C36.3222 47.308 35.633 47.8387 34.8442 48.1701L35.3742 49.4701L36.5443 48.9201V53.2601H35.3442V54.8201H40.0642V53.2601H38.9742H38.9342ZM39.7142 54.5101H35.6142V53.5701H36.8142V48.4601L36.3742 48.6601L35.4942 49.0701L35.1942 48.3401C35.8926 48.0298 36.5065 47.5566 36.9843 46.9601H38.6242V53.5901H39.7142V54.5101Z" fill="#E59323"/>
<path d="M37.4142 41.0501C35.4178 41.0481 33.4656 41.6384 31.8048 42.7463C30.1439 43.8543 28.8491 45.43 28.0842 47.2741C27.3192 49.1183 27.1186 51.1479 27.5076 53.1061C27.8966 55.0643 28.8578 56.863 30.2695 58.2748C31.6812 59.6865 33.48 60.6477 35.4382 61.0367C37.3964 61.4257 39.426 61.225 41.2701 60.4601C43.1142 59.6951 44.69 58.4003 45.7979 56.7395C46.9059 55.0787 47.4962 53.1265 47.4942 51.13C47.4889 48.4583 46.4252 45.8975 44.536 44.0082C42.6468 42.119 40.086 41.0553 37.4142 41.0501V41.0501ZM37.4142 60.91C35.4795 60.912 33.5876 60.3401 31.978 59.2667C30.3684 58.1932 29.1133 56.6665 28.3716 54.8796C27.6298 53.0927 27.4347 51.126 27.8109 49.2282C28.1872 47.3304 29.1178 45.5868 30.4852 44.2181C31.8525 42.8493 33.5952 41.9169 35.4926 41.5387C37.39 41.1605 39.3569 41.3536 41.1445 42.0935C42.9322 42.8335 44.4602 44.087 45.5353 45.6955C46.6104 47.3041 47.1842 49.1953 47.1842 51.13C47.1816 53.7213 46.1517 56.2059 44.3204 58.0391C42.489 59.8723 40.0055 60.9047 37.4142 60.91V60.91Z" fill="#E59323"/>
<path d="M37.4143 42.0901C35.6343 42.0901 33.8942 42.6179 32.4142 43.6069C30.9341 44.5958 29.7806 46.0014 29.0994 47.646C28.4182 49.2905 28.24 51.1001 28.5872 52.8459C28.9345 54.5917 29.7917 56.1954 31.0503 57.4541C32.309 58.7127 33.9127 59.5699 35.6585 59.9172C37.4043 60.2644 39.2139 60.0862 40.8585 59.405C42.503 58.7238 43.9086 57.5703 44.8975 56.0902C45.8865 54.6102 46.4143 52.8701 46.4143 51.0901C46.3986 48.708 45.4453 46.428 43.7609 44.7435C42.0765 43.0591 39.7964 42.1058 37.4143 42.0901V42.0901ZM37.4143 59.8701C35.6853 59.8721 33.9945 59.3612 32.5559 58.402C31.1173 57.4428 29.9955 56.0785 29.3325 54.4817C28.6694 52.8848 28.4949 51.1272 28.831 49.4312C29.1671 47.7351 29.9987 46.1768 31.2207 44.9535C32.4426 43.7302 33.9999 42.8968 35.6955 42.5588C37.3912 42.2207 39.1491 42.3932 40.7467 43.0544C42.3443 43.7157 43.7099 44.8359 44.6707 46.2734C45.6315 47.7109 46.1443 49.4011 46.1443 51.1301C46.1417 53.4455 45.2214 55.6656 43.585 57.3038C41.9487 58.942 39.7298 59.8648 37.4143 59.8701V59.8701Z" fill="#E59323"/>
<path d="M37.4142 44C36.0012 43.998 34.6193 44.4154 33.4436 45.1992C32.2679 45.983 31.3512 47.098 30.8096 48.403C30.2679 49.7081 30.1257 51.1445 30.4009 52.5305C30.676 53.9164 31.3563 55.1896 32.3554 56.1888C33.3546 57.1879 34.6277 57.8681 36.0137 58.1433C37.3996 58.4185 38.8361 58.2762 40.1412 57.7346C41.4462 57.1929 42.5612 56.2763 43.345 55.1006C44.1288 53.9249 44.5462 52.543 44.5442 51.13C44.5415 49.2398 43.7895 47.4278 42.4529 46.0913C41.1164 44.7547 39.3044 44.0027 37.4142 44V44ZM37.4142 58C36.0629 58.002 34.7414 57.6031 33.6169 56.8538C32.4924 56.1045 31.6154 55.0385 31.0969 53.7907C30.5785 52.5428 30.4418 51.1692 30.7042 49.8437C30.9666 48.5181 31.6163 47.3002 32.5711 46.344C33.5259 45.3878 34.7428 44.7363 36.068 44.472C37.3932 44.2076 38.767 44.3423 40.0156 44.859C41.2642 45.3756 42.3315 46.251 43.0824 47.3744C43.8333 48.4978 44.2342 49.8187 44.2342 51.17C44.2236 52.9728 43.5007 54.6982 42.2232 55.9702C40.9456 57.2421 39.217 57.9574 37.4142 57.96V58Z" fill="#E59323"/>
</g>
<defs>
<filter id="filter0_d_313_28" x="15" y="15" width="44.8943" height="58.2301" filterUnits="userSpaceOnUse" color-interpolation-filters="sRGB">
<feFlood flood-opacity="0" result="BackgroundImageFix"/>
<feColorMatrix in="SourceAlpha" type="matrix" values="0 0 0 0 0 0 0 0 0 0 0 0 0 0 0 0 0 0 127 0" result="hardAlpha"/>
<feOffset dy="4"/>
<feGaussianBlur stdDeviation="4"/>
<feComposite in2="hardAlpha" operator="out"/>
<feColorMatrix type="matrix" values="0 0 0 0 0.873737 0 0 0 0 0 0 0 0 0 1 0 0 0 0.6 0"/>
<feBlend mode="normal" in2="BackgroundImageFix" result="effect1_dropShadow_313_28"/>
<feBlend mode="normal" in="SourceGraphic" in2="effect1_dropShadow_313_28" result="shape"/>
</filter>
<radialGradient id="paint0_diamond_313_28" cx="0" cy="0" r="1" gradientUnits="userSpaceOnUse" gradientTransform="translate(37.5 37.5) rotate(45.9496) scale(64.0019 66.4472)">
<stop offset="0.553067" stop-color="#5B0C88"/>
<stop offset="0.755325" stop-color="#340450"/>
</radialGradient>
</defs>
</svg>
