<svg width="75" height="75" viewBox="0 0 75 75" fill="none" xmlns="http://www.w3.org/2000/svg">
<rect width="75" height="75" rx="7" fill="url(#paint0_diamond_301_15)"/>
<g filter="url(#filter0_d_301_15)">
<path d="M35.5201 48.67H35.6101L37.3701 48.25L39.1401 48.67H39.2201C39.3041 48.6697 39.3855 48.6409 39.451 48.5882C39.5164 48.5354 39.5619 48.462 39.5801 48.38C39.6141 48.2932 39.6141 48.1968 39.5801 48.11C39.5554 48.0675 39.5223 48.0304 39.4827 48.0012C39.4431 47.972 39.398 47.9511 39.3501 47.94L37.5101 47.5H37.3401L35.4901 47.94C35.4422 47.9511 35.397 47.972 35.3575 48.0012C35.3179 48.0304 35.2848 48.0675 35.2601 48.11C35.2404 48.1523 35.2302 48.1984 35.2302 48.245C35.2302 48.2916 35.2404 48.3377 35.2601 48.38C35.2711 48.4482 35.3014 48.5118 35.3475 48.5632C35.3936 48.6146 35.4535 48.6517 35.5201 48.67Z" fill="#F0D4F7"/>
<path d="M42.4401 49.1899C42.5382 49.1899 42.6323 49.1509 42.7017 49.0816C42.7711 49.0122 42.8101 48.9181 42.8101 48.8199V40.5499C42.8101 40.4518 42.7711 40.3577 42.7017 40.2883C42.6323 40.2189 42.5382 40.1799 42.4401 40.1799C42.3419 40.1799 42.2478 40.2189 42.1784 40.2883C42.109 40.3577 42.0701 40.4518 42.0701 40.5499V48.8199C42.0701 48.9181 42.109 49.0122 42.1784 49.0816C42.2478 49.1509 42.3419 49.1899 42.4401 49.1899V49.1899Z" fill="#F0D4F7"/>
<path d="M32.29 49.19C32.3382 49.19 32.3858 49.1804 32.4302 49.1617C32.4745 49.143 32.5146 49.1156 32.5482 49.0811C32.5818 49.0466 32.6081 49.0057 32.6256 48.9608C32.6431 48.916 32.6514 48.8681 32.65 48.82V40.55C32.6588 40.497 32.656 40.4427 32.6417 40.391C32.6274 40.3392 32.602 40.2911 32.5673 40.2502C32.5326 40.2092 32.4893 40.1762 32.4406 40.1537C32.3918 40.1311 32.3388 40.1194 32.285 40.1194C32.2313 40.1194 32.1782 40.1311 32.1295 40.1537C32.0808 40.1762 32.0375 40.2092 32.0028 40.2502C31.9681 40.2911 31.9427 40.3392 31.9284 40.391C31.9141 40.4427 31.9112 40.497 31.92 40.55V48.82C31.9187 48.869 31.9273 48.9177 31.9454 48.9632C31.9635 49.0087 31.9907 49.0501 32.0253 49.0847C32.06 49.1193 32.1013 49.1466 32.1468 49.1647C32.1923 49.1828 32.2411 49.1914 32.29 49.19V49.19Z" fill="#F0D4F7"/>
<path d="M45.1499 38.0601C45.0545 38.0601 44.9629 38.098 44.8954 38.1655C44.8279 38.233 44.7899 38.3246 44.7899 38.4201V52.0601L37.45 50.2001H37.27L29.9399 52.0601V38.4201C29.9399 38.3219 29.901 38.2278 29.8316 38.1584C29.7622 38.089 29.6681 38.05 29.57 38.05C29.4718 38.05 29.3777 38.089 29.3083 38.1584C29.2389 38.2278 29.2 38.3219 29.2 38.4201V52.53C29.2018 52.5865 29.2163 52.6418 29.2422 52.692C29.2682 52.7422 29.305 52.7859 29.35 52.8201C29.4129 52.8683 29.4907 52.8931 29.57 52.89H29.66L37.3599 50.94L45.06 52.89H45.1499C45.2321 52.8915 45.3126 52.867 45.38 52.8201C45.4236 52.7854 45.4589 52.7413 45.4832 52.6911C45.5074 52.6409 45.52 52.5858 45.52 52.53V38.4201C45.52 38.3719 45.5103 38.3243 45.4916 38.2799C45.4729 38.2356 45.4455 38.1955 45.411 38.1619C45.3765 38.1283 45.3356 38.102 45.2908 38.0845C45.2459 38.067 45.1981 38.0587 45.1499 38.0601V38.0601Z" fill="#F0D4F7"/>
<path d="M42.44 49.5C42.6186 49.4974 42.789 49.4246 42.9144 49.2973C43.0398 49.1701 43.11 48.9986 43.11 48.82V40.55C43.11 40.3723 43.0394 40.2019 42.9138 40.0762C42.7881 39.9506 42.6177 39.88 42.44 39.88C42.2614 39.88 42.0899 39.9503 41.9627 40.0756C41.8354 40.201 41.7626 40.3714 41.76 40.55V48.82C41.7626 48.9995 41.8351 49.171 41.962 49.298C42.089 49.4249 42.2605 49.4974 42.44 49.5V49.5ZM42.38 40.5C42.38 40.4841 42.3863 40.4688 42.3976 40.4576C42.4088 40.4463 42.4241 40.44 42.44 40.44C42.4479 40.44 42.4557 40.4416 42.463 40.4446C42.4703 40.4476 42.4769 40.452 42.4824 40.4576C42.488 40.4632 42.4924 40.4698 42.4954 40.4771C42.4985 40.4843 42.5 40.4921 42.5 40.5V48.77C42.5 48.7779 42.4985 48.7857 42.4954 48.793C42.4924 48.8002 42.488 48.8069 42.4824 48.8124C42.4769 48.818 42.4703 48.8224 42.463 48.8254C42.4557 48.8285 42.4479 48.83 42.44 48.83C42.4317 48.8319 42.4231 48.8317 42.415 48.8294C42.4068 48.827 42.3994 48.8227 42.3934 48.8167C42.3874 48.8106 42.383 48.8032 42.3807 48.7951C42.3783 48.7869 42.3781 48.7783 42.38 48.77V40.5Z" fill="#E18AF4"/>
<path d="M45.1499 37.75C44.9722 37.75 44.8018 37.8206 44.6762 37.9462C44.5505 38.0719 44.4799 38.2423 44.4799 38.42V51.66L37.5199 49.9H37.3499H37.1899L30.1899 51.66V38.42C30.1899 38.2423 30.1193 38.0719 29.9937 37.9462C29.868 37.8206 29.6976 37.75 29.5199 37.75C29.3422 37.75 29.1718 37.8206 29.0462 37.9462C28.9205 38.0719 28.8499 38.2423 28.8499 38.42V52.53C28.8484 52.6326 28.8711 52.7341 28.9163 52.8262C28.9615 52.9184 29.0278 52.9985 29.1099 53.06C29.2277 53.1501 29.3717 53.1993 29.5199 53.2H29.6899L37.3099 51.27L44.9399 53.2H45.0999C45.2513 53.1993 45.3984 53.1503 45.5199 53.06C45.6003 52.9969 45.6654 52.9165 45.7104 52.8247C45.7555 52.7329 45.7792 52.6322 45.7799 52.53V38.42C45.7779 38.2497 45.712 38.0864 45.5954 37.9624C45.4787 37.8383 45.3198 37.7625 45.1499 37.75ZM45.2099 52.53L37.5199 50.66H37.3699H37.2199L29.5799 52.59V38.42C29.5799 38.4041 29.5863 38.3888 29.5975 38.3776C29.6088 38.3663 29.624 38.36 29.6399 38.36C29.6558 38.36 29.6711 38.3663 29.6824 38.3776C29.6936 38.3888 29.6999 38.4041 29.6999 38.42V52.42L30.4699 52.23L37.4699 50.47L44.4699 52.23L45.2299 52.42V38.42C45.2299 38.4041 45.2363 38.3888 45.2475 38.3776C45.2588 38.3663 45.274 38.36 45.2899 38.36C45.3058 38.36 45.3211 38.3663 45.3324 38.3776C45.3436 38.3888 45.3499 38.4041 45.3499 38.42L45.2099 52.53Z" fill="#E18AF4"/>
<path d="M32.2901 49.5001C32.4687 49.4974 32.6391 49.4247 32.7645 49.2974C32.8899 49.1702 32.9601 48.9987 32.9601 48.8201V40.5501C32.94 40.3852 32.8603 40.2334 32.7359 40.1233C32.6116 40.0132 32.4512 39.9524 32.2851 39.9524C32.119 39.9524 31.9587 40.0132 31.8343 40.1233C31.71 40.2334 31.6302 40.3852 31.6101 40.5501V48.8201C31.6101 49.0004 31.6818 49.1734 31.8093 49.3009C31.9368 49.4284 32.1098 49.5001 32.2901 49.5001V49.5001ZM32.2301 40.5001C32.2301 40.4842 32.2364 40.4689 32.2477 40.4577C32.2589 40.4464 32.2742 40.4401 32.2901 40.4401C32.306 40.4401 32.3213 40.4464 32.3325 40.4577C32.3438 40.4689 32.3501 40.4842 32.3501 40.5001V48.7701C32.3501 48.786 32.3438 48.8013 32.3325 48.8125C32.3213 48.8238 32.306 48.8301 32.2901 48.8301C32.2818 48.832 32.2732 48.8318 32.2651 48.8294C32.2569 48.8271 32.2495 48.8227 32.2435 48.8167C32.2375 48.8107 32.2331 48.8033 32.2308 48.7951C32.2284 48.787 32.2282 48.7784 32.2301 48.7701V40.5001Z" fill="#E18AF4"/>
<path d="M35.68 48.97H35.52C35.3703 48.9698 35.2249 48.9195 35.1071 48.8271C34.9892 48.7346 34.9058 48.6054 34.87 48.46C34.8478 48.3739 34.8433 48.2842 34.8566 48.1963C34.8699 48.1084 34.9008 48.0241 34.9475 47.9485C34.9942 47.8728 35.0557 47.8074 35.1283 47.7561C35.2009 47.7048 35.2831 47.6687 35.37 47.65L37.22 47.21C37.2696 47.2003 37.3205 47.2003 37.37 47.21C37.4229 47.2002 37.4771 47.2002 37.53 47.21L39.38 47.65C39.5385 47.6896 39.677 47.7857 39.7696 47.9202C39.8621 48.0548 39.9024 48.2185 39.8827 48.3806C39.8631 48.5427 39.7849 48.6921 39.6628 48.8006C39.5408 48.9091 39.3833 48.9694 39.22 48.97H39.06L37.37 48.56L35.68 48.97Z" fill="#E18AF4"/>
<path d="M42.44 49.5C42.6186 49.4974 42.789 49.4246 42.9144 49.2973C43.0398 49.1701 43.11 48.9986 43.11 48.82V40.55C43.11 40.3723 43.0394 40.2019 42.9138 40.0762C42.7881 39.9506 42.6177 39.88 42.44 39.88C42.2614 39.88 42.0899 39.9503 41.9627 40.0756C41.8354 40.201 41.7626 40.3714 41.76 40.55V48.82C41.7626 48.9995 41.8351 49.171 41.962 49.298C42.089 49.4249 42.2605 49.4974 42.44 49.5V49.5ZM42.07 40.5C42.07 40.4019 42.109 40.3078 42.1784 40.2384C42.2478 40.169 42.3419 40.13 42.44 40.13C42.5381 40.13 42.6323 40.169 42.7016 40.2384C42.771 40.3078 42.81 40.4019 42.81 40.5V48.77C42.81 48.8681 42.771 48.9622 42.7016 49.0316C42.6323 49.101 42.5381 49.14 42.44 49.14C42.3419 49.14 42.2478 49.101 42.1784 49.0316C42.109 48.9622 42.07 48.8681 42.07 48.77V40.5Z" fill="#D72AF0"/>
<path d="M45.1499 37.75C44.9722 37.75 44.8018 37.8206 44.6762 37.9462C44.5505 38.0719 44.4799 38.2423 44.4799 38.42V51.66L37.5199 49.9H37.3499H37.1899L30.1899 51.66V38.42C30.1899 38.2423 30.1193 38.0719 29.9937 37.9462C29.868 37.8206 29.6976 37.75 29.5199 37.75C29.3422 37.75 29.1718 37.8206 29.0462 37.9462C28.9205 38.0719 28.8499 38.2423 28.8499 38.42V52.53C28.8484 52.6326 28.8711 52.7341 28.9163 52.8262C28.9615 52.9184 29.0278 52.9985 29.1099 53.06C29.2277 53.1501 29.3717 53.1993 29.5199 53.2H29.6899L37.3099 51.27L44.9399 53.2H45.0999C45.2513 53.1993 45.3984 53.1503 45.5199 53.06C45.6003 52.9969 45.6654 52.9165 45.7104 52.8247C45.7555 52.7329 45.7792 52.6322 45.7799 52.53V38.42C45.7779 38.2497 45.712 38.0864 45.5954 37.9624C45.4787 37.8383 45.3198 37.7625 45.1499 37.75ZM45.5199 52.53C45.52 52.5858 45.5074 52.6408 45.4831 52.691C45.4589 52.7413 45.4236 52.7853 45.3799 52.82C45.3125 52.867 45.2321 52.8915 45.1499 52.89H45.0599L37.4399 50.96H37.3599H37.2899L29.6599 52.89H29.5699C29.4907 52.893 29.4129 52.8683 29.3499 52.82C29.3049 52.7859 29.2681 52.7421 29.2422 52.6919C29.2162 52.6418 29.2018 52.5864 29.1999 52.53V38.42C29.1999 38.3219 29.2389 38.2278 29.3083 38.1584C29.3777 38.089 29.4718 38.05 29.5699 38.05C29.6681 38.05 29.7622 38.089 29.8316 38.1584C29.9009 38.2278 29.9399 38.3219 29.9399 38.42V52.06L30.3199 51.96L37.3199 50.2H37.4999L44.4499 51.96L44.8399 52.06V38.42C44.8543 38.3336 44.8989 38.255 44.9657 38.1984C45.0325 38.1417 45.1173 38.1106 45.2049 38.1106C45.2925 38.1106 45.3773 38.1417 45.4442 38.1984C45.511 38.255 45.5556 38.3336 45.5699 38.42L45.5199 52.53Z" fill="#D72AF0"/>
<path d="M35.52 48.97H35.68L37.37 48.56L39.06 48.97H39.22C39.3833 48.9694 39.5408 48.9091 39.6628 48.8006C39.7849 48.6921 39.8631 48.5427 39.8827 48.3806C39.9024 48.2185 39.8621 48.0548 39.7696 47.9202C39.677 47.7857 39.5385 47.6896 39.38 47.65L37.53 47.21C37.4771 47.2002 37.4229 47.2002 37.37 47.21C37.3205 47.2003 37.2696 47.2003 37.22 47.21L35.37 47.65C35.2831 47.6687 35.2009 47.7048 35.1283 47.7561C35.0557 47.8074 34.9942 47.8728 34.9475 47.9485C34.9008 48.0241 34.8699 48.1084 34.8566 48.1963C34.8433 48.2842 34.8478 48.3739 34.87 48.46C34.9058 48.6054 34.9892 48.7346 35.1071 48.8271C35.2249 48.9195 35.3703 48.9698 35.52 48.97V48.97ZM35.21 48.11C35.2347 48.0674 35.2679 48.0304 35.3074 48.0012C35.347 47.9719 35.3921 47.9511 35.44 47.94L37.29 47.5H37.46L39.31 47.94C39.4027 47.9659 39.4816 48.0269 39.53 48.11C39.5647 48.2001 39.5647 48.2998 39.53 48.39C39.5084 48.4693 39.4616 48.5395 39.3967 48.59C39.3318 48.6405 39.2523 48.6685 39.17 48.67H39.08L37.39 48.26H37.25L35.56 48.67H35.52C35.4372 48.6693 35.3572 48.64 35.2935 48.5872C35.2297 48.5344 35.1861 48.4612 35.17 48.38C35.1549 48.3355 35.1498 48.2883 35.155 48.2416C35.1601 48.195 35.1755 48.15 35.2 48.11H35.21Z" fill="#D72AF0"/>
<path d="M32.2901 49.5001C32.4687 49.4974 32.6391 49.4247 32.7645 49.2974C32.8899 49.1702 32.9601 48.9987 32.9601 48.8201V40.5501C32.94 40.3852 32.8603 40.2334 32.7359 40.1233C32.6116 40.0132 32.4512 39.9524 32.2851 39.9524C32.119 39.9524 31.9587 40.0132 31.8343 40.1233C31.71 40.2334 31.6302 40.3852 31.6101 40.5501V48.8201C31.6101 49.0004 31.6818 49.1734 31.8093 49.3009C31.9368 49.4284 32.1098 49.5001 32.2901 49.5001V49.5001ZM31.9201 40.5001C31.9113 40.4471 31.9142 40.3928 31.9284 40.341C31.9427 40.2893 31.9681 40.2412 32.0029 40.2002C32.0376 40.1592 32.0808 40.1263 32.1296 40.1037C32.1783 40.0812 32.2314 40.0695 32.2851 40.0695C32.3388 40.0695 32.3919 40.0812 32.4406 40.1037C32.4894 40.1263 32.5326 40.1592 32.5674 40.2002C32.6021 40.2412 32.6275 40.2893 32.6418 40.341C32.6561 40.3928 32.6589 40.4471 32.6501 40.5001V48.7701C32.6589 48.8231 32.6561 48.8774 32.6418 48.9291C32.6275 48.9809 32.6021 49.029 32.5674 49.0699C32.5326 49.1109 32.4894 49.1438 32.4406 49.1664C32.3919 49.189 32.3388 49.2007 32.2851 49.2007C32.2314 49.2007 32.1783 49.189 32.1296 49.1664C32.0808 49.1438 32.0376 49.1109 32.0029 49.0699C31.9681 49.029 31.9427 48.9809 31.9284 48.9291C31.9142 48.8774 31.9113 48.8231 31.9201 48.7701V40.5001Z" fill="#D72AF0"/>
<path d="M39.8199 35.06H39.1499V25.9399H36.7299C36.046 26.7907 35.1634 27.4604 34.1599 27.8899L34.6699 29.1099L36.4299 28.2899V35.06H35.6399C35.4375 35.0539 35.2403 35.1248 35.0881 35.2584C34.9359 35.3921 34.8401 35.5784 34.8199 35.7799C34.8134 35.8828 34.8287 35.9859 34.8649 36.0824C34.9011 36.179 34.9574 36.2667 35.0299 36.34C35.0989 36.4172 35.1838 36.4786 35.2787 36.52C35.3736 36.5614 35.4764 36.5818 35.5799 36.5799H39.8799C39.9838 36.5803 40.0867 36.5602 40.1828 36.5207C40.2789 36.4813 40.3663 36.4232 40.4399 36.3499C40.5444 36.2366 40.6125 36.0944 40.6353 35.9419C40.6581 35.7894 40.6346 35.6335 40.5678 35.4945C40.501 35.3555 40.394 35.2398 40.2606 35.1623C40.1273 35.0848 39.9738 35.0492 39.8199 35.06V35.06Z" fill="white"/>
<path d="M50.9 26.9699C50.9461 26.9803 50.9939 26.9803 51.04 26.9699L54.76 25.3599C54.8051 25.3418 54.8461 25.3148 54.8805 25.2804C54.9148 25.246 54.9419 25.205 54.96 25.1599C54.9799 25.1159 54.9901 25.0682 54.9901 25.0199C54.9901 24.9716 54.9799 24.9239 54.96 24.8799C54.9298 24.8149 54.8819 24.7598 54.8217 24.7209C54.7616 24.6819 54.6916 24.6608 54.62 24.6599C54.5704 24.6505 54.5195 24.6505 54.47 24.6599L50.75 26.2599C50.6714 26.2937 50.6069 26.3536 50.5675 26.4295C50.5281 26.5055 50.5162 26.5927 50.5339 26.6764C50.5516 26.7601 50.5977 26.8351 50.6644 26.8886C50.7312 26.9422 50.8144 26.9709 50.9 26.9699V26.9699Z" fill="white"/>
<path d="M22.3 31.26C22.2975 31.1627 22.2577 31.07 22.1889 31.0012C22.12 30.9323 22.0274 30.8925 21.9301 30.89H16.6701C16.5719 30.89 16.4778 30.929 16.4084 30.9984C16.339 31.0678 16.3 31.1619 16.3 31.26C16.3 31.3582 16.339 31.4523 16.4084 31.5217C16.4778 31.591 16.5719 31.63 16.6701 31.63H21.9301C22.0274 31.6275 22.12 31.5877 22.1889 31.5188C22.2577 31.45 22.2975 31.3574 22.3 31.26Z" fill="white"/>
<path d="M23.8299 35.44C23.7804 35.4305 23.7295 35.4305 23.6799 35.44L19.9599 37.04C19.9151 37.0595 19.8747 37.0877 19.8408 37.1229C19.807 37.1582 19.7805 37.1998 19.7628 37.2454C19.7452 37.2909 19.7367 37.3395 19.7379 37.3884C19.7391 37.4372 19.75 37.4853 19.7699 37.53C19.8001 37.5949 19.848 37.6501 19.9082 37.689C19.9683 37.728 20.0383 37.7491 20.1099 37.75C20.1561 37.7594 20.2037 37.7594 20.2499 37.75L23.9699 36.14C24.0153 36.1226 24.0566 36.0961 24.0911 36.062C24.1256 36.0278 24.1527 35.9869 24.1706 35.9418C24.1884 35.8966 24.1967 35.8483 24.1949 35.7997C24.1931 35.7512 24.1812 35.7036 24.1599 35.66C24.1325 35.595 24.0866 35.5395 24.028 35.5004C23.9693 35.4613 23.9004 35.4403 23.8299 35.44Z" fill="white"/>
<path d="M23.9701 26.35L20.2501 24.74H20.1001C20.0299 24.7416 19.9616 24.7631 19.9032 24.802C19.8447 24.841 19.7986 24.8958 19.7701 24.96C19.7355 25.0501 19.7355 25.1499 19.7701 25.24C19.8064 25.3337 19.8783 25.4092 19.9701 25.45L23.6901 27.05C23.7397 27.0594 23.7906 27.0594 23.8401 27.05C23.9106 27.0497 23.9795 27.0286 24.0382 26.9895C24.0968 26.9504 24.1427 26.8949 24.1701 26.83C24.2048 26.7399 24.2048 26.6401 24.1701 26.55C24.152 26.5049 24.125 26.4639 24.0906 26.4295C24.0562 26.3951 24.0152 26.3681 23.9701 26.35V26.35Z" fill="white"/>
<path d="M54.76 36.9601L51.04 35.36C50.9939 35.3497 50.9461 35.3497 50.9 35.36C50.8278 35.3584 50.7568 35.3785 50.6961 35.4177C50.6355 35.4569 50.5881 35.5135 50.56 35.58C50.5229 35.669 50.522 35.769 50.5575 35.8587C50.593 35.9483 50.662 36.0206 50.75 36.0601L54.48 37.6701C54.5261 37.6804 54.5739 37.6804 54.62 37.6701C54.6931 37.6696 54.7643 37.6475 54.8248 37.6065C54.8853 37.5656 54.9324 37.5077 54.96 37.44C54.9799 37.3961 54.9902 37.3483 54.9902 37.3C54.9902 37.2518 54.9799 37.204 54.96 37.16C54.9207 37.0707 54.8493 36.9993 54.76 36.9601V36.9601Z" fill="white"/>
<path d="M37.3599 23.05C35.7361 23.05 34.1488 23.5316 32.7987 24.4337C31.4486 25.3358 30.3963 26.618 29.7749 28.1182C29.1535 29.6184 28.9909 31.2692 29.3077 32.8617C29.6244 34.4543 30.4064 35.9172 31.5546 37.0654C32.7027 38.2136 34.1656 38.9955 35.7582 39.3123C37.3508 39.6291 39.0016 39.4665 40.5017 38.8451C42.0019 38.2237 43.2841 37.1714 44.1863 35.8213C45.0884 34.4712 45.5699 32.8838 45.5699 31.2601C45.5673 29.0834 44.7014 26.9967 43.1623 25.4576C41.6232 23.9185 39.5365 23.0527 37.3599 23.05ZM37.3599 38.7401C35.8805 38.7401 34.4343 38.3014 33.2042 37.4794C31.9742 36.6575 31.0154 35.4893 30.4493 34.1225C29.8831 32.7557 29.735 31.2518 30.0236 29.8008C30.3122 28.3498 31.0247 27.017 32.0707 25.9709C33.1168 24.9248 34.4497 24.2124 35.9006 23.9238C37.3516 23.6352 38.8556 23.7833 40.2224 24.3494C41.5892 24.9156 42.7574 25.8743 43.5793 27.1044C44.4012 28.3345 44.8399 29.7807 44.8399 31.2601C44.8373 33.2431 44.0483 35.1441 42.6461 36.5463C41.2439 37.9485 39.3429 38.7374 37.3599 38.7401V38.7401Z" fill="white"/>
<path d="M58.1 30.89H52.84C52.7418 30.89 52.6477 30.929 52.5783 30.9984C52.509 31.0678 52.47 31.1619 52.47 31.26C52.47 31.3582 52.509 31.4523 52.5783 31.5217C52.6477 31.591 52.7418 31.63 52.84 31.63H58.1C58.1981 31.63 58.2922 31.591 58.3616 31.5217C58.431 31.4523 58.47 31.3582 58.47 31.26C58.47 31.1619 58.431 31.0678 58.3616 30.9984C58.2922 30.929 58.1981 30.89 58.1 30.89V30.89Z" fill="white"/>
<path d="M37.36 20.35C35.1823 20.35 33.0536 20.9964 31.2436 22.2073C29.4336 23.4183 28.0237 25.1392 27.1926 27.1521C26.3616 29.165 26.1467 31.3793 26.5752 33.5144C27.0037 35.6496 28.0563 37.6095 29.5997 39.1458C31.1431 40.6822 33.1077 41.7259 35.2448 42.1447C37.3819 42.5634 39.5952 42.3385 41.6043 41.4982C43.6134 40.658 45.3279 39.2403 46.5305 37.4248C47.7332 35.6093 48.3699 33.4777 48.36 31.3C48.3468 28.3913 47.182 25.6062 45.1205 23.5541C43.0591 21.502 40.2687 20.3499 37.36 20.35V20.35ZM37.36 41.52C35.3387 41.52 33.3627 40.9206 31.6821 39.7976C30.0014 38.6746 28.6915 37.0785 27.9179 35.211C27.1444 33.3435 26.942 31.2886 27.3364 29.3062C27.7307 27.3237 28.7041 25.5026 30.1334 24.0733C31.5627 22.6441 33.3837 21.6707 35.3662 21.2764C37.3487 20.882 39.4036 21.0844 41.271 21.8579C43.1385 22.6315 44.7346 23.9414 45.8576 25.6221C46.9806 27.3027 47.58 29.2786 47.58 31.3C47.5642 34.0019 46.4811 36.5881 44.5667 38.4949C42.6524 40.4018 40.062 41.4747 37.36 41.48V41.52Z" fill="white"/>
<path d="M22.61 31.2601C22.6074 31.0815 22.5346 30.9111 22.4073 30.7857C22.2801 30.6603 22.1086 30.5901 21.93 30.5901H16.67C16.4923 30.5901 16.3219 30.6607 16.1962 30.7863C16.0706 30.912 16 31.0824 16 31.2601C16 31.4378 16.0706 31.6082 16.1962 31.7338C16.3219 31.8595 16.4923 31.9301 16.67 31.9301H21.93C22.1086 31.9301 22.2801 31.8598 22.4073 31.7345C22.5346 31.6091 22.6074 31.4387 22.61 31.2601V31.2601ZM16.61 31.2601C16.61 31.2442 16.6163 31.2289 16.6276 31.2177C16.6388 31.2064 16.6541 31.2001 16.67 31.2001H21.93C21.9459 31.2001 21.9612 31.2064 21.9724 31.2177C21.9837 31.2289 21.99 31.2442 21.99 31.2601C21.99 31.276 21.9837 31.2913 21.9724 31.3025C21.9612 31.3138 21.9459 31.3201 21.93 31.3201H16.67C16.6541 31.3201 16.6388 31.3138 16.6276 31.3025C16.6163 31.2913 16.61 31.276 16.61 31.2601Z" fill="#F6EB86"/>
<path d="M23.8301 35.13C23.7369 35.1307 23.6449 35.1512 23.5601 35.19L19.8401 36.79C19.6764 36.8624 19.5478 36.9965 19.4822 37.1631C19.4167 37.3297 19.4195 37.5155 19.4901 37.68C19.543 37.8 19.6299 37.9019 19.7401 37.973C19.8503 38.0441 19.979 38.0813 20.1101 38.08C20.1958 38.0981 20.2844 38.0981 20.3701 38.08L24.0901 36.47C24.2343 36.411 24.3533 36.3036 24.4269 36.1663C24.5004 36.0289 24.5238 35.8703 24.493 35.7176C24.4622 35.5649 24.3792 35.4277 24.2582 35.3296C24.1373 35.2315 23.9859 35.1786 23.8301 35.18V35.13ZM23.8301 35.86L20.0901 37.47C20.081 37.4753 20.0707 37.478 20.0601 37.478C20.0496 37.478 20.0392 37.4753 20.0301 37.47C20.0301 37.47 20.0301 37.47 20.0301 37.47L23.7501 35.87L23.8501 35.86H23.8301Z" fill="#F6EB86"/>
<path d="M50.8999 27.27C50.9855 27.2897 51.0744 27.2897 51.1599 27.27L54.8899 25.67C55.031 25.6065 55.1463 25.4967 55.2166 25.3588C55.2869 25.2209 55.308 25.0632 55.2766 24.9117C55.2451 24.7601 55.1629 24.6238 55.0435 24.5254C54.9241 24.4269 54.7747 24.3721 54.6199 24.37C54.5267 24.3707 54.4347 24.3911 54.3499 24.43L50.6299 26.03C50.4849 26.0893 50.3652 26.1975 50.2917 26.3359C50.2182 26.4743 50.1955 26.6341 50.2276 26.7875C50.2597 26.9408 50.3445 27.0781 50.4674 27.1754C50.5902 27.2727 50.7433 27.3239 50.8999 27.32V27.27ZM50.8999 26.54L54.6299 24.94C54.6495 24.9344 54.6703 24.9344 54.6899 24.94C54.6981 24.9517 54.7025 24.9657 54.7025 24.98C54.7025 24.9943 54.6981 25.0083 54.6899 25.02L50.9499 26.63C50.9408 26.6353 50.9304 26.638 50.9199 26.638C50.9094 26.638 50.899 26.6353 50.8899 26.63C50.8762 26.62 50.8667 26.6053 50.863 26.5887C50.8593 26.5722 50.8618 26.5549 50.8699 26.54H50.8999Z" fill="#F6EB86"/>
<path d="M37.3601 20C35.1331 20 32.9561 20.6604 31.1044 21.8977C29.2527 23.1349 27.8095 24.8935 26.9572 26.951C26.105 29.0085 25.882 31.2725 26.3165 33.4567C26.7509 35.641 27.8233 37.6473 29.3981 39.222C30.9728 40.7968 32.9792 41.8692 35.1634 42.3036C37.3476 42.7381 39.6116 42.5151 41.6691 41.6629C43.7266 40.8106 45.4852 39.3674 46.7225 37.5157C47.9597 35.664 48.6201 33.487 48.6201 31.26C48.6175 28.2745 47.4303 25.412 45.3192 23.3009C43.2081 21.1898 40.3456 20.0026 37.3601 20V20ZM37.3601 41.91C35.2537 41.91 33.1947 41.2854 31.4433 40.1152C29.6919 38.9449 28.3269 37.2816 27.5208 35.3356C26.7147 33.3896 26.5038 31.2482 26.9147 29.1823C27.3257 27.1164 28.34 25.2188 29.8294 23.7293C31.3188 22.2399 33.2165 21.2256 35.2824 20.8146C37.3483 20.4037 39.4897 20.6146 41.4357 21.4207C43.3817 22.2268 45.045 23.5918 46.2153 25.3432C47.3855 27.0946 48.0101 29.1536 48.0101 31.26C48.0075 34.0838 46.8846 36.7911 44.8879 38.7878C42.8912 40.7845 40.1838 41.9074 37.3601 41.91V41.91Z" fill="#F6EB86"/>
<path d="M58.0999 30.5901H52.8399C52.6622 30.5901 52.4918 30.6607 52.3662 30.7863C52.2405 30.912 52.1699 31.0824 52.1699 31.2601C52.1699 31.4378 52.2405 31.6082 52.3662 31.7338C52.4918 31.8595 52.6622 31.9301 52.8399 31.9301H58.0999C58.2776 31.9301 58.448 31.8595 58.5737 31.7338C58.6993 31.6082 58.7699 31.4378 58.7699 31.2601C58.7699 31.0824 58.6993 30.912 58.5737 30.7863C58.448 30.6607 58.2776 30.5901 58.0999 30.5901ZM58.0999 31.3201H52.8399C52.824 31.3201 52.8087 31.3138 52.7975 31.3025C52.7862 31.2913 52.7799 31.276 52.7799 31.2601C52.7799 31.2442 52.7862 31.2289 52.7975 31.2177C52.8087 31.2064 52.824 31.2001 52.8399 31.2001H58.0999C58.1158 31.2001 58.1311 31.2064 58.1423 31.2177C58.1536 31.2289 58.1599 31.2442 58.1599 31.2601C58.1599 31.276 58.1536 31.2913 58.1423 31.3025C58.1311 31.3138 58.1158 31.3201 58.0999 31.3201Z" fill="#F6EB86"/>
<path d="M37.3601 22.74C35.675 22.74 34.0277 23.2397 32.6266 24.1759C31.2255 25.1121 30.1335 26.4427 29.4886 27.9995C28.8438 29.5564 28.6751 31.2694 29.0038 32.9222C29.3325 34.5749 30.144 36.093 31.3355 37.2845C32.5271 38.4761 34.0452 39.2875 35.6979 39.6163C37.3506 39.945 39.0637 39.7763 40.6206 39.1314C42.1774 38.4866 43.508 37.3946 44.4442 35.9935C45.3804 34.5923 45.8801 32.9451 45.8801 31.26C45.8801 29.0003 44.9824 26.8333 43.3846 25.2354C41.7868 23.6376 39.6197 22.74 37.3601 22.74V22.74ZM37.3601 39.16C35.798 39.158 34.2716 38.693 32.9738 37.8237C31.676 36.9545 30.665 35.72 30.0686 34.2763C29.4722 32.8326 29.3172 31.2445 29.6231 29.7127C29.9291 28.1809 30.6822 26.7742 31.7875 25.6703C32.8927 24.5665 34.3004 23.8151 35.8326 23.5111C37.3647 23.207 38.9526 23.3641 40.3956 23.9623C41.8385 24.5605 43.0718 25.5731 43.9394 26.872C44.807 28.171 45.2701 29.6979 45.2701 31.26C45.2701 32.2983 45.0654 33.3264 44.6678 34.2855C44.2701 35.2446 43.6873 36.116 42.9527 36.8497C42.2181 37.5834 41.346 38.1651 40.3864 38.5615C39.4267 38.9579 38.3984 39.1613 37.3601 39.16V39.16Z" fill="#F6EB86"/>
<path d="M37.3601 23.48C35.8213 23.48 34.3172 23.9363 33.0377 24.7911C31.7583 25.646 30.7611 26.8611 30.1723 28.2827C29.5834 29.7043 29.4294 31.2686 29.7296 32.7778C30.0298 34.2869 30.7707 35.6732 31.8588 36.7613C32.9468 37.8493 34.3331 38.5903 35.8423 38.8905C37.3515 39.1907 38.9158 39.0366 40.3374 38.4478C41.759 37.8589 42.974 36.8617 43.8289 35.5823C44.6838 34.3029 45.1401 32.7987 45.1401 31.26C45.1374 29.1974 44.3169 27.2201 42.8585 25.7616C41.4 24.3032 39.4227 23.4826 37.3601 23.48ZM37.3601 38.48C35.942 38.48 34.5557 38.0595 33.3766 37.2716C32.1975 36.4838 31.2785 35.364 30.7359 34.0538C30.1932 32.7437 30.0512 31.302 30.3279 29.9112C30.6045 28.5203 31.2874 27.2428 32.2901 26.24C33.2929 25.2373 34.5704 24.5544 35.9613 24.2777C37.3521 24.0011 38.7938 24.1431 40.1039 24.6858C41.4141 25.2284 42.5339 26.1474 43.3217 27.3265C44.1096 28.5056 44.5301 29.8919 44.5301 31.31C44.5143 33.2021 43.7522 35.0115 42.4096 36.3447C41.0669 37.678 39.2523 38.4274 37.3601 38.43V38.48Z" fill="#F6EB86"/>
<path d="M39.82 34.75H39.46V25.63H36.59C35.8526 26.5698 34.8797 27.2978 33.77 27.74L34.51 29.53L36.12 28.77V34.77H35.64C35.3603 34.7636 35.0885 34.863 34.879 35.0485C34.6694 35.2339 34.5377 35.4916 34.51 35.77C34.5018 35.9155 34.5235 36.0611 34.5736 36.1979C34.6237 36.3347 34.7012 36.4599 34.8014 36.5657C34.9016 36.6715 35.0223 36.7557 35.1562 36.8132C35.2901 36.8707 35.4343 36.9002 35.58 36.9H39.88C40.0257 36.9002 40.17 36.8707 40.3038 36.8132C40.4377 36.7557 40.5585 36.6715 40.6587 36.5657C40.7588 36.4599 40.8364 36.3347 40.8865 36.1979C40.9366 36.0611 40.9582 35.9155 40.95 35.77C40.9271 35.488 40.7974 35.2254 40.5874 35.0358C40.3774 34.8462 40.1029 34.744 39.82 34.75V34.75ZM40.22 36.13C40.1773 36.1778 40.1249 36.2159 40.0662 36.2417C40.0076 36.2676 39.9441 36.2806 39.88 36.28H35.58C35.5174 36.2805 35.4554 36.2674 35.3984 36.2415C35.3414 36.2156 35.2908 36.1775 35.25 36.13C35.2068 36.0848 35.1731 36.0315 35.1508 35.9731C35.1284 35.9147 35.118 35.8525 35.12 35.79C35.1394 35.6673 35.203 35.5559 35.2987 35.4767C35.3945 35.3975 35.5158 35.356 35.64 35.36H36.73V27.81L35.86 28.22L34.86 28.7L34.59 28.04C35.4833 27.6177 36.2722 27.003 36.9 26.24H38.9V35.35H39.9C40.0242 35.346 40.1455 35.3875 40.2413 35.4667C40.337 35.5459 40.4006 35.6573 40.42 35.78C40.4154 35.8497 40.3951 35.9174 40.3604 35.9781C40.3257 36.0387 40.2777 36.0907 40.22 36.13Z" fill="#F6EB86"/>
<path d="M37.3601 20.73C35.2774 20.73 33.2416 21.3476 31.5099 22.5046C29.7783 23.6617 28.4286 25.3062 27.6316 27.2303C26.8346 29.1544 26.6261 31.2717 27.0324 33.3143C27.4387 35.3569 28.4416 37.2332 29.9142 38.7058C31.3869 40.1785 33.2632 41.1813 35.3058 41.5876C37.3484 41.9939 39.4656 41.7854 41.3897 40.9884C43.3138 40.1914 44.9584 38.8418 46.1155 37.1101C47.2725 35.3785 47.8901 33.3426 47.8901 31.26C47.8874 28.4681 46.7772 25.7912 44.803 23.8171C42.8288 21.8429 40.152 20.7326 37.3601 20.73ZM37.3601 41.17C35.4001 41.17 33.4841 40.5888 31.8544 39.4998C30.2247 38.4109 28.9545 36.8632 28.2044 35.0524C27.4544 33.2416 27.2581 31.249 27.6405 29.3266C28.0229 27.4043 28.9667 25.6385 30.3527 24.2525C31.7386 22.8666 33.5044 21.9228 35.4267 21.5404C37.3491 21.158 39.3417 21.3543 41.1525 22.1043C42.9633 22.8544 44.511 24.1246 45.5999 25.7543C46.6889 27.384 47.2701 29.3 47.2701 31.26C47.2674 33.8875 46.2225 36.4066 44.3646 38.2645C42.5067 40.1224 39.9876 41.1673 37.3601 41.17V41.17Z" fill="#F6EB86"/>
<path d="M23.8301 35.13C23.7369 35.1307 23.6449 35.1512 23.5601 35.19L19.8401 36.79C19.6764 36.8624 19.5478 36.9965 19.4822 37.1631C19.4167 37.3297 19.4195 37.5155 19.4901 37.68C19.543 37.8 19.6299 37.9019 19.7401 37.973C19.8503 38.0441 19.979 38.0813 20.1101 38.08C20.1958 38.0981 20.2844 38.0981 20.3701 38.08L24.0901 36.47C24.2343 36.411 24.3533 36.3036 24.4269 36.1663C24.5004 36.0289 24.5238 35.8703 24.493 35.7176C24.4622 35.5649 24.3792 35.4277 24.2582 35.3296C24.1373 35.2315 23.9859 35.1786 23.8301 35.18V35.13ZM24.1701 35.94C24.1308 36.0293 24.0595 36.1007 23.9701 36.14L20.2501 37.75C20.2039 37.7594 20.1563 37.7594 20.1101 37.75C20.0385 37.7491 19.9685 37.728 19.9084 37.6891C19.8482 37.6501 19.8003 37.595 19.7701 37.53C19.7348 37.4366 19.7348 37.3334 19.7701 37.24C19.8094 37.1507 19.8808 37.0793 19.9701 37.04L23.6901 35.44C23.7397 35.4305 23.7906 35.4305 23.8401 35.44C23.9106 35.4403 23.9795 35.4613 24.0381 35.5005C24.0968 35.5396 24.1427 35.595 24.1701 35.66C24.2048 35.7501 24.2048 35.8499 24.1701 35.94V35.94Z" fill="#E59323"/>
<path d="M50.8999 27.27C50.9855 27.2897 51.0744 27.2897 51.1599 27.27L54.8899 25.67C55.031 25.6065 55.1463 25.4967 55.2166 25.3588C55.2869 25.2209 55.308 25.0632 55.2766 24.9117C55.2451 24.7601 55.1629 24.6238 55.0435 24.5254C54.9241 24.4269 54.7747 24.3721 54.6199 24.37C54.5267 24.3707 54.4347 24.3911 54.3499 24.43L50.6299 26.03C50.4849 26.0893 50.3652 26.1975 50.2917 26.3359C50.2182 26.4743 50.1955 26.6341 50.2276 26.7875C50.2597 26.9408 50.3445 27.0781 50.4674 27.1754C50.5902 27.2727 50.7433 27.3239 50.8999 27.32V27.27ZM50.7499 26.27L54.4699 24.67C54.5195 24.6605 54.5704 24.6605 54.6199 24.67C54.6916 24.6709 54.7615 24.692 54.8217 24.7309C54.8818 24.7699 54.9297 24.825 54.9599 24.89C54.9798 24.934 54.9901 24.9817 54.9901 25.03C54.9901 25.0783 54.9798 25.126 54.9599 25.17C54.9206 25.2593 54.8493 25.3307 54.7599 25.37L51.0399 26.98C50.9938 26.9903 50.946 26.9903 50.8999 26.98C50.8144 26.9809 50.7311 26.9522 50.6644 26.8987C50.5976 26.8452 50.5515 26.7702 50.5338 26.6865C50.5161 26.6028 50.528 26.5155 50.5674 26.4396C50.6068 26.3637 50.6713 26.3037 50.7499 26.27Z" fill="#E59323"/>
<path d="M22.61 31.2601C22.6074 31.0815 22.5346 30.9111 22.4073 30.7857C22.2801 30.6603 22.1086 30.5901 21.93 30.5901H16.67C16.4923 30.5901 16.3219 30.6607 16.1962 30.7863C16.0706 30.912 16 31.0824 16 31.2601C16 31.4378 16.0706 31.6082 16.1962 31.7338C16.3219 31.8595 16.4923 31.9301 16.67 31.9301H21.93C22.1086 31.9301 22.2801 31.8598 22.4073 31.7345C22.5346 31.6091 22.6074 31.4387 22.61 31.2601V31.2601ZM16.3 31.2601C16.3025 31.1628 16.3423 31.0701 16.4112 31.0013C16.48 30.9324 16.5727 30.8926 16.67 30.8901H21.93C22.0281 30.8901 22.1222 30.9291 22.1916 30.9985C22.261 31.0678 22.3 31.162 22.3 31.2601C22.3 31.3582 22.261 31.4523 22.1916 31.5217C22.1222 31.5911 22.0281 31.6301 21.93 31.6301H16.67C16.5727 31.6276 16.48 31.5878 16.4112 31.5189C16.3423 31.4501 16.3025 31.3574 16.3 31.2601Z" fill="#E59323"/>
<path d="M37.3601 20C35.1331 20 32.9561 20.6604 31.1044 21.8977C29.2527 23.1349 27.8095 24.8935 26.9572 26.951C26.105 29.0085 25.882 31.2725 26.3165 33.4567C26.7509 35.641 27.8233 37.6473 29.3981 39.222C30.9728 40.7968 32.9792 41.8692 35.1634 42.3036C37.3476 42.7381 39.6116 42.5151 41.6691 41.6629C43.7266 40.8106 45.4852 39.3674 46.7225 37.5157C47.9597 35.664 48.6201 33.487 48.6201 31.26C48.6175 28.2745 47.4303 25.412 45.3192 23.3009C43.2081 21.1898 40.3456 20.0026 37.3601 20V20ZM37.3601 42.21C35.1845 42.21 33.0578 41.5649 31.2488 40.3562C29.4399 39.1475 28.03 37.4295 27.1974 35.4195C26.3649 33.4095 26.147 31.1978 26.5715 29.064C26.9959 26.9302 28.0436 24.9702 29.5819 23.4318C31.1203 21.8935 33.0803 20.8458 35.2141 20.4214C37.3479 19.9969 39.5596 20.2148 41.5696 21.0473C43.5796 21.8799 45.2976 23.2898 46.5063 25.0987C47.715 26.9077 48.3601 29.0344 48.3601 31.21C48.3601 34.1274 47.2012 36.9253 45.1383 38.9882C43.0754 41.0511 40.2775 42.21 37.3601 42.21V42.21Z" fill="#E59323"/>
<path d="M24.09 26.0899L20.37 24.4899C20.2853 24.4511 20.1932 24.4306 20.1 24.4299C19.9461 24.4342 19.7981 24.4905 19.6804 24.5898C19.5627 24.689 19.4821 24.8253 19.4519 24.9763C19.4217 25.1273 19.4437 25.2841 19.5142 25.421C19.5847 25.5579 19.6996 25.6668 19.84 25.7299L23.52 27.3499C23.6048 27.3888 23.6968 27.4092 23.79 27.4099C23.9439 27.4057 24.0919 27.3493 24.2096 27.2501C24.3273 27.1508 24.4079 27.0145 24.4381 26.8635C24.4683 26.7125 24.4463 26.5558 24.3758 26.4189C24.3053 26.282 24.1905 26.173 24.05 26.1099L24.09 26.0899ZM24.16 26.8599C24.1326 26.9249 24.0867 26.9804 24.028 27.0195C23.9694 27.0586 23.9005 27.0796 23.83 27.0799C23.7805 27.0894 23.7296 27.0894 23.68 27.0799L19.96 25.4799C19.8682 25.4391 19.7963 25.3636 19.76 25.2699C19.7253 25.1798 19.7253 25.08 19.76 24.9899C19.7885 24.9257 19.8346 24.8709 19.893 24.832C19.9515 24.793 20.0198 24.7715 20.09 24.7699H20.24L23.97 26.3499C24.0151 26.368 24.0561 26.3951 24.0905 26.4295C24.1248 26.4638 24.1519 26.5048 24.17 26.5499C24.1896 26.5995 24.1989 26.6526 24.1972 26.706C24.1954 26.7593 24.1828 26.8117 24.16 26.8599V26.8599Z" fill="#E59323"/>
<path d="M54.8899 36.68L51.1599 35.08C51.0791 35.04 50.9901 35.0195 50.8999 35.02C50.7433 35.0161 50.5902 35.0673 50.4674 35.1646C50.3445 35.2619 50.2597 35.3992 50.2276 35.5525C50.1955 35.7059 50.2182 35.8657 50.2917 36.0041C50.3652 36.1425 50.4849 36.2507 50.6299 36.31L54.3499 37.92C54.4367 37.951 54.5278 37.9679 54.6199 37.97C54.7766 37.9738 54.9296 37.9227 55.0524 37.8254C55.1753 37.7281 55.2601 37.5908 55.2922 37.4374C55.3243 37.2841 55.3017 37.1243 55.2282 36.9859C55.1546 36.8475 55.035 36.7393 54.8899 36.68V36.68ZM54.9599 37.44C54.9323 37.5076 54.8852 37.5655 54.8247 37.6065C54.7642 37.6474 54.693 37.6695 54.6199 37.67C54.5704 37.6794 54.5195 37.6794 54.4699 37.67L50.7499 36.06C50.6619 36.0205 50.5929 35.9482 50.5574 35.8586C50.5219 35.7689 50.5228 35.669 50.5599 35.58C50.588 35.5134 50.6354 35.4569 50.696 35.4176C50.7567 35.3784 50.8277 35.3583 50.8999 35.36C50.946 35.3496 50.9938 35.3496 51.0399 35.36L54.7599 36.96C54.8493 36.9993 54.9206 37.0706 54.9599 37.16C54.9798 37.204 54.9901 37.2517 54.9901 37.3C54.9901 37.3483 54.9798 37.396 54.9599 37.44V37.44Z" fill="#E59323"/>
<path d="M58.0999 30.5901H52.8399C52.6622 30.5901 52.4918 30.6607 52.3662 30.7863C52.2405 30.912 52.1699 31.0824 52.1699 31.2601C52.1699 31.4378 52.2405 31.6082 52.3662 31.7338C52.4918 31.8595 52.6622 31.9301 52.8399 31.9301H58.0999C58.2776 31.9301 58.448 31.8595 58.5737 31.7338C58.6993 31.6082 58.7699 31.4378 58.7699 31.2601C58.7699 31.0824 58.6993 30.912 58.5737 30.7863C58.448 30.6607 58.2776 30.5901 58.0999 30.5901ZM58.0999 31.5901H52.8399C52.7418 31.5901 52.6477 31.5511 52.5783 31.4817C52.5089 31.4123 52.4699 31.3182 52.4699 31.2201C52.4699 31.1219 52.5089 31.0278 52.5783 30.9585C52.6477 30.8891 52.7418 30.8501 52.8399 30.8501H58.0999C58.1981 30.8501 58.2922 30.8891 58.3615 30.9585C58.4309 31.0278 58.4699 31.1219 58.4699 31.2201C58.4699 31.3182 58.4309 31.4123 58.3615 31.4817C58.2922 31.5511 58.1981 31.5901 58.0999 31.5901Z" fill="#E59323"/>
<path d="M37.3601 21.04C35.3388 21.04 33.3629 21.6394 31.6822 22.7624C30.0015 23.8854 28.6916 25.4816 27.9181 27.349C27.1446 29.2165 26.9422 31.2714 27.3365 33.2539C27.7309 35.2363 28.7042 37.0574 30.1335 38.4867C31.5628 39.916 33.3838 40.8893 35.3663 41.2837C37.3488 41.678 39.4037 41.4756 41.2712 40.7021C43.1386 39.9286 44.7348 38.6186 45.8578 36.938C46.9807 35.2573 47.5801 33.2814 47.5801 31.26C47.5749 28.5512 46.4964 25.9547 44.5809 24.0392C42.6655 22.1238 40.069 21.0453 37.3601 21.04V21.04ZM37.3601 41.17C35.4001 41.17 33.4841 40.5888 31.8544 39.4999C30.2247 38.411 28.9546 36.8632 28.2045 35.0524C27.4544 33.2416 27.2582 31.249 27.6406 29.3267C28.0229 27.4043 28.9668 25.6385 30.3527 24.2526C31.7387 22.8667 33.5044 21.9228 35.4268 21.5405C37.3491 21.1581 39.3417 21.3543 41.1525 22.1044C42.9633 22.8544 44.5111 24.1246 45.6 25.7543C46.6889 27.384 47.2701 29.3 47.2701 31.26C47.2675 33.8875 46.2226 36.4066 44.3646 38.2645C42.5067 40.1225 39.9876 41.1674 37.3601 41.17V41.17Z" fill="#E59323"/>
<path d="M37.3601 22.74C35.675 22.74 34.0277 23.2397 32.6266 24.1759C31.2255 25.1121 30.1335 26.4427 29.4886 27.9995C28.8438 29.5564 28.6751 31.2694 29.0038 32.9222C29.3325 34.5749 30.144 36.093 31.3355 37.2845C32.5271 38.4761 34.0452 39.2875 35.6979 39.6163C37.3506 39.945 39.0637 39.7763 40.6206 39.1314C42.1774 38.4866 43.508 37.3946 44.4442 35.9935C45.3804 34.5923 45.8801 32.9451 45.8801 31.26C45.8801 29.0003 44.9824 26.8333 43.3846 25.2354C41.7868 23.6376 39.6197 22.74 37.3601 22.74V22.74ZM37.3601 39.47C35.7363 39.47 34.149 38.9885 32.7989 38.0863C31.4487 37.1842 30.3964 35.902 29.775 34.4018C29.1536 32.9016 28.9911 31.2509 29.3078 29.6583C29.6246 28.0657 30.4066 26.6028 31.5547 25.4547C32.7029 24.3065 34.1658 23.5245 35.7584 23.2077C37.351 22.891 39.0017 23.0535 40.5019 23.6749C42.0021 24.2963 43.2843 25.3486 44.1865 26.6988C45.0886 28.0489 45.5701 29.6362 45.5701 31.26C45.5674 33.4366 44.7016 35.5233 43.1625 37.0624C41.6234 38.6015 39.5367 39.4673 37.3601 39.47V39.47Z" fill="#E59323"/>
<path d="M39.82 34.75H39.46V25.63H36.59C35.8526 26.5698 34.8797 27.2978 33.77 27.74L34.51 29.53L36.12 28.77V34.77H35.64C35.3603 34.7636 35.0885 34.863 34.879 35.0485C34.6694 35.2339 34.5377 35.4916 34.51 35.77C34.5018 35.9155 34.5235 36.0611 34.5736 36.1979C34.6237 36.3347 34.7012 36.4599 34.8014 36.5657C34.9016 36.6715 35.0223 36.7557 35.1562 36.8132C35.2901 36.8707 35.4343 36.9002 35.58 36.9H39.88C40.0257 36.9002 40.17 36.8707 40.3038 36.8132C40.4377 36.7557 40.5585 36.6715 40.6587 36.5657C40.7588 36.4599 40.8364 36.3347 40.8865 36.1979C40.9366 36.0611 40.9582 35.9155 40.95 35.77C40.9271 35.488 40.7974 35.2254 40.5874 35.0358C40.3774 34.8462 40.1029 34.744 39.82 34.75V34.75ZM40.44 36.34C40.3683 36.4165 40.2815 36.4773 40.1851 36.5186C40.0887 36.5599 39.9849 36.5808 39.88 36.58H35.58C35.4765 36.5819 35.3737 36.5615 35.2788 36.52C35.1839 36.4786 35.099 36.4172 35.03 36.34C34.9575 36.2668 34.9012 36.179 34.865 36.0825C34.8288 35.986 34.8135 35.8829 34.82 35.78C34.8401 35.5776 34.9356 35.3901 35.0875 35.2549C35.2394 35.1196 35.4367 35.0465 35.64 35.05H36.43V28.29L35.99 28.49L34.67 29.12L34.16 27.89C35.1635 27.4604 36.0461 26.7908 36.73 25.94H39.15V35.05H39.82C40.0251 35.0439 40.2248 35.1159 40.3789 35.2514C40.5329 35.3869 40.6298 35.5758 40.65 35.78C40.6555 35.8843 40.6397 35.9886 40.6036 36.0866C40.5675 36.1846 40.5118 36.2742 40.44 36.35V36.34Z" fill="#E59323"/>
<path d="M37.3601 23.78C35.8807 23.78 34.4345 24.2187 33.2045 25.0406C31.9744 25.8626 31.0157 27.0308 30.4495 28.3976C29.8834 29.7644 29.7352 31.2683 30.0239 32.7193C30.3125 34.1703 31.0249 35.5031 32.071 36.5492C33.1171 37.5953 34.4499 38.3077 35.9009 38.5963C37.3518 38.8849 38.8558 38.7368 40.2226 38.1707C41.5894 37.6045 42.7576 36.6458 43.5795 35.4157C44.4014 34.1856 44.8401 32.7394 44.8401 31.26C44.8375 29.277 44.0486 27.376 42.6464 25.9738C41.2442 24.5716 39.3431 23.7827 37.3601 23.78ZM37.3601 38.43C35.942 38.43 34.5558 38.0095 33.3767 37.2217C32.1976 36.4338 31.2786 35.314 30.7359 34.0039C30.1932 32.6937 30.0512 31.2521 30.3279 29.8612C30.6046 28.4704 31.2874 27.1928 32.2902 26.1901C33.2929 25.1873 34.5705 24.5045 35.9613 24.2278C37.3522 23.9512 38.7938 24.0931 40.104 24.6358C41.4141 25.1785 42.5339 26.0975 43.3218 27.2766C44.1096 28.4557 44.5301 29.8419 44.5301 31.26C44.5275 33.1608 43.7712 34.983 42.4272 36.3271C41.0831 37.6711 39.2609 38.4274 37.3601 38.43V38.43Z" fill="#E59323"/>
</g>
<defs>
<filter id="filter0_d_301_15" x="8" y="16" width="58.7699" height="49.2" filterUnits="userSpaceOnUse" color-interpolation-filters="sRGB">
<feFlood flood-opacity="0" result="BackgroundImageFix"/>
<feColorMatrix in="SourceAlpha" type="matrix" values="0 0 0 0 0 0 0 0 0 0 0 0 0 0 0 0 0 0 127 0" result="hardAlpha"/>
<feOffset dy="4"/>
<feGaussianBlur stdDeviation="4"/>
<feComposite in2="hardAlpha" operator="out"/>
<feColorMatrix type="matrix" values="0 0 0 0 0.873737 0 0 0 0 0 0 0 0 0 1 0 0 0 0.6 0"/>
<feBlend mode="normal" in2="BackgroundImageFix" result="effect1_dropShadow_301_15"/>
<feBlend mode="normal" in="SourceGraphic" in2="effect1_dropShadow_301_15" result="shape"/>
</filter>
<radialGradient id="paint0_diamond_301_15" cx="0" cy="0" r="1" gradientUnits="userSpaceOnUse" gradientTransform="translate(37.5 37.5) rotate(45.9496) scale(64.0019 66.4472)">
<stop offset="0.553067" stop-color="#5B0C88"/>
<stop offset="0.755325" stop-color="#340450"/>
</radialGradient>
</defs>
</svg>
