<svg width="75" height="75" viewBox="0 0 75 75" fill="none" xmlns="http://www.w3.org/2000/svg">
<rect width="75" height="75" rx="7" fill="url(#paint0_diamond_301_8)"/>
<g filter="url(#filter0_d_301_8)">
<path d="M34.0575 28.7048C33.9999 28.7061 33.9437 28.7227 33.8945 28.7528L29.6286 31.0248C29.587 31.0464 29.5502 31.0762 29.5206 31.1125C29.4909 31.1487 29.4689 31.1907 29.456 31.2357C29.4375 31.278 29.428 31.3237 29.428 31.3699C29.428 31.4161 29.4375 31.4618 29.456 31.5041C29.4857 31.5595 29.53 31.6058 29.584 31.6379C29.6381 31.67 29.6999 31.6867 29.7628 31.6862C29.8195 31.6997 29.8786 31.6997 29.9353 31.6862L34.1917 29.4046C34.233 29.3851 34.2697 29.357 34.2994 29.3223C34.3291 29.2877 34.3512 29.2471 34.3643 29.2033C34.3903 29.1509 34.4025 29.0927 34.3999 29.0342C34.3972 28.9757 34.3797 28.9189 34.349 28.8691C34.3184 28.8192 34.2755 28.778 34.2245 28.7493C34.1735 28.7205 34.116 28.7052 34.0575 28.7048V28.7048Z" fill="white"/>
<path d="M48.6193 23.298C48.6727 23.3123 48.7288 23.3123 48.7822 23.298L53.0482 21.026C53.1302 20.9799 53.1918 20.9046 53.2208 20.8151C53.2354 20.7629 53.2379 20.708 53.2281 20.6546C53.2182 20.6013 53.1962 20.5509 53.1638 20.5074C53.1314 20.4638 53.0894 20.4283 53.0411 20.4036C52.9928 20.3788 52.9395 20.3655 52.8853 20.3646C52.8319 20.3503 52.7757 20.3503 52.7223 20.3646L48.4371 22.6365C48.3547 22.6812 48.2933 22.7567 48.2663 22.8465C48.2394 22.9364 48.2491 23.0332 48.2933 23.1159C48.3245 23.1743 48.3718 23.2225 48.4296 23.2548C48.4873 23.2871 48.5532 23.3021 48.6193 23.298V23.298Z" fill="white"/>
<path d="M29.6667 21.0357L33.9327 23.3077C33.986 23.3219 34.0422 23.3219 34.0956 23.3077C34.1599 23.3088 34.2233 23.2925 34.279 23.2604C34.3348 23.2283 34.3807 23.1817 34.412 23.1255C34.4452 23.0391 34.4452 22.9435 34.412 22.8571C34.399 22.8121 34.3771 22.7702 34.3474 22.7339C34.3177 22.6976 34.281 22.6678 34.2394 22.6462L29.9734 20.3742C29.92 20.36 29.8639 20.36 29.8105 20.3742C29.7476 20.3737 29.6858 20.3905 29.6317 20.4226C29.5777 20.4547 29.5334 20.5009 29.5037 20.5563C29.4852 20.5987 29.4757 20.6444 29.4757 20.6906C29.4757 20.7367 29.4852 20.7824 29.5037 20.8248C29.5303 20.9127 29.5883 20.9878 29.6667 21.0357V21.0357Z" fill="white"/>
<path d="M48.4371 29.3759L52.7031 31.6479C52.7565 31.6621 52.8127 31.6621 52.8661 31.6479C52.9203 31.647 52.9737 31.6336 53.022 31.6089C53.0702 31.5841 53.1122 31.5486 53.1446 31.5051C53.177 31.4616 53.199 31.4112 53.2089 31.3578C53.2188 31.3045 53.2163 31.2496 53.2016 31.1973C53.1887 31.1523 53.1667 31.1104 53.137 31.0741C53.1074 31.0379 53.0706 31.008 53.0291 30.9864L48.7631 28.7144C48.7139 28.6843 48.6577 28.6678 48.6001 28.6665C48.5365 28.668 48.4744 28.6866 48.4204 28.7203C48.3665 28.7541 48.3226 28.8017 48.2933 28.8582C48.2743 28.9004 48.2644 28.9462 48.2644 28.9924C48.2644 29.0387 48.2743 29.0845 48.2933 29.1267C48.2997 29.1756 48.3156 29.2229 48.3403 29.2657C48.365 29.3084 48.3979 29.3459 48.4371 29.3759V29.3759Z" fill="white"/>
<path d="M26.4458 26.3561H33.1563C33.2071 26.3645 33.2592 26.3618 33.3088 26.3481C33.3584 26.3344 33.4045 26.3101 33.4438 26.2768C33.4831 26.2435 33.5146 26.202 33.5363 26.1553C33.5579 26.1086 33.5691 26.0577 33.5691 26.0062C33.5691 25.9547 33.5579 25.9038 33.5363 25.8571C33.5146 25.8104 33.4831 25.7689 33.4438 25.7356C33.4045 25.7023 33.3584 25.678 33.3088 25.6643C33.2592 25.6506 33.2071 25.6478 33.1563 25.6563H26.4458C26.395 25.6478 26.3429 25.6506 26.2933 25.6643C26.2437 25.678 26.1976 25.7023 26.1583 25.7356C26.119 25.7689 26.0875 25.8104 26.0658 25.8571C26.0442 25.9038 26.033 25.9547 26.033 26.0062C26.033 26.0577 26.0442 26.1086 26.0658 26.1553C26.0875 26.202 26.119 26.2435 26.1583 26.2768C26.1976 26.3101 26.2437 26.3344 26.2933 26.3481C26.3429 26.3618 26.395 26.3645 26.4458 26.3561V26.3561Z" fill="white"/>
<path d="M56.2691 25.6563H49.5586C49.5078 25.6478 49.4557 25.6506 49.4061 25.6643C49.3565 25.678 49.3104 25.7023 49.2711 25.7356C49.2318 25.7689 49.2003 25.8104 49.1786 25.8571C49.157 25.9038 49.1458 25.9547 49.1458 26.0062C49.1458 26.0577 49.157 26.1086 49.1786 26.1553C49.2003 26.202 49.2318 26.2435 49.2711 26.2768C49.3104 26.3101 49.3565 26.3344 49.4061 26.3481C49.4557 26.3618 49.5078 26.3645 49.5586 26.3561H56.2691C56.3199 26.3645 56.3719 26.3618 56.4216 26.3481C56.4712 26.3344 56.5173 26.3101 56.5566 26.2768C56.5958 26.2435 56.6274 26.202 56.6491 26.1553C56.6707 26.1086 56.6819 26.0577 56.6819 26.0062C56.6819 25.9547 56.6707 25.9038 56.6491 25.8571C56.6274 25.8104 56.5958 25.7689 56.5566 25.7356C56.5173 25.7023 56.4712 25.678 56.4216 25.6643C56.3719 25.6506 56.3199 25.6478 56.2691 25.6563V25.6563Z" fill="white"/>
<path d="M26.7619 48.5582C26.856 48.5582 26.9462 48.5208 27.0127 48.4543C27.0792 48.3878 27.1166 48.2976 27.1166 48.2035V38.2911C27.1142 38.1978 27.076 38.109 27.01 38.043C26.944 37.977 26.8552 37.9388 26.7619 37.9364H22.5534C22.4594 37.9364 22.3691 37.9738 22.3026 38.0403C22.2361 38.1068 22.1987 38.197 22.1987 38.2911C22.1987 38.3852 22.2361 38.4754 22.3026 38.5419C22.3691 38.6084 22.4594 38.6458 22.5534 38.6458H26.388V48.2323C26.3954 48.3247 26.4386 48.4106 26.5085 48.4715C26.5784 48.5324 26.6694 48.5635 26.7619 48.5582V48.5582Z" fill="white"/>
<path d="M20.6362 50.8015C20.6362 51.2262 20.7622 51.6414 20.9981 51.9946C21.2341 52.3477 21.5695 52.6229 21.9618 52.7854C22.3542 52.948 22.786 52.9905 23.2025 52.9077C23.6191 52.8248 24.0017 52.6203 24.302 52.32C24.6023 52.0196 24.8068 51.637 24.8897 51.2205C24.9726 50.8039 24.93 50.3722 24.7675 49.9798C24.605 49.5874 24.3297 49.252 23.9766 49.0161C23.6235 48.7801 23.2083 48.6542 22.7836 48.6542C22.2149 48.6567 21.6701 48.8838 21.268 49.2859C20.8658 49.6881 20.6388 50.2328 20.6362 50.8015V50.8015ZM22.7836 49.354C22.9864 49.3305 23.1918 49.3502 23.3865 49.4118C23.5811 49.4734 23.7605 49.5754 23.9129 49.7112C24.0653 49.847 24.1873 50.0135 24.2708 50.1997C24.3543 50.386 24.3975 50.5878 24.3975 50.792C24.3975 50.9961 24.3543 51.1979 24.2708 51.3842C24.1873 51.5705 24.0653 51.7369 23.9129 51.8727C23.7605 52.0085 23.5811 52.1106 23.3865 52.1721C23.1918 52.2337 22.9864 52.2534 22.7836 52.2299C22.4308 52.1891 22.1054 52.0201 21.8692 51.7549C21.6329 51.4898 21.5024 51.1471 21.5024 50.792C21.5024 50.4369 21.6329 50.0941 21.8692 49.829C22.1054 49.5639 22.4308 49.3948 22.7836 49.354V49.354Z" fill="white"/>
<path d="M54.2562 39.6622C54.2562 39.3197 54.1888 38.9807 54.0577 38.6643C53.9267 38.3479 53.7346 38.0605 53.4925 37.8184C53.2504 37.5762 52.9629 37.3842 52.6466 37.2531C52.3302 37.1221 51.9911 37.0546 51.6487 37.0546H41.6117L43.7494 31.2165C43.9787 30.585 43.9629 29.8906 43.7051 29.2703C43.4474 28.6499 42.9663 28.1488 42.3571 27.8658C41.7478 27.5829 41.0546 27.5386 40.4143 27.7419C39.774 27.9451 39.2332 28.3811 38.8987 28.9637L36.1761 33.7569C35.5018 34.9386 34.5041 35.9031 33.3002 36.537C32.4724 36.9855 31.5628 37.2626 30.6256 37.3518L29.9545 37.4189V37.1217C29.9089 36.6124 29.6738 36.1386 29.2957 35.7943C28.9176 35.4499 28.424 35.2599 27.9126 35.262H18.6041C18.5533 35.2535 18.5013 35.2563 18.4516 35.27C18.402 35.2837 18.3559 35.308 18.3166 35.3413C18.2774 35.3746 18.2458 35.416 18.2241 35.4628C18.2025 35.5095 18.1913 35.5604 18.1913 35.6119C18.1913 35.6634 18.2025 35.7143 18.2241 35.761C18.2458 35.8077 18.2774 35.8491 18.3166 35.8824C18.3559 35.9157 18.402 35.9401 18.4516 35.9538C18.5013 35.9675 18.5533 35.9702 18.6041 35.9618H27.9126C28.0913 35.963 28.2681 35.9995 28.4328 36.0691C28.5975 36.1386 28.7468 36.24 28.8724 36.3673C28.9979 36.4946 29.0971 36.6453 29.1643 36.811C29.2316 36.9766 29.2655 37.1539 29.2643 37.3326V53.8022C29.2617 54.1616 29.1172 54.5054 28.8622 54.7586C28.6072 55.0118 28.2624 55.1539 27.903 55.1539H18.5945C18.5012 55.1563 18.4124 55.1945 18.3464 55.2605C18.2804 55.3265 18.2422 55.4153 18.2398 55.5086C18.2423 55.601 18.2808 55.6888 18.347 55.7532C18.4133 55.8177 18.5021 55.8538 18.5945 55.8537H27.903C28.4023 55.8551 28.8849 55.6735 29.2594 55.3431C29.6339 55.0128 29.8744 54.5567 29.9353 54.0611L29.9833 53.6776L30.3476 53.8214C31.1528 54.1665 32.0348 54.4829 32.9359 54.7801H33.0222C35.274 55.4745 37.6159 55.8331 39.9724 55.8441H47.862C48.3339 55.8437 48.7969 55.7153 49.2015 55.4725C49.6061 55.2297 49.9373 54.8816 50.1596 54.4654C50.382 54.0492 50.4873 53.5804 50.4642 53.1091C50.4411 52.6378 50.2906 52.1815 50.0286 51.7891L49.7218 51.3289H50.6805C51.372 51.3289 52.0353 51.0542 52.5243 50.5652C53.0133 50.0762 53.288 49.413 53.288 48.7214C53.2907 48.0913 53.0583 47.4828 52.6361 47.015L52.3869 46.7178L52.732 46.5548C53.1803 46.3444 53.5596 46.0111 53.8261 45.5937C54.0925 45.1763 54.235 44.6918 54.237 44.1966C54.2388 43.8092 54.1536 43.4263 53.9877 43.0762C53.8218 42.7261 53.5794 42.4177 53.2784 42.1738L52.9908 41.9437L53.2784 41.7137C53.5846 41.4668 53.8314 41.1542 54.0007 40.7991C54.1699 40.4441 54.2573 40.0555 54.2562 39.6622V39.6622ZM51.6487 41.5795H45.3791C45.3283 41.571 45.2763 41.5737 45.2267 41.5874C45.177 41.6011 45.131 41.6255 45.0917 41.6588C45.0524 41.6921 45.0209 41.7335 44.9992 41.7803C44.9776 41.827 44.9663 41.8779 44.9663 41.9294C44.9663 41.9809 44.9776 42.0317 44.9992 42.0785C45.0209 42.1252 45.0524 42.1666 45.0917 42.1999C45.131 42.2332 45.177 42.2576 45.2267 42.2713C45.2763 42.285 45.3283 42.2877 45.3791 42.2793H51.6487C52.1572 42.2793 52.6449 42.4813 53.0045 42.8408C53.364 43.2004 53.566 43.6881 53.566 44.1966C53.566 44.7051 53.364 45.1927 53.0045 45.5523C52.6449 45.9119 52.1572 46.1139 51.6487 46.1139C51.5915 46.1178 51.5359 46.1341 51.4857 46.1618L51.3899 46.2097H51.2844C51.093 46.1625 50.8968 46.1368 50.6996 46.133H45.8393C45.7452 46.133 45.655 46.1704 45.5885 46.2369C45.522 46.3034 45.4846 46.3937 45.4846 46.4877C45.4846 46.5818 45.522 46.672 45.5885 46.7385C45.655 46.8051 45.7452 46.8425 45.8393 46.8425H50.6996C51.2081 46.8425 51.6958 47.0445 52.0554 47.404C52.4149 47.7636 52.6169 48.2512 52.6169 48.7597C52.6169 49.2682 52.4149 49.7559 52.0554 50.1155C51.6958 50.475 51.2081 50.677 50.6996 50.677H44.6985C44.6157 50.6908 44.5403 50.7335 44.486 50.7976C44.4317 50.8617 44.4019 50.9429 44.4019 51.0269C44.4019 51.1109 44.4317 51.1922 44.486 51.2563C44.5403 51.3204 44.6157 51.3631 44.6985 51.3768H47.8525C48.361 51.3768 48.8486 51.5788 49.2082 51.9384C49.5677 52.298 49.7698 52.7856 49.7698 53.2941C49.7698 53.8026 49.5677 54.2903 49.2082 54.6499C48.8486 55.0094 48.361 55.2114 47.8525 55.2114H39.9628C37.8353 55.199 35.7194 54.8959 33.6741 54.3103L33.4632 54.2432V43.6981C33.4632 43.604 33.4258 43.5138 33.3593 43.4472C33.2928 43.3807 33.2025 43.3434 33.1085 43.3434C33.0144 43.3434 32.9242 43.3807 32.8577 43.4472C32.7911 43.5138 32.7538 43.604 32.7538 43.6981V54.0515L32.3703 53.9268C31.5746 53.6488 30.8173 53.3517 30.1271 53.0449L29.9545 52.9682V38.1092L30.7118 38.042C31.9666 37.9166 33.1731 37.4927 34.2305 36.8055C35.2879 36.1184 36.1654 35.1881 36.7897 34.0924L39.5122 29.2992C39.6783 29.0094 39.9149 28.7663 40.1999 28.5923C40.485 28.4183 40.8093 28.319 41.1429 28.3037C41.4766 28.2884 41.8086 28.3576 42.1084 28.5048C42.4082 28.652 42.666 28.8725 42.8579 29.1458C43.0439 29.4048 43.1624 29.7062 43.2025 30.0225C43.2427 30.3389 43.2034 30.6603 43.088 30.9576L40.5092 37.9941C40.4782 38.0819 40.483 38.1783 40.5224 38.2626C40.5619 38.3469 40.6329 38.4123 40.7201 38.4447H40.8447C40.9165 38.4463 40.987 38.4248 41.0456 38.3834C41.1043 38.3419 41.1481 38.2828 41.1707 38.2146L41.3528 37.7257H51.6487C52.1572 37.7257 52.6449 37.9277 53.0045 38.2873C53.364 38.6468 53.566 39.1345 53.566 39.643C53.566 40.1515 53.364 40.6392 53.0045 40.9987C52.6449 41.3583 52.1572 41.5603 51.6487 41.5603V41.5795Z" fill="white"/>
<path d="M29.5324 21.2465L33.7888 23.5185C33.8842 23.5662 33.9889 23.5924 34.0956 23.5952C34.2135 23.5942 34.329 23.5616 34.4302 23.5009C34.5313 23.4403 34.6144 23.3536 34.6708 23.2501C34.7491 23.0985 34.7649 22.9222 34.7147 22.7591C34.6645 22.596 34.5524 22.459 34.4023 22.3777L30.1364 20.0769C30.0431 20.0237 29.9369 19.9972 29.8296 20.0002V20.5946L34.0956 22.8666C34.1058 22.8711 34.1146 22.8785 34.1207 22.8878C34.1268 22.8972 34.1301 22.9081 34.1301 22.9193C34.1301 22.9305 34.1268 22.9415 34.1207 22.9508C34.1146 22.9602 34.1058 22.9676 34.0956 22.9721L29.8296 20.7001C29.8228 20.6867 29.8193 20.6719 29.8193 20.6569C29.8193 20.6419 29.8228 20.6272 29.8296 20.6138V20.0769C29.7126 20.0766 29.5978 20.1086 29.498 20.1695C29.3982 20.2305 29.3172 20.3179 29.264 20.4221C29.1977 20.5682 29.1884 20.7338 29.2381 20.8864C29.2878 21.039 29.3928 21.1674 29.5324 21.2465Z" fill="#F6EB86"/>
<path d="M48.926 23.5185C48.831 23.5675 48.726 23.5937 48.6192 23.5952C48.5022 23.5956 48.3874 23.5636 48.2876 23.5026C48.1878 23.4417 48.1067 23.3543 48.0536 23.2501C48.0131 23.1759 47.9878 23.0944 47.9789 23.0103C47.97 22.9262 47.9778 22.8412 48.0019 22.7602C48.0259 22.6791 48.0657 22.6036 48.119 22.538C48.1723 22.4724 48.238 22.4179 48.3124 22.3777L52.5784 20.1057C52.6717 20.0525 52.7778 20.026 52.8852 20.0291C53.0274 20.0328 53.1645 20.0829 53.2756 20.1718C53.3866 20.2607 53.4656 20.3835 53.5003 20.5214C53.5351 20.6594 53.5238 20.8049 53.4681 20.9359C53.4124 21.0668 53.3154 21.1759 53.1919 21.2465L48.926 23.5185Z" fill="#F6EB86"/>
<path d="M26.762 48.8364C26.8472 48.8364 26.9315 48.8194 27.0101 48.7866C27.0886 48.7537 27.1599 48.7055 27.2196 48.6449C27.2794 48.5842 27.3265 48.5123 27.3582 48.4332C27.3899 48.3542 27.4056 48.2696 27.4043 48.1845V38.2912C27.4043 38.1209 27.3367 37.9575 27.2162 37.8371C27.0958 37.7166 26.9324 37.6489 26.762 37.6489H22.5536C22.3832 37.6489 22.2199 37.7166 22.0994 37.8371C21.9789 37.9575 21.9113 38.1209 21.9113 38.2912C21.9113 38.4616 21.9789 38.6249 22.0994 38.7454C22.2199 38.8659 22.3832 38.9335 22.5536 38.9335H26.0814V48.2228C26.0913 48.3941 26.1683 48.5545 26.2957 48.6694C26.4231 48.7842 26.5907 48.8442 26.762 48.8364V48.8364ZM22.5536 38.2912C22.5383 38.2912 22.5237 38.2852 22.5129 38.2744C22.5021 38.2636 22.496 38.249 22.496 38.2337C22.496 38.2185 22.5021 38.2038 22.5129 38.1931C22.5237 38.1823 22.5383 38.1762 22.5536 38.1762H26.7333C26.7485 38.1762 26.7632 38.1823 26.7739 38.1931C26.7847 38.2038 26.7908 38.2185 26.7908 38.2337V48.1653C26.7908 48.1806 26.7847 48.1952 26.7739 48.206C26.7632 48.2168 26.7485 48.2228 26.7333 48.2228C26.7253 48.2247 26.7171 48.2245 26.7093 48.2222C26.7014 48.22 26.6943 48.2158 26.6886 48.21C26.6828 48.2043 26.6786 48.1971 26.6764 48.1893C26.6741 48.1815 26.6739 48.1732 26.6757 48.1653V38.2912H22.5536Z" fill="#F6EB86"/>
<path d="M20.3391 50.8017C20.3391 51.2852 20.4825 51.7578 20.7511 52.1599C21.0197 52.5619 21.4015 52.8752 21.8482 53.0602C22.2949 53.2452 22.7864 53.2936 23.2606 53.1993C23.7348 53.105 24.1703 52.8722 24.5122 52.5303C24.8541 52.1884 25.0869 51.7528 25.1812 51.2786C25.2756 50.8044 25.2272 50.3129 25.0421 49.8662C24.8571 49.4196 24.5438 49.0378 24.1418 48.7692C23.7398 48.5005 23.2671 48.3572 22.7837 48.3572C22.1361 48.3597 21.5158 48.6181 21.0579 49.076C20.6 49.5339 20.3416 50.1542 20.3391 50.8017V50.8017ZM22.7837 48.9419C23.1519 48.94 23.5124 49.0475 23.8195 49.2507C24.1266 49.4539 24.3664 49.7437 24.5087 50.0833C24.6509 50.423 24.6891 50.7972 24.6184 51.1586C24.5478 51.52 24.3714 51.8523 24.1117 52.1134C23.852 52.3744 23.5206 52.5525 23.1596 52.625C22.7986 52.6976 22.4242 52.6613 22.0838 52.5208C21.7434 52.3804 21.4524 52.142 21.2476 51.836C21.0428 51.5299 20.9335 51.17 20.9335 50.8017C20.9335 50.3101 21.1281 49.8385 21.4748 49.49C21.8215 49.1415 22.2921 48.9445 22.7837 48.9419V48.9419Z" fill="#F6EB86"/>
<path d="M22.7836 52.5368C23.1295 52.5387 23.4682 52.4377 23.7566 52.2468C24.0449 52.0558 24.27 51.7834 24.4033 51.4642C24.5365 51.145 24.5719 50.7934 24.5049 50.4541C24.4379 50.1147 24.2715 49.803 24.0269 49.5584C23.7823 49.3138 23.4706 49.1474 23.1313 49.0804C22.7919 49.0134 22.4403 49.0488 22.1211 49.182C21.8019 49.3152 21.5295 49.5404 21.3385 49.8288C21.1475 50.1171 21.0466 50.4558 21.0485 50.8017C21.051 51.2611 21.2346 51.701 21.5595 52.0258C21.8844 52.3507 22.3242 52.5343 22.7836 52.5368V52.5368ZM22.7836 49.6609C23.0112 49.6609 23.2336 49.7283 23.4228 49.8547C23.6119 49.9811 23.7594 50.1608 23.8465 50.371C23.9335 50.5812 23.9563 50.8125 23.9119 51.0357C23.8675 51.2588 23.758 51.4638 23.5971 51.6247C23.4362 51.7856 23.2312 51.8951 23.0081 51.9395C22.7849 51.9839 22.5536 51.9611 22.3434 51.8741C22.1332 51.787 21.9536 51.6395 21.8272 51.4504C21.7008 51.2612 21.6333 51.0388 21.6333 50.8112C21.632 50.6594 21.6608 50.5088 21.7181 50.3681C21.7753 50.2274 21.8598 50.0994 21.9668 49.9916C22.0737 49.8838 22.201 49.7982 22.3412 49.7398C22.4814 49.6814 22.6318 49.6513 22.7836 49.6513V49.6609Z" fill="#F6EB86"/>
<path d="M56.2691 25.359H49.5586C49.4005 25.3783 49.255 25.4548 49.1494 25.574C49.0439 25.6932 48.9856 25.8469 48.9856 26.0061C48.9856 26.1654 49.0439 26.3191 49.1494 26.4383C49.255 26.5575 49.4005 26.6339 49.5586 26.6532H56.2691C56.3607 26.6644 56.4536 26.656 56.5417 26.6286C56.6298 26.6012 56.7111 26.5554 56.7802 26.4942C56.8493 26.433 56.9046 26.3579 56.9425 26.2737C56.9803 26.1896 56.9999 26.0984 56.9999 26.0061C56.9999 25.9139 56.9803 25.8226 56.9425 25.7385C56.9046 25.6544 56.8493 25.5793 56.7802 25.5181C56.7111 25.4569 56.6298 25.4111 56.5417 25.3837C56.4536 25.3563 56.3607 25.3479 56.2691 25.359V25.359ZM56.2691 26.0589H49.5586C49.5433 26.0589 49.5287 26.0528 49.5179 26.042C49.5071 26.0312 49.5011 26.0166 49.5011 26.0013C49.5011 25.9861 49.5071 25.9715 49.5179 25.9607C49.5287 25.9499 49.5433 25.9438 49.5586 25.9438H56.2691C56.2854 25.9437 56.3011 25.9494 56.3135 25.96C56.3258 25.9705 56.3339 25.9852 56.3362 26.0013C56.3362 26.0013 56.3075 26.0589 56.2691 26.0589V26.0589Z" fill="#F6EB86"/>
<path d="M34.0574 28.4172C33.9502 28.4151 33.8443 28.4416 33.7506 28.4939L29.4942 30.7659C29.3636 30.8308 29.259 30.9381 29.1975 31.0704C29.136 31.2026 29.1213 31.3519 29.1559 31.4935C29.1905 31.6352 29.2722 31.7609 29.3877 31.8499C29.5032 31.939 29.6456 31.986 29.7914 31.9834C29.8982 31.9819 30.0032 31.9557 30.0982 31.9067L34.3642 29.6347C34.5142 29.5534 34.6264 29.4165 34.6765 29.2533C34.7267 29.0902 34.711 28.914 34.6326 28.7623C34.5762 28.6588 34.4931 28.5722 34.392 28.5115C34.2909 28.4508 34.1753 28.4183 34.0574 28.4172V28.4172ZM34.0574 29.117L29.7627 31.3986L34.0287 29.1266C34.0376 29.1224 34.0475 29.1202 34.0574 29.1202C34.0674 29.1202 34.0772 29.1224 34.0862 29.1266C34.0979 29.1201 34.1111 29.1168 34.1245 29.117H34.0574Z" fill="#F6EB86"/>
<path d="M26.4458 26.6532H33.1563C33.2479 26.6644 33.3408 26.656 33.4289 26.6286C33.517 26.6012 33.5983 26.5554 33.6674 26.4942C33.7365 26.433 33.7918 26.3579 33.8296 26.2737C33.8675 26.1896 33.8871 26.0984 33.8871 26.0061C33.8871 25.9139 33.8675 25.8226 33.8296 25.7385C33.7918 25.6544 33.7365 25.5793 33.6674 25.5181C33.5983 25.4569 33.517 25.4111 33.4289 25.3837C33.3408 25.3563 33.2479 25.3479 33.1563 25.359H26.4458C26.2877 25.3783 26.1422 25.4548 26.0366 25.574C25.9311 25.6932 25.8728 25.8469 25.8728 26.0061C25.8728 26.1654 25.9311 26.3191 26.0366 26.4383C26.1422 26.5575 26.2877 26.6339 26.4458 26.6532ZM26.4458 25.9438H33.1563C33.1716 25.9438 33.1862 25.9499 33.197 25.9607C33.2078 25.9715 33.2138 25.9861 33.2138 26.0013C33.2157 26.0093 33.2155 26.0175 33.2132 26.0254C33.211 26.0332 33.2068 26.0403 33.201 26.0461C33.1953 26.0518 33.1882 26.056 33.1803 26.0583C33.1725 26.0605 33.1642 26.0607 33.1563 26.0589H26.4458C26.4378 26.0607 26.4296 26.0605 26.4218 26.0583C26.4139 26.056 26.4068 26.0518 26.4011 26.0461C26.3953 26.0403 26.3911 26.0332 26.3889 26.0254C26.3866 26.0175 26.3864 26.0093 26.3883 26.0013C26.3883 25.9861 26.3943 25.9715 26.4051 25.9607C26.4159 25.9499 26.4305 25.9438 26.4458 25.9438V25.9438Z" fill="#F6EB86"/>
<path d="M54.5533 39.6621C54.5533 38.8994 54.2503 38.1679 53.7109 37.6285C53.1716 37.0892 52.4401 36.7862 51.6773 36.7862H42.0908L44.0848 31.3411C44.3494 30.6389 44.3386 29.8627 44.0546 29.1682C43.7706 28.4737 43.2343 27.9123 42.5535 27.5968C41.8728 27.2813 41.0978 27.235 40.3843 27.4672C39.6708 27.6993 39.0715 28.1928 38.7068 28.8486L35.9747 33.6418C35.4297 34.6005 34.6632 35.4148 33.7393 36.0169C32.8154 36.6189 31.7609 36.9912 30.6637 37.1025H30.2803C30.2299 36.5193 29.9627 35.9762 29.5314 35.5805C29.1001 35.1847 28.5361 34.965 27.9508 34.9647H18.6423C18.472 34.9647 18.3086 35.0324 18.1881 35.1529C18.0677 35.2733 18 35.4367 18 35.607C18 35.7783 18.0673 35.9427 18.1875 36.0646C18.3077 36.1866 18.4711 36.2564 18.6423 36.2589H27.9508C28.2313 36.2589 28.5006 36.3697 28.6998 36.5672C28.8991 36.7647 29.0123 37.0329 29.0149 37.3134V53.783C29.0123 54.0636 28.8991 54.3318 28.6998 54.5293C28.5006 54.7268 28.2313 54.8375 27.9508 54.8375H18.6423C18.4711 54.8401 18.3077 54.9098 18.1875 55.0318C18.0673 55.1538 18 55.3182 18 55.4894C18 55.5738 18.0166 55.6573 18.0489 55.7352C18.0812 55.8131 18.1285 55.8839 18.1881 55.9436C18.2478 56.0032 18.3186 56.0505 18.3965 56.0828C18.4744 56.1151 18.558 56.1317 18.6423 56.1317H27.9508C28.5216 56.1296 29.0723 55.9205 29.5006 55.5432C29.929 55.166 30.206 54.6462 30.2803 54.0802C31.1355 54.4447 32.0091 54.7646 32.8974 55.0388H32.9837C35.2628 55.7455 37.634 56.1105 40.0202 56.1221H47.9098C48.4394 56.1319 48.9613 55.9953 49.4181 55.7273C49.875 55.4593 50.2489 55.0704 50.4988 54.6034C50.7486 54.1364 50.8647 53.6095 50.8341 53.0808C50.8036 52.552 50.6276 52.042 50.3256 51.6069H50.757C51.5198 51.6069 52.2513 51.3039 52.7906 50.7645C53.33 50.2252 53.633 49.4937 53.633 48.7309C53.634 48.024 53.3746 47.3415 52.9044 46.8137C53.3531 46.6082 53.7414 46.2906 54.0319 45.8917C54.3224 45.4927 54.5053 45.0257 54.5631 44.5355C54.6209 44.0454 54.5516 43.5486 54.3618 43.093C54.172 42.6374 53.8682 42.2383 53.4796 41.9341C53.8188 41.6613 54.0917 41.3152 54.2777 40.9216C54.4637 40.528 54.5579 40.0974 54.5533 39.6621ZM53.0865 41.4644L52.5113 41.9245L53.0865 42.3847C53.395 42.6273 53.6359 42.9452 53.7862 43.3077C53.9365 43.6702 53.9912 44.0652 53.945 44.4549C53.8988 44.8447 53.7533 45.216 53.5224 45.5333C53.2915 45.8506 52.983 46.1034 52.6264 46.2672L51.9266 46.6027L52.4347 47.1875C52.8087 47.6036 53.0168 48.1426 53.0194 48.7022C53.0169 49.3167 52.7717 49.9053 52.3372 50.3398C51.9026 50.7744 51.314 51.0196 50.6995 51.0221H49.1657L49.7792 51.9807C50.0361 52.3598 50.1731 52.8074 50.1722 53.2653C50.1697 53.8798 49.9245 54.4685 49.49 54.903C49.0554 55.3375 48.4668 55.5828 47.8523 55.5853H39.9626C37.6353 55.5726 35.3225 55.2173 33.0987 54.5308H33.0508C32.1803 54.2594 31.3258 53.9393 30.4912 53.5721L29.7722 53.2749L29.6763 54.0418C29.6227 54.4672 29.4161 54.8585 29.095 55.1425C28.7739 55.4266 28.3603 55.584 27.9316 55.5853H18.6231C18.6079 55.5853 18.5932 55.5792 18.5825 55.5684C18.5717 55.5576 18.5656 55.543 18.5656 55.5278C18.5656 55.5125 18.5717 55.4979 18.5825 55.4871C18.5932 55.4763 18.6079 55.4702 18.6231 55.4702H27.9316C28.1481 55.4702 28.3625 55.4276 28.5626 55.3447C28.7626 55.2618 28.9444 55.1404 29.0975 54.9873C29.2506 54.8342 29.3721 54.6524 29.455 54.4524C29.5378 54.2523 29.5805 54.0379 29.5805 53.8214V37.3326C29.5805 37.1161 29.5378 36.9017 29.455 36.7016C29.3721 36.5016 29.2506 36.3198 29.0975 36.1667C28.9444 36.0136 28.7626 35.8921 28.5626 35.8092C28.3625 35.7264 28.1481 35.6837 27.9316 35.6837H18.6231C18.6079 35.6837 18.5932 35.6777 18.5825 35.6669C18.5717 35.6561 18.5656 35.6415 18.5656 35.6262C18.5656 35.611 18.5717 35.5963 18.5825 35.5855C18.5932 35.5748 18.6079 35.5687 18.6231 35.5687H27.9316C28.3704 35.5672 28.7938 35.7311 29.1171 36.0279C29.4405 36.3246 29.6402 36.7322 29.6763 37.1696L29.7338 37.7544L30.3186 37.7065H30.7021C31.8883 37.5789 33.0276 37.1729 34.0272 36.5215C35.0267 35.8701 35.8582 34.9919 36.454 33.9582L39.1765 29.1649C39.4738 28.6465 39.9548 28.2584 40.5244 28.0774C41.094 27.8964 41.7108 27.9356 42.2528 28.1874C42.7948 28.4391 43.2227 28.8851 43.4519 29.437C43.681 29.989 43.6948 30.6069 43.4905 31.1685L41.4965 36.6136L41.2089 37.3997H51.6677C52.1479 37.3988 52.6165 37.5475 53.0082 37.8252C53.4 38.1029 53.6955 38.4957 53.8536 38.9491C54.0118 39.4025 54.0248 39.8939 53.8907 40.355C53.7567 40.8161 53.4823 41.224 53.1057 41.5219L53.0865 41.4644Z" fill="#F6EB86"/>
<path d="M51.6484 37.467H41.1033L40.9595 37.8505L40.8444 38.1476C40.8357 38.1527 40.8258 38.1553 40.8157 38.1553C40.8056 38.1553 40.7957 38.1527 40.7869 38.1476V38.1476C40.7869 38.1476 40.739 38.1476 40.7869 38.0709L43.3657 31.0441C43.4925 30.7001 43.5343 30.3306 43.4873 29.967C43.4404 29.6035 43.3062 29.2567 43.0961 28.9562C42.8861 28.6558 42.6065 28.4106 42.2812 28.2417C41.9559 28.0727 41.5945 27.985 41.2279 27.986C40.8279 27.9869 40.4353 28.0938 40.09 28.2959C39.7448 28.498 39.4593 28.788 39.2627 29.1363L36.5305 33.9296C35.9286 34.9878 35.0835 35.8874 34.0649 36.5542C33.0464 37.221 31.8838 37.6358 30.6732 37.7642L30.2035 37.8121H29.6666V53.0546L30.0117 53.208C30.7503 53.5405 31.5054 53.8349 32.2742 54.09L33.0507 54.3584V43.5928C33.0507 43.5775 33.0567 43.5629 33.0675 43.5521C33.0783 43.5413 33.0929 43.5352 33.1082 43.5352C33.1234 43.5352 33.138 43.5413 33.1488 43.5521C33.1596 43.5629 33.1657 43.5775 33.1657 43.5928V54.3872L33.5971 54.5022C35.664 55.1162 37.8064 55.4389 39.9625 55.4608H47.8522C48.4106 55.424 48.9341 55.1761 49.3165 54.7676C49.699 54.359 49.9118 53.8203 49.9118 53.2607C49.9118 52.7011 49.699 52.1624 49.3165 51.7539C48.9341 51.3453 48.4106 51.0975 47.8522 51.0606H44.6982C44.6821 51.0583 44.6674 51.0502 44.6569 51.0379C44.6463 51.0255 44.6405 51.0098 44.6407 50.9935C44.6407 50.9783 44.6468 50.9637 44.6576 50.9529C44.6683 50.9421 44.683 50.936 44.6982 50.936H50.6993C51.0005 50.9559 51.3025 50.9138 51.5867 50.8122C51.8709 50.7106 52.1312 50.5518 52.3515 50.3455C52.5718 50.1393 52.7475 49.89 52.8675 49.6132C52.9876 49.3363 53.0496 49.0377 53.0496 48.7359C53.0496 48.4341 52.9876 48.1356 52.8675 47.8587C52.7475 47.5818 52.5718 47.3325 52.3515 47.1263C52.1312 46.92 51.8709 46.7612 51.5867 46.6596C51.3025 46.5581 51.0005 46.5159 50.6993 46.5358H45.839C45.8238 46.5358 45.8091 46.5298 45.7983 46.519C45.7875 46.5082 45.7815 46.4936 45.7815 46.4783C45.7815 46.4631 45.7875 46.4484 45.7983 46.4376C45.8091 46.4268 45.8238 46.4208 45.839 46.4208H50.6993C50.874 46.4212 51.048 46.4438 51.217 46.4879H51.4567L51.6484 46.392C52.2068 46.3552 52.7303 46.1073 53.1128 45.6988C53.4952 45.2902 53.708 44.7515 53.708 44.1919C53.708 43.6323 53.4952 43.0936 53.1128 42.6851C52.7303 42.2765 52.2068 42.0287 51.6484 41.9918H45.3789C45.3626 41.992 45.3468 41.9862 45.3345 41.9757C45.3222 41.9651 45.3141 41.9504 45.3117 41.9343C45.3117 41.9343 45.3118 41.8768 45.3789 41.8768H51.6484C52.2068 41.8399 52.7303 41.5921 53.1128 41.1835C53.4952 40.775 53.708 40.2363 53.708 39.6767C53.708 39.1171 53.4952 38.5784 53.1128 38.1699C52.7303 37.7613 52.2068 37.5135 51.6484 37.4766V37.467ZM51.6484 41.3016H45.3789C45.206 41.3016 45.0402 41.3703 44.9179 41.4925C44.7957 41.6148 44.727 41.7806 44.727 41.9535C44.727 42.0386 44.7439 42.123 44.7768 42.2015C44.8097 42.2801 44.8578 42.3513 44.9185 42.4111C44.9792 42.4708 45.0511 42.5179 45.1301 42.5497C45.2092 42.5814 45.2937 42.597 45.3789 42.5958H51.6484C52.0553 42.6271 52.4354 42.8109 52.7127 43.1104C52.99 43.4099 53.144 43.803 53.144 44.2111C53.144 44.6192 52.99 45.0123 52.7127 45.3118C52.4354 45.6112 52.0553 45.795 51.6484 45.8264C51.5444 45.8255 51.4419 45.852 51.3512 45.9031C51.1375 45.8534 50.9188 45.8277 50.6993 45.8264H45.839C45.6687 45.8264 45.5053 45.8941 45.3849 46.0145C45.2644 46.135 45.1967 46.2984 45.1967 46.4687C45.1967 46.6391 45.2644 46.8024 45.3849 46.9229C45.5053 47.0433 45.6687 47.111 45.839 47.111H50.6993C51.1063 47.1424 51.4864 47.3262 51.7636 47.6257C52.0409 47.9251 52.1949 48.3182 52.1949 48.7263C52.1949 49.1345 52.0409 49.5275 51.7636 49.827C51.4864 50.1265 51.1063 50.3103 50.6993 50.3417H44.6982C44.5402 50.3609 44.3946 50.4374 44.2891 50.5566C44.1835 50.6758 44.1253 50.8295 44.1253 50.9887C44.1253 51.148 44.1835 51.3017 44.2891 51.4209C44.3946 51.5401 44.5402 51.6166 44.6982 51.6358H47.8522C48.2793 51.6358 48.689 51.8055 48.991 52.1075C49.293 52.4096 49.4627 52.8192 49.4627 53.2464C49.4627 53.6735 49.293 54.0831 48.991 54.3852C48.689 54.6872 48.2793 54.8569 47.8522 54.8569H39.9625C37.8606 54.8484 35.7699 54.5483 33.7504 53.9653V43.5928C33.7504 43.5084 33.7338 43.4249 33.7016 43.347C33.6693 43.269 33.622 43.1982 33.5623 43.1386C33.5027 43.079 33.4319 43.0317 33.3539 42.9994C33.276 42.9671 33.1925 42.9505 33.1082 42.9505C33.0238 42.9505 32.9403 42.9671 32.8624 42.9994C32.7844 43.0317 32.7136 43.079 32.654 43.1386C32.5943 43.1982 32.547 43.269 32.5147 43.347C32.4825 43.4249 32.4659 43.5084 32.4659 43.5928V53.5435C31.6414 53.2559 30.8937 52.9588 30.2514 52.6712V38.3873L30.7403 38.3394C32.0409 38.2059 33.2908 37.7641 34.3862 37.0504C35.4817 36.3368 36.391 35.3721 37.0386 34.2363L39.7708 29.4431C39.9107 29.1904 40.1132 28.9778 40.3589 28.8257C40.6046 28.6737 40.8852 28.5872 41.1738 28.5747C41.4624 28.5622 41.7495 28.624 42.0074 28.7543C42.2653 28.8845 42.4854 29.0788 42.6467 29.3185C42.804 29.5398 42.9038 29.7966 42.9373 30.066C42.9707 30.3354 42.9368 30.6089 42.8384 30.8619L40.2597 37.8888C40.2038 38.0516 40.2136 38.2299 40.2869 38.3856C40.3603 38.5413 40.4916 38.6623 40.6527 38.7228C40.7255 38.7373 40.8004 38.7373 40.8732 38.7228C41.0047 38.7216 41.1327 38.6807 41.2405 38.6054C41.3483 38.5301 41.4308 38.424 41.4772 38.301L41.5826 38.0039H51.6772C52.1043 38.0039 52.514 38.1735 52.816 38.4755C53.118 38.7776 53.2877 39.1872 53.2877 39.6144C53.2877 40.0415 53.118 40.4512 52.816 40.7532C52.514 41.0552 52.1043 41.2249 51.6772 41.2249L51.6484 41.3016Z" fill="#F6EB86"/>
<path d="M56.2691 25.359H49.5586C49.4005 25.3783 49.255 25.4548 49.1494 25.574C49.0439 25.6932 48.9856 25.8469 48.9856 26.0061C48.9856 26.1654 49.0439 26.3191 49.1494 26.4383C49.255 26.5575 49.4005 26.6339 49.5586 26.6532H56.2691C56.3607 26.6644 56.4536 26.656 56.5417 26.6286C56.6298 26.6012 56.7111 26.5554 56.7802 26.4942C56.8493 26.433 56.9046 26.3579 56.9425 26.2737C56.9803 26.1896 56.9999 26.0984 56.9999 26.0061C56.9999 25.9139 56.9803 25.8226 56.9425 25.7385C56.9046 25.6544 56.8493 25.5793 56.7802 25.5181C56.7111 25.4569 56.6298 25.4111 56.5417 25.3837C56.4536 25.3563 56.3607 25.3479 56.2691 25.359V25.359ZM56.2691 26.3177H49.5586C49.5078 26.3261 49.4558 26.3234 49.4061 26.3097C49.3565 26.296 49.3104 26.2717 49.2711 26.2384C49.2318 26.2051 49.2003 26.1636 49.1786 26.1169C49.157 26.0702 49.1458 26.0193 49.1458 25.9678C49.1458 25.9163 49.157 25.8654 49.1786 25.8187C49.2003 25.772 49.2318 25.7305 49.2711 25.6972C49.3104 25.6639 49.3565 25.6396 49.4061 25.6259C49.4558 25.6122 49.5078 25.6094 49.5586 25.6179H56.2691C56.3199 25.6094 56.3719 25.6122 56.4216 25.6259C56.4712 25.6396 56.5173 25.6639 56.5566 25.6972C56.5959 25.7305 56.6274 25.772 56.6491 25.8187C56.6707 25.8654 56.6819 25.9163 56.6819 25.9678C56.6819 26.0193 56.6707 26.0702 56.6491 26.1169C56.6274 26.1636 56.5959 26.2051 56.5566 26.2384C56.5173 26.2717 56.4712 26.296 56.4216 26.3097C56.3719 26.3234 56.3199 26.3261 56.2691 26.3177V26.3177Z" fill="#E59323"/>
<path d="M48.3126 29.6635L52.5786 31.9355C52.6736 31.9845 52.7786 32.0107 52.8854 32.0122C53.0276 32.0085 53.1647 31.9584 53.2758 31.8695C53.3868 31.7806 53.4658 31.6578 53.5005 31.5198C53.5353 31.3819 53.524 31.2363 53.4683 31.1054C53.4126 30.9745 53.3156 30.8654 53.1921 30.7947L48.9262 28.5227C48.8329 28.4695 48.7267 28.443 48.6194 28.446C48.5024 28.4457 48.3877 28.4777 48.2878 28.5387C48.188 28.5996 48.107 28.687 48.0538 28.7912C47.9747 28.9416 47.9575 29.117 48.0058 29.28C48.0542 29.4429 48.1642 29.5806 48.3126 29.6635V29.6635ZM48.3126 28.9254C48.3418 28.8688 48.3858 28.8212 48.4397 28.7875C48.4937 28.7537 48.5558 28.7351 48.6194 28.7336C48.677 28.7349 48.7332 28.7515 48.7823 28.7816L53.0483 31.0536C53.0899 31.0752 53.1267 31.105 53.1563 31.1413C53.186 31.1775 53.2079 31.2195 53.2209 31.2645C53.2356 31.3167 53.2381 31.3716 53.2282 31.425C53.2183 31.4783 53.1963 31.5287 53.1639 31.5722C53.1315 31.6157 53.0895 31.6513 53.0412 31.676C52.9929 31.7008 52.9396 31.7141 52.8854 31.7151C52.832 31.7293 52.7758 31.7293 52.7224 31.7151L48.4372 29.3759C48.3552 29.3298 48.2936 29.2545 48.2647 29.165C48.2528 29.1195 48.2509 29.0719 48.2592 29.0256C48.2675 28.9792 48.2857 28.9352 48.3126 28.8966V28.9254Z" fill="#E59323"/>
<path d="M29.5325 21.2465L33.7889 23.5185C33.8843 23.5662 33.989 23.5924 34.0957 23.5952C34.2136 23.5942 34.3291 23.5616 34.4302 23.5009C34.5314 23.4403 34.6145 23.3536 34.6709 23.2501C34.7492 23.0985 34.765 22.9222 34.7148 22.7591C34.6646 22.596 34.5524 22.459 34.4024 22.3777L30.1365 20.0769C30.0432 20.0237 29.937 19.9972 29.8297 20.0002C29.7127 19.9999 29.5979 20.0319 29.4981 20.0929C29.3983 20.1538 29.3172 20.2412 29.2641 20.3454C29.2194 20.4214 29.1908 20.5058 29.1801 20.5934C29.1695 20.681 29.177 20.7698 29.2021 20.8543C29.2273 20.9389 29.2696 21.0173 29.3265 21.0848C29.3833 21.1523 29.4535 21.2073 29.5325 21.2465V21.2465ZM29.5325 20.5083C29.5617 20.4518 29.6056 20.4041 29.6596 20.3704C29.7136 20.3367 29.7756 20.3181 29.8393 20.3166C29.8997 20.3191 29.9588 20.3355 30.0118 20.3645L34.2682 22.6365C34.3098 22.6581 34.3465 22.688 34.3762 22.7242C34.4059 22.7605 34.4278 22.8024 34.4408 22.8474C34.474 22.9338 34.474 23.0295 34.4408 23.1158C34.4095 23.172 34.3636 23.2187 34.3078 23.2507C34.2521 23.2828 34.1887 23.2992 34.1244 23.298C34.071 23.3122 34.0148 23.3122 33.9615 23.298L29.6667 21.0356C29.5847 20.9895 29.5231 20.9142 29.4941 20.8247C29.4724 20.7737 29.4637 20.7181 29.4687 20.6629C29.4737 20.6077 29.4924 20.5546 29.5229 20.5083H29.5325Z" fill="#E59323"/>
<path d="M48.6192 23.5952C48.726 23.5937 48.831 23.5675 48.926 23.5185L53.1919 21.2465C53.3154 21.1759 53.4124 21.0668 53.4681 20.9359C53.5238 20.8049 53.5351 20.6594 53.5003 20.5214C53.4656 20.3835 53.3866 20.2607 53.2756 20.1718C53.1645 20.0829 53.0274 20.0328 52.8852 20.0291C52.7778 20.026 52.6717 20.0525 52.5784 20.1057L48.3124 22.3777C48.238 22.4179 48.1723 22.4724 48.119 22.538C48.0657 22.6036 48.0259 22.6791 48.0019 22.7602C47.9778 22.8412 47.97 22.9262 47.9789 23.0103C47.9878 23.0944 48.0131 23.1759 48.0536 23.2501C48.1067 23.3543 48.1878 23.4417 48.2876 23.5026C48.3874 23.5636 48.5022 23.5956 48.6192 23.5952ZM48.2836 22.8475C48.2966 22.8025 48.3186 22.7605 48.3482 22.7243C48.3779 22.688 48.4146 22.6582 48.4562 22.6366L52.7222 20.3646C52.7713 20.3345 52.8276 20.3179 52.8852 20.3166C52.949 20.3171 53.0115 20.3353 53.0657 20.3691C53.1198 20.403 53.1635 20.4512 53.1919 20.5084C53.2104 20.5507 53.22 20.5964 53.22 20.6426C53.22 20.6888 53.2104 20.7345 53.1919 20.7768C53.163 20.8663 53.1014 20.9416 53.0194 20.9877L48.7534 23.2597C48.7 23.2739 48.6438 23.2739 48.5904 23.2597C48.5275 23.2602 48.4657 23.2434 48.4117 23.2113C48.3576 23.1792 48.3133 23.133 48.2836 23.0776C48.2565 23.0033 48.2565 22.9218 48.2836 22.8475V22.8475Z" fill="#E59323"/>
<path d="M26.4458 26.6532H33.1563C33.2479 26.6644 33.3408 26.656 33.4289 26.6286C33.517 26.6012 33.5983 26.5554 33.6674 26.4942C33.7365 26.433 33.7918 26.3579 33.8296 26.2737C33.8675 26.1896 33.8871 26.0984 33.8871 26.0061C33.8871 25.9139 33.8675 25.8226 33.8296 25.7385C33.7918 25.6544 33.7365 25.5793 33.6674 25.5181C33.5983 25.4569 33.517 25.4111 33.4289 25.3837C33.3408 25.3563 33.2479 25.3479 33.1563 25.359H26.4458C26.2877 25.3783 26.1422 25.4548 26.0366 25.574C25.9311 25.6932 25.8728 25.8469 25.8728 26.0061C25.8728 26.1654 25.9311 26.3191 26.0366 26.4383C26.1422 26.5575 26.2877 26.6339 26.4458 26.6532ZM26.4458 25.6946H33.1563C33.2071 25.6861 33.2592 25.6889 33.3088 25.7026C33.3584 25.7163 33.4045 25.7406 33.4438 25.7739C33.4831 25.8072 33.5146 25.8487 33.5363 25.8954C33.5579 25.9421 33.5691 25.993 33.5691 26.0445C33.5691 26.096 33.5579 26.1469 33.5363 26.1936C33.5146 26.2403 33.4831 26.2818 33.4438 26.3151C33.4045 26.3484 33.3584 26.3727 33.3088 26.3864C33.2592 26.4001 33.2071 26.4028 33.1563 26.3944H26.4458C26.395 26.4028 26.3429 26.4001 26.2933 26.3864C26.2437 26.3727 26.1976 26.3484 26.1583 26.3151C26.119 26.2818 26.0875 26.2403 26.0658 26.1936C26.0442 26.1469 26.0329 26.096 26.0329 26.0445C26.0329 25.993 26.0442 25.9421 26.0658 25.8954C26.0875 25.8487 26.119 25.8072 26.1583 25.7739C26.1976 25.7406 26.2437 25.7163 26.2933 25.7026C26.3429 25.6889 26.395 25.6861 26.4458 25.6946V25.6946Z" fill="#E59323"/>
<path d="M20.3391 50.8017C20.3391 51.2852 20.4825 51.7578 20.7511 52.1599C21.0197 52.5619 21.4015 52.8752 21.8482 53.0602C22.2949 53.2452 22.7864 53.2936 23.2606 53.1993C23.7348 53.105 24.1703 52.8722 24.5122 52.5303C24.8541 52.1884 25.0869 51.7528 25.1812 51.2786C25.2756 50.8044 25.2272 50.3129 25.0421 49.8662C24.8571 49.4196 24.5438 49.0378 24.1418 48.7692C23.7398 48.5005 23.2671 48.3572 22.7837 48.3572C22.1361 48.3597 21.5158 48.6181 21.0579 49.076C20.6 49.5339 20.3416 50.1542 20.3391 50.8017V50.8017ZM22.7837 48.6544C23.2084 48.6544 23.6235 48.7803 23.9767 49.0162C24.3298 49.2522 24.605 49.5876 24.7676 49.98C24.9301 50.3723 24.9726 50.8041 24.8898 51.2207C24.8069 51.6372 24.6024 52.0198 24.3021 52.3201C24.0018 52.6205 23.6191 52.825 23.2026 52.9078C22.786 52.9907 22.3543 52.9482 21.9619 52.7856C21.5695 52.6231 21.2341 52.3479 20.9982 51.9947C20.7622 51.6416 20.6363 51.2264 20.6363 50.8017C20.6363 50.2322 20.8625 49.686 21.2652 49.2833C21.6679 48.8806 22.2141 48.6544 22.7837 48.6544Z" fill="#E59323"/>
<path d="M54.5533 39.6621C54.5533 38.8994 54.2503 38.1679 53.7109 37.6285C53.1716 37.0892 52.4401 36.7862 51.6773 36.7862H42.0908L44.0848 31.3411C44.3494 30.6389 44.3386 29.8627 44.0546 29.1682C43.7706 28.4737 43.2343 27.9123 42.5535 27.5968C41.8728 27.2813 41.0978 27.235 40.3843 27.4672C39.6708 27.6993 39.0715 28.1928 38.7068 28.8486L35.9747 33.6418C35.4297 34.6005 34.6632 35.4148 33.7393 36.0169C32.8154 36.6189 31.7609 36.9912 30.6637 37.1025H30.2803C30.2299 36.5193 29.9627 35.9762 29.5314 35.5805C29.1001 35.1847 28.5361 34.965 27.9508 34.9647H18.6423C18.472 34.9647 18.3086 35.0324 18.1881 35.1529C18.0677 35.2733 18 35.4367 18 35.607C18 35.7783 18.0673 35.9427 18.1875 36.0646C18.3077 36.1866 18.4711 36.2564 18.6423 36.2589H27.9508C28.2313 36.2589 28.5006 36.3697 28.6998 36.5672C28.8991 36.7647 29.0123 37.0329 29.0149 37.3134V53.783C29.0123 54.0636 28.8991 54.3318 28.6998 54.5293C28.5006 54.7268 28.2313 54.8375 27.9508 54.8375H18.6423C18.4711 54.8401 18.3077 54.9098 18.1875 55.0318C18.0673 55.1538 18 55.3182 18 55.4894C18 55.5738 18.0166 55.6573 18.0489 55.7352C18.0812 55.8131 18.1285 55.8839 18.1881 55.9436C18.2478 56.0032 18.3186 56.0505 18.3965 56.0828C18.4744 56.1151 18.558 56.1317 18.6423 56.1317H27.9508C28.5216 56.1296 29.0723 55.9205 29.5006 55.5432C29.929 55.166 30.206 54.6462 30.2803 54.0802C31.1355 54.4447 32.0091 54.7646 32.8974 55.0388H32.9837C35.2628 55.7455 37.634 56.1105 40.0202 56.1221H47.9098C48.4394 56.1319 48.9613 55.9953 49.4181 55.7273C49.875 55.4593 50.2489 55.0704 50.4988 54.6034C50.7486 54.1364 50.8647 53.6095 50.8341 53.0808C50.8036 52.552 50.6276 52.042 50.3256 51.6069H50.757C51.5198 51.6069 52.2513 51.3039 52.7906 50.7645C53.33 50.2252 53.633 49.4937 53.633 48.7309C53.634 48.024 53.3746 47.3415 52.9044 46.8137C53.3531 46.6082 53.7414 46.2906 54.0319 45.8917C54.3224 45.4927 54.5053 45.0257 54.5631 44.5355C54.6209 44.0454 54.5516 43.5486 54.3618 43.093C54.172 42.6374 53.8682 42.2383 53.4796 41.9341C53.8188 41.6613 54.0917 41.3152 54.2777 40.9216C54.4637 40.528 54.5579 40.0974 54.5533 39.6621ZM53.2303 41.6944L52.9427 41.9245L53.2303 42.1546C53.5313 42.3985 53.7737 42.7069 53.9396 43.057C54.1055 43.4071 54.1907 43.79 54.189 44.1774C54.1869 44.6726 54.0444 45.157 53.778 45.5745C53.5116 45.9919 53.1322 46.3252 52.6839 46.5356L52.3388 46.6986L52.588 46.9958C53.0062 47.466 53.2381 48.0729 53.2399 48.7022C53.2399 49.0446 53.1725 49.3837 53.0414 49.7C52.9104 50.0164 52.7183 50.3038 52.4762 50.546C52.234 50.7881 51.9466 50.9802 51.6302 51.1112C51.3139 51.2423 50.9748 51.3097 50.6324 51.3097H49.6737L49.9805 51.7698C50.2425 52.1623 50.393 52.6186 50.4161 53.0899C50.4392 53.5612 50.3339 54.03 50.1116 54.4462C49.8892 54.8624 49.558 55.2104 49.1534 55.4532C48.7488 55.6961 48.2859 55.8245 47.814 55.8249H39.9243C37.5678 55.8139 35.2259 55.4553 32.9741 54.7608H32.8878C32.008 54.4893 31.1439 54.1693 30.2994 53.8022L29.9352 53.6584L29.8872 54.0418C29.8263 54.5375 29.5858 54.9936 29.2113 55.3239C28.8368 55.6543 28.3543 55.8359 27.8549 55.8345H18.5464C18.454 55.8345 18.3652 55.7985 18.2989 55.734C18.2327 55.6696 18.1942 55.5818 18.1917 55.4894C18.1942 55.3961 18.2323 55.3073 18.2983 55.2413C18.3643 55.1753 18.4531 55.1371 18.5464 55.1347H27.8549C28.2143 55.1347 28.5591 54.9926 28.8141 54.7394C29.0691 54.4862 29.2137 54.1424 29.2162 53.783V37.3326C29.2137 36.9732 29.0691 36.6295 28.8141 36.3762C28.5591 36.123 28.2143 35.9809 27.8549 35.9809H18.5464C18.4956 35.9893 18.4436 35.9866 18.394 35.9729C18.3443 35.9592 18.2983 35.9349 18.259 35.9016C18.2197 35.8683 18.1881 35.8268 18.1665 35.7801C18.1448 35.7334 18.1336 35.6825 18.1336 35.631C18.1336 35.5795 18.1448 35.5286 18.1665 35.4819C18.1881 35.4352 18.2197 35.3937 18.259 35.3604C18.2983 35.3271 18.3443 35.3028 18.394 35.2891C18.4436 35.2754 18.4956 35.2726 18.5464 35.2811H27.8549C28.3663 35.279 28.8599 35.469 29.238 35.8134C29.6161 36.1578 29.8512 36.6315 29.8968 37.1409V37.438H30.1844H30.5679C31.7107 37.3222 32.8094 36.9357 33.773 36.3105C34.7366 35.6853 35.5374 34.8395 36.1089 33.8431L38.8314 29.0499C39.166 28.4673 39.7067 28.0314 40.347 27.8281C40.9873 27.6249 41.6805 27.6691 42.2898 27.9521C42.8991 28.235 43.3801 28.7362 43.6379 29.3565C43.8957 29.9768 43.9115 30.6713 43.6822 31.3027L41.7265 36.6615L41.5828 37.0546H51.6198C52.1611 37.0517 52.6899 37.2179 53.1321 37.5302C53.5744 37.8424 53.908 38.285 54.0865 38.7961C54.265 39.3072 54.2793 39.8613 54.1275 40.3809C53.9757 40.9005 53.6654 41.3598 53.2399 41.6944H53.2303Z" fill="#E59323"/>
<path d="M22.7837 52.2397C23.0708 52.2416 23.352 52.1581 23.5915 51.9997C23.831 51.8414 24.018 51.6154 24.1288 51.3505C24.2395 51.0857 24.269 50.7938 24.2135 50.5121C24.1579 50.2304 24.0199 49.9716 23.8168 49.7686C23.6138 49.5656 23.355 49.4275 23.0733 49.372C22.7916 49.3164 22.4998 49.3459 22.2349 49.4566C21.97 49.5674 21.744 49.7544 21.5857 49.9939C21.4274 50.2334 21.3438 50.5146 21.3457 50.8017C21.3482 51.1823 21.5006 51.5466 21.7697 51.8157C22.0388 52.0849 22.4031 52.2372 22.7837 52.2397V52.2397ZM22.7837 49.6513C23.0112 49.6513 23.2336 49.7188 23.4228 49.8452C23.612 49.9716 23.7595 50.1513 23.8465 50.3615C23.9336 50.5717 23.9564 50.803 23.912 51.0262C23.8676 51.2493 23.758 51.4543 23.5972 51.6152C23.4363 51.776 23.2313 51.8856 23.0082 51.93C22.785 51.9744 22.5537 51.9516 22.3435 51.8645C22.1333 51.7775 21.9536 51.63 21.8272 51.4408C21.7008 51.2516 21.6333 51.0292 21.6333 50.8017C21.6333 50.4966 21.7545 50.204 21.9703 49.9883C22.186 49.7725 22.4786 49.6513 22.7837 49.6513V49.6513Z" fill="#E59323"/>
<path d="M51.6486 37.7544H41.3527L41.2856 37.9461L41.1705 38.2433C41.148 38.3115 41.1041 38.3706 41.0455 38.412C40.9868 38.4534 40.9164 38.4749 40.8446 38.4733H40.72C40.6327 38.4409 40.5617 38.3755 40.5223 38.2912C40.4828 38.2069 40.4781 38.1105 40.5091 38.0228L43.0878 30.9863C43.2032 30.689 43.2425 30.3676 43.2024 30.0512C43.1622 29.7348 43.0438 29.4335 42.8577 29.1745C42.6658 28.9011 42.4081 28.6806 42.1083 28.5334C41.8085 28.3863 41.4764 28.3171 41.1428 28.3324C40.8092 28.3477 40.4848 28.4469 40.1998 28.621C39.9147 28.795 39.6782 29.0381 39.5121 29.3278L36.7895 34.1211C36.1652 35.2167 35.2877 36.147 34.2303 36.8342C33.173 37.5213 31.9665 37.9453 30.7117 38.0707L30.2228 38.1186H29.9543V52.8627L30.1269 52.9393C30.8171 53.2461 31.5745 53.5433 32.3701 53.8117L32.7536 53.9459V43.5925C32.7536 43.4984 32.791 43.4082 32.8575 43.3417C32.924 43.2752 33.0142 43.2378 33.1083 43.2378C33.2024 43.2378 33.2926 43.2752 33.3591 43.3417C33.4256 43.4082 33.463 43.4984 33.463 43.5925V54.1376L33.6739 54.2048C35.7193 54.7903 37.8351 55.0935 39.9626 55.1059H47.8523C48.3608 55.1059 48.8485 54.9039 49.208 54.5443C49.5676 54.1848 49.7696 53.6971 49.7696 53.1886C49.7696 52.6801 49.5676 52.1924 49.208 51.8329C48.8485 51.4733 48.3608 51.2713 47.8523 51.2713H44.6984C44.6155 51.2575 44.5402 51.2148 44.4859 51.1507C44.4316 51.0867 44.4018 51.0054 44.4018 50.9214C44.4018 50.8374 44.4316 50.7561 44.4859 50.692C44.5402 50.628 44.6155 50.5852 44.6984 50.5715H50.6995C51.208 50.5715 51.6957 50.3695 52.0552 50.0099C52.4148 49.6504 52.6168 49.1627 52.6168 48.6542C52.6168 48.1457 52.4148 47.658 52.0552 47.2984C51.6957 46.9389 51.208 46.7369 50.6995 46.7369H45.8392C45.7451 46.7369 45.6549 46.6995 45.5883 46.633C45.5218 46.5665 45.4845 46.4763 45.4845 46.3822C45.4845 46.2881 45.5218 46.1979 45.5883 46.1314C45.6549 46.0649 45.7451 46.0275 45.8392 46.0275H50.6995C50.8966 46.0313 51.0928 46.057 51.2843 46.1042H51.3897L51.4856 46.0563C51.5358 46.0286 51.5914 46.0122 51.6486 46.0083C52.1571 46.0083 52.6447 45.8063 53.0043 45.4467C53.3639 45.0872 53.5659 44.5995 53.5659 44.091C53.5659 43.5825 53.3639 43.0948 53.0043 42.7353C52.6447 42.3757 52.1571 42.1737 51.6486 42.1737H45.379C45.3329 42.175 45.287 42.167 45.244 42.1502C45.201 42.1335 45.1618 42.1083 45.1287 42.0761C45.0957 42.0439 45.0694 42.0054 45.0514 41.9629C45.0335 41.9204 45.0243 41.8747 45.0243 41.8286C45.0243 41.7345 45.0617 41.6443 45.1282 41.5778C45.1947 41.5113 45.2849 41.4739 45.379 41.4739H51.6486C52.1571 41.4739 52.6447 41.2719 53.0043 40.9124C53.3639 40.5528 53.5659 40.0651 53.5659 39.5566C53.5659 39.0481 53.3639 38.5604 53.0043 38.2009C52.6447 37.8413 52.1571 37.6393 51.6486 37.6393V37.7544ZM51.6486 41.2726H45.379C45.2061 41.2726 45.0403 41.3413 44.918 41.4635C44.7958 41.5858 44.7271 41.7516 44.7271 41.9245C44.7271 42.0096 44.744 42.094 44.7769 42.1725C44.8098 42.2511 44.858 42.3223 44.9186 42.3821C44.9793 42.4418 45.0512 42.4889 45.1303 42.5207C45.2093 42.5524 45.2938 42.568 45.379 42.5668H51.6486C52.0555 42.5981 52.4355 42.7819 52.7128 43.0814C52.9901 43.3809 53.1441 43.774 53.1441 44.1821C53.1441 44.5902 52.9901 44.9833 52.7128 45.2828C52.4355 45.5822 52.0555 45.766 51.6486 45.7974C51.5445 45.7965 51.442 45.823 51.3514 45.8741C51.1376 45.8244 50.9189 45.7987 50.6995 45.7974H45.8392C45.6688 45.7974 45.5054 45.8651 45.385 45.9855C45.2645 46.106 45.1968 46.2694 45.1968 46.4397C45.1968 46.6101 45.2645 46.7734 45.385 46.8939C45.5054 47.0143 45.6688 47.082 45.8392 47.082H50.6995C51.1064 47.1134 51.4865 47.2972 51.7638 47.5966C52.041 47.8961 52.1951 48.2892 52.1951 48.6973C52.1951 49.1055 52.041 49.4985 51.7638 49.798C51.4865 50.0975 51.1064 50.2813 50.6995 50.3127H44.6984C44.5403 50.3319 44.3948 50.4084 44.2892 50.5276C44.1837 50.6468 44.1254 50.8005 44.1254 50.9597C44.1254 51.119 44.1837 51.2727 44.2892 51.3919C44.3948 51.5111 44.5403 51.5876 44.6984 51.6068H47.8523C48.2795 51.6068 48.6891 51.7765 48.9911 52.0785C49.2932 52.3806 49.4628 52.7902 49.4628 53.2174C49.4628 53.6445 49.2932 54.0541 48.9911 54.3562C48.6891 54.6582 48.2795 54.8279 47.8523 54.8279H39.9626C37.8607 54.8194 35.7701 54.5193 33.7506 53.9363V43.5925C33.7506 43.5082 33.734 43.4246 33.7017 43.3467C33.6694 43.2688 33.6221 43.198 33.5625 43.1384C33.5028 43.0787 33.432 43.0314 33.3541 42.9991C33.2762 42.9668 33.1927 42.9502 33.1083 42.9502C33.024 42.9502 32.9404 42.9668 32.8625 42.9991C32.7846 43.0314 32.7138 43.0787 32.6541 43.1384C32.5945 43.198 32.5472 43.2688 32.5149 43.3467C32.4826 43.4246 32.466 43.5082 32.466 43.5925V53.5433C31.6416 53.2557 30.8938 52.9585 30.2515 52.6709V38.3871L30.7404 38.3391C32.041 38.2057 33.2909 37.7638 34.3864 37.0502C35.4818 36.3366 36.3911 35.3718 37.0387 34.2361L39.7709 29.4429C39.9108 29.1901 40.1134 28.9775 40.359 28.8255C40.6047 28.6734 40.8853 28.587 41.1739 28.5745C41.4626 28.562 41.7496 28.6238 42.0075 28.754C42.2654 28.8843 42.4856 29.0785 42.6468 29.3182C42.8041 29.5395 42.9039 29.7964 42.9374 30.0658C42.9709 30.3352 42.9369 30.6086 42.8386 30.8617L40.2598 37.8885C40.2039 38.0514 40.2137 38.2296 40.2871 38.3853C40.3605 38.5411 40.4917 38.6621 40.6529 38.7226C40.7256 38.7371 40.8006 38.7371 40.8733 38.7226C41.0048 38.7214 41.1328 38.6804 41.2406 38.6052C41.3484 38.5299 41.4309 38.4238 41.4773 38.3008L41.5828 38.0036H51.6773C52.1045 38.0036 52.5141 38.1733 52.8161 38.4753C53.1182 38.7773 53.2878 39.187 53.2878 39.6141C53.2878 40.0413 53.1182 40.4509 52.8161 40.7529C52.5141 41.055 52.1045 41.2247 51.6773 41.2247L51.6486 41.2726Z" fill="#E59323"/>
<path d="M34.0574 28.4172C33.9502 28.4151 33.8443 28.4416 33.7506 28.4939L29.4942 30.7659C29.3636 30.8308 29.259 30.9381 29.1975 31.0704C29.136 31.2026 29.1213 31.3519 29.1559 31.4935C29.1905 31.6352 29.2722 31.7609 29.3877 31.8499C29.5032 31.939 29.6456 31.986 29.7914 31.9834C29.8982 31.9819 30.0032 31.9557 30.0982 31.9067L34.3642 29.6347C34.5142 29.5534 34.6264 29.4165 34.6765 29.2533C34.7267 29.0902 34.711 28.914 34.6326 28.7623C34.5762 28.6588 34.4931 28.5722 34.392 28.5115C34.2909 28.4508 34.1753 28.4183 34.0574 28.4172V28.4172ZM34.3929 29.165C34.364 29.2545 34.3024 29.3298 34.2204 29.3759L29.964 31.6479C29.9073 31.6613 29.8481 31.6613 29.7914 31.6479C29.7285 31.6484 29.6668 31.6316 29.6127 31.5995C29.5586 31.5674 29.5144 31.5212 29.4847 31.4657C29.4662 31.4234 29.4566 31.3777 29.4566 31.3315C29.4566 31.2853 29.4662 31.2397 29.4847 31.1973C29.4976 31.1523 29.5196 31.1104 29.5492 31.0741C29.5789 31.0379 29.6156 31.008 29.6572 30.9864L33.9232 28.7144C33.9668 28.7019 34.0125 28.6987 34.0574 28.7048C34.1135 28.7032 34.1691 28.7152 34.2195 28.7399C34.2698 28.7646 34.3134 28.8011 34.3465 28.8465C34.3795 28.8918 34.401 28.9445 34.4091 29C34.4172 29.0555 34.4117 29.1121 34.3929 29.165Z" fill="#E59323"/>
<path d="M26.762 48.8364C26.8472 48.8364 26.9315 48.8194 27.0101 48.7866C27.0886 48.7537 27.1599 48.7055 27.2196 48.6449C27.2794 48.5842 27.3265 48.5123 27.3582 48.4332C27.3899 48.3542 27.4056 48.2696 27.4043 48.1845V38.2912C27.4043 38.1209 27.3367 37.9575 27.2162 37.8371C27.0958 37.7166 26.9324 37.6489 26.762 37.6489H22.5536C22.3832 37.6489 22.2199 37.7166 22.0994 37.8371C21.9789 37.9575 21.9113 38.1209 21.9113 38.2912C21.9113 38.4616 21.9789 38.6249 22.0994 38.7454C22.2199 38.8659 22.3832 38.9335 22.5536 38.9335H26.0814V48.2228C26.0913 48.3941 26.1683 48.5545 26.2957 48.6694C26.4231 48.7842 26.5907 48.8442 26.762 48.8364V48.8364ZM22.5536 38.6268C22.4595 38.6268 22.3693 38.5894 22.3028 38.5229C22.2362 38.4564 22.1989 38.3661 22.1989 38.2721C22.1989 38.178 22.2362 38.0878 22.3028 38.0213C22.3693 37.9547 22.4595 37.9173 22.5536 37.9173H26.7333C26.8266 37.9198 26.9154 37.9579 26.9814 38.0239C27.0474 38.0899 27.0856 38.1788 27.088 38.2721V48.2037C27.088 48.2977 27.0506 48.3879 26.9841 48.4545C26.9176 48.521 26.8273 48.5583 26.7333 48.5583C26.6392 48.5583 26.549 48.521 26.4824 48.4545C26.4159 48.3879 26.3786 48.2977 26.3786 48.2037V38.6172H22.544L22.5536 38.6268Z" fill="#E59323"/>
</g>
<defs>
<filter id="filter0_d_301_8" x="10" y="16" width="54.9999" height="52.1317" filterUnits="userSpaceOnUse" color-interpolation-filters="sRGB">
<feFlood flood-opacity="0" result="BackgroundImageFix"/>
<feColorMatrix in="SourceAlpha" type="matrix" values="0 0 0 0 0 0 0 0 0 0 0 0 0 0 0 0 0 0 127 0" result="hardAlpha"/>
<feOffset dy="4"/>
<feGaussianBlur stdDeviation="4"/>
<feComposite in2="hardAlpha" operator="out"/>
<feColorMatrix type="matrix" values="0 0 0 0 0.873737 0 0 0 0 0 0 0 0 0 1 0 0 0 0.6 0"/>
<feBlend mode="normal" in2="BackgroundImageFix" result="effect1_dropShadow_301_8"/>
<feBlend mode="normal" in="SourceGraphic" in2="effect1_dropShadow_301_8" result="shape"/>
</filter>
<radialGradient id="paint0_diamond_301_8" cx="0" cy="0" r="1" gradientUnits="userSpaceOnUse" gradientTransform="translate(37.5 37.5) rotate(45.9496) scale(64.0019 66.4472)">
<stop offset="0.553067" stop-color="#5B0C88"/>
<stop offset="0.755325" stop-color="#340450"/>
</radialGradient>
</defs>
</svg>
