<svg width="75" height="75" viewBox="0 0 75 75" fill="none" xmlns="http://www.w3.org/2000/svg">
<rect width="75" height="75" rx="7" fill="url(#paint0_diamond_301_11)"/>
<path d="M53.422 55.1677H48.8245V54.9434C48.7289 54.19 48.4162 53.4806 47.9246 52.9017C47.433 52.3228 46.7837 51.8994 46.0557 51.6829L41.2943 50.2252V50.0527C41.1942 49.1497 41.1942 48.2385 41.2943 47.3356L41.3892 46.6542V46.6024C41.7309 46.121 41.9145 45.5453 41.9145 44.9549C41.9145 44.3646 41.7309 43.7888 41.3892 43.3074V43.2557L41.2943 42.5742C41.1125 41.3394 41.2008 40.0798 41.5531 38.8824V38.7789L41.648 38.7272C43.1868 37.6675 44.3852 36.1844 45.0983 34.4575L45.1414 34.3713L46.5387 33.7761C48.3299 33.023 49.8586 31.7575 50.9328 30.1385C52.0071 28.5194 52.579 26.619 52.5767 24.676V19.5524C52.5767 19.4677 52.5431 19.3866 52.4832 19.3267C52.4234 19.2669 52.3422 19.2332 52.2575 19.2332C51.3874 19.2355 50.5537 19.5828 49.9393 20.1988C49.3248 20.8149 48.9798 21.6495 48.9798 22.5196V24.8313C48.9789 25.6292 48.8058 26.4176 48.4723 27.1426C48.1389 27.8675 47.6529 28.512 47.0476 29.032L46.5387 29.4633L46.6077 28.7991C46.6917 28.04 46.7349 27.277 46.7371 26.5133V19.5524C46.7365 19.5014 46.7236 19.4512 46.6996 19.4062C46.6756 19.3612 46.6411 19.3226 46.5991 19.2936C46.5461 19.256 46.483 19.2349 46.418 19.2332C46.381 19.2253 46.3428 19.2253 46.3058 19.2332C41.6081 21.161 36.34 21.161 31.6422 19.2332C31.6053 19.2253 31.5671 19.2253 31.5301 19.2332C31.4651 19.2349 31.402 19.256 31.349 19.2936C31.307 19.3226 31.2725 19.3612 31.2485 19.4062C31.2245 19.4512 31.2116 19.5014 31.211 19.5524V26.5133C31.213 27.277 31.2562 28.04 31.3403 28.7991L31.4094 29.4633L30.9005 29.032C30.2952 28.512 29.8092 27.8675 29.4758 27.1426C29.1423 26.4176 28.9692 25.6292 28.9683 24.8313V22.5196C28.9683 21.6495 28.6233 20.8149 28.0088 20.1988C27.3944 19.5828 26.5607 19.2355 25.6906 19.2332C25.6059 19.2332 25.5247 19.2669 25.4649 19.3267C25.405 19.3866 25.3714 19.4677 25.3714 19.5524V24.676C25.3691 26.619 25.941 28.5194 27.0153 30.1385C28.0895 31.7575 29.6182 33.023 31.4094 33.7761L32.8153 34.3713V34.4575C33.5379 36.1913 34.7523 37.6756 36.3087 38.7272L36.395 38.7789V38.8824C36.7473 40.0798 36.8356 41.3394 36.6537 42.5742L36.5589 43.2557V43.3074C36.222 43.7907 36.0413 44.3657 36.0413 44.9549C36.0413 45.5441 36.222 46.1191 36.5589 46.6024V46.6542L36.6537 47.3356C36.7582 48.2383 36.7582 49.15 36.6537 50.0527V50.2252L31.8924 51.6829C31.1644 51.8994 30.5151 52.3228 30.0235 52.9017C29.5319 53.4806 29.2192 54.19 29.1235 54.9434V55.1677H24.5347C24.4501 55.1677 24.3689 55.2013 24.3091 55.2611C24.2492 55.321 24.2156 55.4022 24.2156 55.4868C24.2156 55.5715 24.2492 55.6526 24.3091 55.7125C24.3689 55.7723 24.4501 55.806 24.5347 55.806H53.422C53.5066 55.806 53.5878 55.7723 53.6477 55.7125C53.7075 55.6526 53.7411 55.5715 53.7411 55.4868C53.7411 55.4022 53.7075 55.321 53.6477 55.2611C53.5878 55.2013 53.5066 55.1677 53.422 55.1677V55.1677ZM46.4266 30.3689V30.2482L46.5301 30.1878C47.4706 29.6448 48.2517 28.8641 48.7952 27.9239C49.3388 26.9838 49.6255 25.9172 49.6267 24.8313V22.5196C49.6223 21.9265 49.8171 21.349 50.18 20.8798C50.5428 20.4106 51.0527 20.0768 51.6279 19.9319L51.9556 19.8543V24.6588C51.958 26.4767 51.423 28.2549 50.4178 29.7696C49.4125 31.2844 47.982 32.4682 46.3058 33.1723L45.5468 33.5001L45.7365 32.9394C46.0296 32.1008 46.2603 31.2416 46.4266 30.3689V30.3689ZM31.7112 33.2327C30.0351 32.5286 28.6046 31.3448 27.5993 29.83C26.5941 28.3153 26.059 26.5371 26.0615 24.7192V19.9147L26.3979 19.9923C26.9714 20.1388 27.4794 20.4733 27.8405 20.9424C28.2017 21.4114 28.3953 21.988 28.3904 22.58V24.8917C28.3916 25.9776 28.6783 27.0442 29.2218 27.9843C29.7653 28.9245 30.5465 29.7052 31.487 30.2482L31.5905 30.3086V30.4293C31.7475 31.3071 31.9695 32.1721 32.2547 33.017L32.4444 33.5691L31.7112 33.2327ZM36.8866 38.3477C35.2833 37.327 34.0544 35.8136 33.3846 34.0348C32.8391 32.7523 32.451 31.4084 32.2288 30.0326C32.0326 28.893 31.9345 27.7386 31.9355 26.5823V23.339L32.2892 23.4684C34.4683 24.2444 36.7644 24.6412 39.0775 24.6415C39.621 24.6415 40.173 24.6415 40.7078 24.5811C40.7907 24.5704 40.8671 24.5307 40.9234 24.469C40.9754 24.4031 41.0001 24.3197 40.9924 24.2361C40.9858 24.153 40.9469 24.0757 40.884 24.0209C40.8211 23.9661 40.7393 23.9381 40.6561 23.9428V23.9428C40.1385 23.9428 39.6123 24.0118 39.0862 24.0118C36.7003 24.0143 34.3345 23.5757 32.108 22.718L31.9355 22.6576V20.0699L32.2892 20.1907C36.6629 21.766 41.4491 21.766 45.8228 20.1907L46.1765 20.0699V22.6576L46.0039 22.718C45.091 23.0797 44.1507 23.3682 43.192 23.5806C43.1163 23.5985 43.0497 23.6435 43.0048 23.7071C42.9599 23.7707 42.9398 23.8485 42.9483 23.9259C42.9568 24.0033 42.9932 24.0749 43.0508 24.1272C43.1084 24.1796 43.1832 24.2091 43.261 24.2102H43.33C44.1758 24.0195 45.0084 23.7746 45.8228 23.4771L46.1765 23.3477V26.6082C46.1766 27.7645 46.0785 28.9187 45.8832 30.0584C45.6638 31.42 45.2785 32.7496 44.736 34.0176V34.078C44.0695 35.8561 42.8436 37.3696 41.2426 38.3908H41.1822C41.035 38.4732 40.8822 38.5452 40.7251 38.6064H40.6561L40.3196 38.7186L39.9919 38.8048C39.895 38.827 39.7972 38.8443 39.6986 38.8566C39.5272 38.8832 39.3544 38.9005 39.1811 38.9083H38.9654C38.7893 38.9 38.6137 38.8828 38.4393 38.8566L38.1546 38.8048L37.7837 38.7013L37.4904 38.6064H37.4214C37.2708 38.5462 37.1239 38.4771 36.9815 38.3994H36.9298L36.8866 38.3477ZM40.6129 42.0826V42.488L40.2161 42.3327C39.8548 42.173 39.464 42.0907 39.0689 42.0912C38.6565 42.0927 38.2486 42.1778 37.87 42.3413L37.4732 42.5052V42.0826C37.5409 41.2786 37.5003 40.4692 37.3524 39.676L37.2748 39.2534L37.6888 39.3741C37.7933 39.4053 37.9 39.4284 38.008 39.4431L38.2926 39.5035C38.5261 39.5446 38.7628 39.5648 38.9999 39.5639H39.0603C39.2974 39.5648 39.5341 39.5446 39.7676 39.5035H39.8625L40.0523 39.4604C40.1629 39.4448 40.2725 39.4218 40.38 39.3914L40.7854 39.2706L40.7078 39.6933C40.5665 40.4668 40.523 41.255 40.5784 42.0394L40.6129 42.0826ZM36.7831 44.9981C36.7834 44.4668 36.973 43.953 37.3179 43.5489C37.394 43.4614 37.4746 43.3779 37.5594 43.2988C37.6004 43.2617 37.6436 43.2271 37.6888 43.1953C37.7813 43.1242 37.8794 43.0608 37.9821 43.0055L38.1115 42.9365C38.2235 42.8882 38.3388 42.8478 38.4565 42.8157H38.5686C38.8886 42.7354 39.2234 42.7354 39.5433 42.8157L39.6986 42.8589L40.0005 42.971L40.1644 43.0573C40.2545 43.1088 40.341 43.1664 40.4231 43.2298L40.5525 43.3333C40.6374 43.4124 40.718 43.4959 40.794 43.5834C41.1389 43.9875 41.3286 44.5013 41.3289 45.0325C41.3303 45.5615 41.1404 46.0732 40.794 46.473C40.7226 46.5673 40.6417 46.654 40.5525 46.7318L40.4231 46.8353C40.3273 46.9084 40.2264 46.9747 40.1212 47.0337L40.0005 47.0941C39.8885 47.1424 39.7732 47.1828 39.6555 47.2148H39.5433C39.2221 47.2838 38.8899 47.2838 38.5686 47.2148L38.4134 47.1631C38.3098 47.1377 38.2088 47.1031 38.1115 47.0596L37.9476 46.9733C37.8575 46.9218 37.771 46.8642 37.6888 46.8008L37.5594 46.6973C37.4746 46.6182 37.394 46.5347 37.3179 46.4472C36.9508 46.0369 36.748 45.5055 36.7486 44.9549L36.7831 44.9981ZM37.4991 47.9135V47.465L37.9131 47.6634C38.2784 47.8201 38.6714 47.9022 39.0689 47.9049C39.4754 47.8999 39.877 47.8149 40.2507 47.6547L40.6561 47.465V47.9135C40.6086 48.5797 40.6086 49.2484 40.6561 49.9147V50.1993H37.4732V49.9147C37.5186 49.2425 37.5157 48.568 37.4646 47.8963L37.4991 47.9135ZM29.874 55.2108L29.9344 54.9003C30.0446 54.2981 30.3186 53.738 30.7265 53.2815C31.1343 52.825 31.6601 52.4897 32.2461 52.3126L37.1454 50.8117H40.9666L45.8659 52.3126C46.4519 52.4897 46.9777 52.825 47.3855 53.2815C47.7933 53.738 48.0674 54.2981 48.1776 54.9003L48.238 55.2108H29.874Z" fill="white"/>
<path d="M39.9918 39.1411H39.8883H39.7934H39.7158C39.496 39.1752 39.274 39.1925 39.0516 39.1929H38.9912C38.7688 39.1925 38.5468 39.1752 38.327 39.1411H38.2494H38.1545H38.051C37.9488 39.1254 37.8479 39.1024 37.7491 39.0721L36.9297 38.8392L37.0849 39.7018C37.224 40.4727 37.2645 41.2582 37.2057 42.0393L37.1367 42.9019L37.913 42.5569C38.2441 42.4147 38.6007 42.3414 38.961 42.3414C39.3213 42.3414 39.6779 42.4147 40.009 42.5569H40.0694L40.8457 42.9019L40.7767 42.0393C40.7179 41.2582 40.7585 40.4727 40.8975 39.7018L41.0527 38.8392L40.1902 39.0721C40.1252 39.0983 40.059 39.1214 39.9918 39.1411V39.1411ZM40.3109 42.0566C39.9177 41.8799 39.4914 41.7888 39.0602 41.7892C38.6263 41.7886 38.1971 41.8797 37.8009 42.0566V42.0566C37.8614 41.2293 37.8179 40.3976 37.6715 39.581C37.8181 39.6242 37.9734 39.6501 38.12 39.6846H38.3184C38.5609 39.7246 38.8059 39.7477 39.0516 39.7535H39.1292C39.3778 39.7473 39.6256 39.7242 39.871 39.6846H40.0608C40.2074 39.6846 40.3627 39.6242 40.5093 39.581C40.34 40.3947 40.2734 41.2264 40.3109 42.0566Z" fill="#F6EB86"/>
<path d="M37.154 50.527H37.0763H36.9987L32.1338 52.0192C31.5042 52.2075 30.9385 52.5654 30.4988 53.0538C30.0591 53.5422 29.7623 54.1422 29.641 54.788L29.5203 55.4177H48.4967L48.3759 54.788C48.2546 54.1422 47.9578 53.5422 47.5181 53.0538C47.0784 52.5654 46.5128 52.2075 45.8831 52.0192L41.0182 50.527H40.9492H37.1281H37.154ZM45.7796 52.5368C46.3183 52.6984 46.8021 53.0052 47.178 53.4236C47.5538 53.8421 47.8071 54.3559 47.9101 54.9088H30.1327C30.2357 54.3559 30.489 53.8421 30.8649 53.4236C31.2407 53.0052 31.7245 52.6984 32.2632 52.5368L37.1281 51.0532H40.863L45.7796 52.5368Z" fill="#F6EB86"/>
<path d="M40.5524 42.9365L40.2591 42.7468L40.1125 42.6691C39.9922 42.617 39.8682 42.5738 39.7416 42.5398H39.6036C39.2429 42.4594 38.8689 42.4594 38.5081 42.5398L38.3356 42.5915L37.9992 42.7123L37.8526 42.7899L37.5679 42.9797L37.4213 43.1004L37.1453 43.3765C36.7607 43.8276 36.5494 44.401 36.5494 44.9938C36.5494 45.5866 36.7607 46.16 37.1453 46.6111C37.2307 46.7122 37.3229 46.8073 37.4213 46.8957L37.5679 47.0165L37.8526 47.2062C37.8985 47.2398 37.9476 47.2686 37.9992 47.2925C38.12 47.3442 38.2407 47.3788 38.3701 47.4219H38.5081C38.8689 47.5023 39.2429 47.5023 39.6036 47.4219L39.7761 47.3701L40.1125 47.2494L40.2591 47.1717L40.5524 46.982L40.6904 46.8612C40.7889 46.7728 40.8811 46.6777 40.9665 46.5766C41.3511 46.1255 41.5623 45.5521 41.5623 44.9593C41.5623 44.3665 41.3511 43.7931 40.9665 43.3419L40.6904 43.0659L40.5524 42.9365ZM41.0268 44.9549C41.0238 45.4215 40.8592 45.8726 40.561 46.2315C40.4929 46.3126 40.4178 46.3876 40.3368 46.4558L40.2333 46.5507C40.1559 46.6046 40.0752 46.6535 39.9917 46.6973L39.8624 46.775C39.7732 46.8143 39.6809 46.8461 39.5863 46.8698L39.457 46.913C39.1734 46.9804 38.878 46.9804 38.5944 46.913L38.465 46.8698C38.3729 46.8473 38.2833 46.8155 38.1976 46.775L38.051 46.6973L37.8267 46.5507L37.706 46.4558C37.6298 46.3852 37.5578 46.3104 37.4903 46.2315C37.1806 45.8716 37.0104 45.4125 37.0104 44.9377C37.0104 44.4629 37.1806 44.0038 37.4903 43.6439C37.5578 43.565 37.6298 43.4901 37.706 43.4196L37.8267 43.3247C37.896 43.2679 37.9712 43.2188 38.051 43.1781C38.098 43.1489 38.147 43.1229 38.1976 43.1004C38.2833 43.0599 38.3729 43.0281 38.465 43.0055L38.5944 42.9624C38.878 42.8949 39.1734 42.8949 39.457 42.9624L39.5863 43.0055C39.6784 43.0281 39.768 43.0599 39.8537 43.1004C39.9043 43.1229 39.9533 43.1489 40.0004 43.1781C40.0802 43.2188 40.1554 43.2679 40.2247 43.3247L40.3454 43.4196C40.4237 43.4879 40.4959 43.5629 40.561 43.6439C40.8688 44.0107 41.0342 44.4761 41.0268 44.9549V44.9549Z" fill="#F6EB86"/>
<path d="M53.4219 54.9088H49.0573C48.9451 54.1113 48.6068 53.3625 48.0825 52.7511C47.5582 52.1397 46.8699 51.6912 46.0988 51.4586L41.5099 50.0526C41.4059 49.1701 41.4059 48.2784 41.5099 47.3959L41.6048 46.7748C41.9698 46.2461 42.1653 45.6188 42.1653 44.9764C42.1653 44.3339 41.9698 43.7067 41.6048 43.1779L41.5099 42.5655C41.3366 41.3648 41.4249 40.1407 41.7687 38.9773C43.364 37.8974 44.6084 36.3741 45.3483 34.5954L46.6594 34.0434C48.4967 33.2689 50.0645 31.9694 51.1662 30.3075C52.268 28.6457 52.8546 26.6957 52.8526 24.7018V19.5782C52.8526 19.5015 52.8374 19.4257 52.8078 19.355C52.7782 19.2843 52.7349 19.2202 52.6803 19.1664C52.6257 19.1127 52.561 19.0703 52.4899 19.0417C52.4188 19.0132 52.3427 18.9991 52.2661 19.0003C51.3274 19.0025 50.4278 19.377 49.7649 20.0416C49.1019 20.7062 48.7296 21.6067 48.7296 22.5454V24.8571C48.7302 25.6181 48.5654 26.3701 48.2467 27.0612C47.928 27.7522 47.4629 28.3658 46.8837 28.8594C46.9664 28.0886 47.0096 27.3142 47.0131 26.5391V22.8387V19.5782C47.0125 19.4827 46.9886 19.3888 46.9436 19.3046C46.8985 19.2204 46.8335 19.1485 46.7543 19.0951C46.6564 19.0326 46.5426 18.9997 46.4265 19.0003C46.3523 18.9979 46.2785 19.0126 46.2109 19.0434C41.5856 20.9298 36.4055 20.9298 31.7802 19.0434C31.7126 19.0126 31.6388 18.9979 31.5645 19.0003C31.4484 18.9997 31.3346 19.0326 31.2368 19.0951L31.5818 19.535C36.3355 21.4668 41.6555 21.4668 46.4093 19.535H46.5214V26.4959C46.5191 27.251 46.4759 28.0054 46.392 28.7559L46.254 30.0411L46.2109 30.274C46.0584 31.1519 45.8393 32.017 45.5553 32.8617L45.1844 33.9744L46.2626 33.5172L46.4783 33.4223C48.2006 32.6969 49.6702 31.479 50.703 29.9215C51.7357 28.3639 52.2855 26.5361 52.2833 24.6673V19.4919L51.6278 19.6558C50.9985 19.8152 50.4404 20.1801 50.042 20.6926C49.6436 21.205 49.4276 21.8359 49.4282 22.485V24.7967C49.4281 25.8352 49.1546 26.8555 48.6353 27.7548C48.116 28.6542 47.3691 29.401 46.4697 29.9203L46.4093 29.9634L47.2718 29.1958C47.907 28.6521 48.417 27.9774 48.7669 27.2181C49.1168 26.4588 49.2982 25.6327 49.2989 24.7967V22.485C49.2989 21.6858 49.6157 20.9192 50.18 20.3533C50.7443 19.7874 51.51 19.4683 52.3092 19.466C52.3229 19.466 52.3361 19.4715 52.3458 19.4812C52.3555 19.4909 52.361 19.5041 52.361 19.5178V24.6414C52.3638 26.5314 51.8087 28.3802 50.7653 29.956C49.7219 31.5319 48.2366 32.7647 46.4955 33.5L45.1844 34.052L45.0033 34.1296L44.917 34.3108C44.2198 35.9968 43.0444 37.4421 41.5358 38.4683L41.3546 38.5805L41.3029 38.7702C40.9417 40.0042 40.8476 41.301 41.0269 42.5741L41.1217 43.1952V43.316L41.1908 43.4195C41.5028 43.8577 41.6705 44.3823 41.6705 44.9203C41.6705 45.4583 41.5028 45.9829 41.1908 46.4212L41.1217 46.5161V46.6368L41.0269 47.2579C40.9227 48.1836 40.9227 49.1182 41.0269 50.0439V50.3976L41.3633 50.5011L45.9521 51.8985C46.6307 52.1032 47.2358 52.4994 47.6948 53.0395C48.1538 53.5796 48.4472 54.2406 48.5398 54.9433L48.6002 55.4005H53.4219C53.4356 55.4005 53.4488 55.4059 53.4585 55.4156C53.4682 55.4253 53.4737 55.4385 53.4737 55.4522C53.4737 55.466 53.4682 55.4791 53.4585 55.4888C53.4488 55.4985 53.4356 55.504 53.4219 55.504H24.6295C24.6158 55.504 24.6026 55.4985 24.5929 55.4888C24.5832 55.4791 24.5778 55.466 24.5778 55.4522C24.5778 55.4385 24.5832 55.4253 24.5929 55.4156C24.6026 55.4059 24.6158 55.4005 24.6295 55.4005H29.4512L29.5116 54.9433C29.6042 54.2406 29.8977 53.5796 30.3567 53.0395C30.8157 52.4994 31.4207 52.1032 32.0993 51.8985L36.6882 50.5011L37.0246 50.3976V50.0439C37.1288 49.1182 37.1288 48.1836 37.0246 47.2579L36.9297 46.6368V46.5161L36.8607 46.4212C36.5486 45.9829 36.381 45.4583 36.381 44.9203C36.381 44.3823 36.5486 43.8577 36.8607 43.4195L36.9297 43.316V43.1952L37.0246 42.5828C37.2046 41.3067 37.1105 40.007 36.7486 38.7702L36.6968 38.5805L36.5243 38.4683C35.0108 37.4452 33.8318 35.9993 33.1344 34.3108L33.0481 34.1296L32.867 34.052L31.5559 33.5C29.8148 32.7647 28.3295 31.5319 27.2861 29.956C26.2427 28.3802 25.6876 26.5314 25.6905 24.6414V19.5178C25.6905 19.5041 25.6959 19.4909 25.7056 19.4812C25.7153 19.4715 25.7285 19.466 25.7422 19.466C26.5414 19.4683 27.3071 19.7874 27.8714 20.3533C28.4357 20.9192 28.7526 21.6858 28.7526 22.485V24.7967C28.7532 25.6327 28.9347 26.4588 29.2846 27.2181C29.6344 27.9774 30.1445 28.6521 30.7796 29.1958L31.6422 29.9634L31.5818 29.9203C30.683 29.4004 29.9365 28.6534 29.4173 27.7542C28.898 26.8549 28.6242 25.8351 28.6232 24.7967V22.485C28.6239 21.8359 28.4079 21.205 28.0094 20.6926C27.611 20.1801 27.0529 19.8152 26.4237 19.6558L25.7681 19.4919V24.6673C25.766 26.5361 26.3157 28.3639 27.3485 29.9215C28.3812 31.479 29.8509 32.6969 31.5732 33.4223L31.7888 33.5172L32.867 33.9744L32.4961 32.8617C32.2121 32.017 31.993 31.1519 31.8406 30.274V30.0411L31.7025 28.7559C31.6186 28.0054 31.5755 27.251 31.5732 26.4959V19.535L31.2799 19.0951C31.2007 19.1485 31.1357 19.2204 31.0906 19.3046C31.0455 19.3888 31.0217 19.4827 31.0211 19.5782V26.5391C31.0246 27.3142 31.0677 28.0886 31.1505 28.8594C30.5713 28.3658 30.1062 27.7522 29.7875 27.0612C29.4688 26.3701 29.304 25.6181 29.3046 24.8571V22.5454C29.3046 21.6067 28.9323 20.7062 28.2693 20.0416C27.6063 19.377 26.7068 19.0025 25.7681 19.0003C25.614 19.0002 25.4661 19.0608 25.3564 19.169C25.2466 19.2771 25.1838 19.4241 25.1816 19.5782V24.7018C25.1796 26.6957 25.7662 28.6457 26.8679 30.3075C27.9697 31.9694 29.5375 33.2689 31.3748 34.0434L32.6859 34.5954C33.4259 36.3766 34.6738 37.9005 36.2741 38.9773C36.6153 40.1413 36.7007 41.3654 36.5243 42.5655L36.4294 43.1779C36.0644 43.7067 35.8689 44.3339 35.8689 44.9764C35.8689 45.6188 36.0644 46.2461 36.4294 46.7748L36.5243 47.3959C36.6283 48.2784 36.6283 49.1701 36.5243 50.0526L31.9354 51.4586C31.1643 51.6912 30.476 52.1397 29.9517 52.7511C29.4274 53.3625 29.0891 54.1113 28.9768 54.9088H24.6209C24.545 54.9088 24.4698 54.9238 24.3997 54.9528C24.3296 54.9819 24.2659 55.0244 24.2122 55.0781C24.1586 55.1317 24.116 55.1955 24.087 55.2656C24.0579 55.3357 24.043 55.4108 24.043 55.4867C24.043 55.5626 24.0579 55.6378 24.087 55.7079C24.116 55.778 24.1586 55.8417 24.2122 55.8954C24.2659 55.9491 24.3296 55.9916 24.3997 56.0207C24.4698 56.0497 24.545 56.0647 24.6209 56.0647H53.4219C53.4978 56.0647 53.573 56.0497 53.6431 56.0207C53.7132 55.9916 53.7769 55.9491 53.8306 55.8954C53.8842 55.8417 53.9268 55.778 53.9558 55.7079C53.9849 55.6378 53.9999 55.5626 53.9999 55.4867C53.9999 55.4108 53.9849 55.3357 53.9558 55.2656C53.9268 55.1955 53.8842 55.1317 53.8306 55.0781C53.7769 55.0244 53.7132 54.9819 53.6431 54.9528C53.573 54.9238 53.4978 54.9088 53.4219 54.9088V54.9088ZM46.6853 30.412C47.6681 29.8497 48.4843 29.037 49.051 28.0567C49.6177 27.0764 49.9145 25.9635 49.9113 24.8312V22.5195C49.9113 21.991 50.0866 21.4774 50.4097 21.0591C50.7327 20.6408 51.1854 20.3414 51.6968 20.2078V24.6759C51.7002 26.4421 51.1812 28.1698 50.205 29.6417C49.2289 31.1136 47.8392 32.2639 46.2109 32.9479L45.9953 33.0428C46.2931 32.1851 46.5238 31.3055 46.6853 30.412V30.412ZM32.0217 32.9997L31.8061 32.9048C30.1791 32.2189 28.7907 31.0681 27.8148 29.5967C26.8389 28.1252 26.319 26.3985 26.3201 24.6328V20.2078C26.8347 20.3381 27.2913 20.6361 27.6177 21.0547C27.9442 21.4733 28.1219 21.9887 28.1229 22.5195V24.8312C28.1197 25.9635 28.4165 27.0764 28.9832 28.0567C29.5498 29.037 30.3661 29.8497 31.3489 30.412C31.5076 31.3053 31.7354 32.1848 32.0303 33.0428L32.0217 32.9997Z" fill="#F6EB86"/>
<path d="M40.906 47.0334L40.1297 47.3785C39.7986 47.5206 39.4421 47.5939 39.0817 47.5939C38.7214 47.5939 38.3648 47.5206 38.0337 47.3785H37.9733L37.197 47.0334L37.2574 47.896C37.3048 48.5478 37.3048 49.2022 37.2574 49.854L37.2143 50.432H40.9664L40.9233 49.854C40.8759 49.2022 40.8759 48.5478 40.9233 47.896L40.906 47.0334ZM37.7146 49.9144C37.7663 49.2368 37.7663 48.5563 37.7146 47.8788H37.7577C38.1556 48.0496 38.584 48.1377 39.017 48.1377C39.45 48.1377 39.8785 48.0496 40.2764 47.8788V47.8788C40.2246 48.5592 40.2246 49.2426 40.2764 49.923L37.7146 49.9144Z" fill="#F6EB86"/>
<path d="M31.6164 30.3689V30.2482L31.5129 30.1878C30.5725 29.6448 29.7913 28.8641 29.2478 27.9239C28.7043 26.9837 28.4176 25.9172 28.4163 24.8312V22.5196C28.4213 21.9276 28.2277 21.351 27.8665 20.882C27.5053 20.4129 26.9974 20.0784 26.4238 19.9319L26.0874 19.8542V24.6587C26.0861 26.4764 26.6216 28.2541 27.6267 29.7686C28.6318 31.2832 30.0618 32.4672 31.7372 33.1722L31.9528 33.2671L32.4963 33.4914L32.3065 32.9394C32.0134 32.1007 31.7828 31.2416 31.6164 30.3689V30.3689ZM31.8148 32.9566C30.1879 32.2707 28.7994 31.1199 27.8236 29.6485C26.8477 28.177 26.3278 26.4503 26.3289 24.6846V20.2079C26.8435 20.3382 27.3 20.6362 27.6265 21.0548C27.9529 21.4734 28.1307 21.9887 28.1317 22.5196V24.8312C28.1285 25.9635 28.4253 27.0765 28.992 28.0567C29.5586 29.037 30.3749 29.8497 31.3577 30.412C31.5157 31.2905 31.7406 32.1556 32.0305 32.9997L31.8148 32.9566Z" fill="#E59323"/>
<path d="M45.5725 33.5171L46.1159 33.2842L46.3316 33.1894C48.007 32.4843 49.437 31.3003 50.4421 29.7857C51.4472 28.2712 51.9826 26.4936 51.9814 24.6758V19.8713L51.6536 19.949C51.0784 20.0939 50.5685 20.4277 50.2057 20.8969C49.8428 21.3661 49.648 21.9435 49.6525 22.5367V24.8483C49.6512 25.9343 49.3645 27.0008 48.821 27.941C48.2775 28.8812 47.4963 29.6619 46.5558 30.2049L46.4523 30.2652V30.386C46.2953 31.2638 46.0733 32.1288 45.7882 32.9737L45.5725 33.5171ZM46.6852 30.4119C47.668 29.8496 48.4843 29.0369 49.0509 28.0566C49.6176 27.0763 49.9144 25.9634 49.9112 24.8311V22.5194C49.9112 21.9909 50.0865 21.4773 50.4096 21.059C50.7327 20.6407 51.1853 20.3413 51.6967 20.2077V24.6758C51.7001 26.442 51.1811 28.1697 50.205 29.6416C49.2288 31.1135 47.8392 32.2638 46.2108 32.9478L45.9952 33.0427C46.293 32.185 46.5237 31.3054 46.6852 30.4119Z" fill="#E59323"/>
<path d="M53.4221 54.9088H49.0575C48.9452 54.1113 48.6069 53.3625 48.0827 52.7511C47.5584 52.1397 46.87 51.6912 46.0989 51.4586L41.5101 50.0526C41.4061 49.1701 41.4061 48.2784 41.5101 47.3959L41.6049 46.7748C41.9699 46.2461 42.1654 45.6188 42.1654 44.9764C42.1654 44.3339 41.9699 43.7067 41.6049 43.1779L41.5101 42.5655C41.3368 41.3648 41.425 40.1407 41.7688 38.9773C43.3642 37.8974 44.6086 36.3741 45.3485 34.5954L46.6596 34.0434C48.4969 33.2689 50.0647 31.9694 51.1664 30.3075C52.2681 28.6457 52.8548 26.6957 52.8528 24.7018V19.5782C52.8528 19.5015 52.8376 19.4257 52.808 19.355C52.7784 19.2843 52.735 19.2202 52.6805 19.1664C52.6259 19.1127 52.5612 19.0703 52.49 19.0417C52.4189 19.0132 52.3429 18.9991 52.2662 19.0003C51.3275 19.0025 50.428 19.377 49.765 20.0416C49.102 20.7062 48.7297 21.6067 48.7297 22.5454V24.8571C48.7303 25.6181 48.5656 26.3701 48.2468 27.0612C47.9281 27.7522 47.4631 28.3658 46.8838 28.8594C46.9666 28.0886 47.0098 27.3142 47.0132 26.5391V22.8387V19.5782C47.0127 19.4827 46.9888 19.3888 46.9437 19.3046C46.8986 19.2204 46.8336 19.1485 46.7544 19.0951C46.6566 19.0326 46.5428 18.9997 46.4267 19.0003C46.3524 18.9979 46.2787 19.0126 46.211 19.0434C41.5858 20.9298 36.4056 20.9298 31.7803 19.0434C31.7127 19.0126 31.6389 18.9979 31.5647 19.0003C31.4486 18.9997 31.3348 19.0326 31.2369 19.0951C31.1577 19.1485 31.0927 19.2204 31.0476 19.3046C31.0025 19.3888 30.9787 19.4827 30.9781 19.5782V26.5391C30.9816 27.3142 31.0248 28.0886 31.1075 28.8594C30.5283 28.3658 30.0632 27.7522 29.7445 27.0612C29.4258 26.3701 29.261 25.6181 29.2616 24.8571V22.5454C29.2616 21.6067 28.8893 20.7062 28.2263 20.0416C27.5633 19.377 26.6639 19.0025 25.7251 19.0003C25.5711 19.0002 25.4231 19.0608 25.3134 19.169C25.2036 19.2771 25.1408 19.4241 25.1386 19.5782V24.7018C25.1366 26.6957 25.7232 28.6457 26.8249 30.3075C27.9267 31.9694 29.4945 33.2689 31.3318 34.0434L32.6429 34.5954C33.3829 36.3766 34.6309 37.9005 36.2312 38.9773C36.5723 40.1413 36.6577 41.3654 36.4813 42.5655L36.3864 43.1779C36.0214 43.7067 35.8259 44.3339 35.8259 44.9764C35.8259 45.6188 36.0214 46.2461 36.3864 46.7748L36.4813 47.3959C36.5853 48.2784 36.5853 49.1701 36.4813 50.0526L31.8925 51.4586C31.1214 51.6912 30.433 52.1397 29.9087 52.7511C29.3844 53.3625 29.0461 54.1113 28.9338 54.9088H24.5779C24.502 54.9088 24.4269 54.9238 24.3567 54.9528C24.2866 54.9819 24.2229 55.0244 24.1693 55.0781C24.1156 55.1317 24.073 55.1955 24.044 55.2656C24.0149 55.3357 24 55.4108 24 55.4867C24 55.5626 24.0149 55.6378 24.044 55.7079C24.073 55.778 24.1156 55.8417 24.1693 55.8954C24.2229 55.9491 24.2866 55.9916 24.3567 56.0207C24.4269 56.0497 24.502 56.0647 24.5779 56.0647H53.4221C53.498 56.0647 53.5731 56.0497 53.6432 56.0207C53.7134 55.9916 53.7771 55.9491 53.8307 55.8954C53.8844 55.8417 53.9269 55.778 53.956 55.7079C53.985 55.6378 54 55.5626 54 55.4867C54 55.4108 53.985 55.3357 53.956 55.2656C53.9269 55.1955 53.8844 55.1317 53.8307 55.0781C53.7771 55.0244 53.7134 54.9819 53.6432 54.9528C53.5731 54.9238 53.498 54.9088 53.4221 54.9088V54.9088ZM53.4221 55.7714H24.6297C24.545 55.7714 24.4638 55.7378 24.404 55.6779C24.3441 55.6181 24.3105 55.5369 24.3105 55.4522C24.3105 55.3676 24.3441 55.2864 24.404 55.2266C24.4638 55.1667 24.545 55.1331 24.6297 55.1331H29.2185V54.9088C29.3141 54.1554 29.6268 53.446 30.1184 52.8671C30.61 52.2882 31.2594 51.8648 31.9873 51.6483L36.5762 50.2423L36.7487 50.1906V50.0181C36.8532 49.1154 36.8532 48.2037 36.7487 47.301L36.6624 46.6799V46.6196V46.5678C36.3255 46.0845 36.1449 45.5095 36.1449 44.9203C36.1449 44.3311 36.3255 43.7562 36.6624 43.2728V43.2211V43.1607L36.7487 42.5396C36.9306 41.3048 36.8423 40.0452 36.4899 38.8479V38.7444L36.4037 38.6926C34.8472 37.641 33.6328 36.1567 32.9103 34.4229V34.3367L32.8154 34.2935L31.5043 33.7415C29.7132 32.9884 28.1845 31.7229 27.1102 30.1038C26.036 28.4848 25.4641 26.5844 25.4663 24.6414V19.5178C25.4663 19.4332 25.5 19.352 25.5598 19.2921C25.6197 19.2323 25.7008 19.1986 25.7855 19.1986C26.6556 19.2009 27.4893 19.5482 28.1037 20.1642C28.7182 20.7803 29.0633 21.6149 29.0633 22.485V24.7967C29.0642 25.5947 29.2372 26.383 29.5707 27.108C29.9041 27.8329 30.3901 28.4774 30.9954 28.9974L31.5043 29.4287L31.4353 28.7645C31.3514 28.0054 31.3082 27.2424 31.3059 26.4787V19.5178C31.3065 19.4668 31.3194 19.4166 31.3434 19.3716C31.3674 19.3266 31.4019 19.288 31.4439 19.259C31.497 19.2214 31.56 19.2003 31.6251 19.1986C31.662 19.1907 31.7002 19.1907 31.7372 19.1986C36.435 21.1264 41.703 21.1264 46.4008 19.1986C46.4377 19.1907 46.476 19.1907 46.5129 19.1986C46.578 19.2003 46.641 19.2214 46.6941 19.259C46.7361 19.288 46.7705 19.3266 46.7946 19.3716C46.8186 19.4166 46.8314 19.4668 46.8321 19.5178V26.4787C46.8298 27.2424 46.7866 28.0054 46.7027 28.7645L46.6337 29.4287L47.1426 28.9974C47.7479 28.4774 48.2339 27.8329 48.5673 27.108C48.9008 26.383 49.0738 25.5947 49.0747 24.7967V22.485C49.0747 21.6149 49.4198 20.7803 50.0343 20.1642C50.6487 19.5482 51.4824 19.2009 52.3525 19.1986C52.4371 19.1986 52.5183 19.2323 52.5782 19.2921C52.638 19.352 52.6716 19.4332 52.6716 19.5178V24.6414C52.6739 26.5844 52.102 28.4848 51.0278 30.1038C49.9535 31.7229 48.4248 32.9884 46.6337 33.7415L45.3226 34.2935L45.2363 34.3367L45.1932 34.4229C44.4802 36.1498 43.2817 37.6329 41.7429 38.6926L41.6481 38.7444V38.8479C41.2957 40.0452 41.2074 41.3048 41.3893 42.5396L41.4755 43.1607V43.2211V43.2728C41.8125 43.7562 41.9931 44.3311 41.9931 44.9203C41.9931 45.5095 41.8125 46.0845 41.4755 46.5678V46.6196V46.6799L41.3893 47.301C41.2892 48.2039 41.2892 49.1151 41.3893 50.0181V50.1906L41.5618 50.2423L46.1507 51.6483C46.8786 51.8648 47.528 52.2882 48.0196 52.8671C48.5112 53.446 48.8238 54.1554 48.9195 54.9088V55.1331H53.4221C53.5067 55.1331 53.5879 55.1667 53.6477 55.2266C53.7076 55.2864 53.7412 55.3676 53.7412 55.4522C53.7412 55.5369 53.7076 55.6181 53.6477 55.6779C53.5879 55.7378 53.5067 55.7714 53.4221 55.7714V55.7714Z" fill="#E59323"/>
<path d="M40.6387 47.4216L40.2333 47.6028H40.1729C39.8109 47.7603 39.4206 47.8425 39.0257 47.8443C38.6282 47.8416 38.2352 47.7594 37.8699 47.6028V47.6028L37.4645 47.4216V47.8615C37.5119 48.5277 37.5119 49.1965 37.4645 49.8627V50.1473H40.6473V49.8627C40.5999 49.1965 40.5999 48.5277 40.6473 47.8615L40.6387 47.4216ZM37.7146 49.8886C37.7664 49.211 37.7664 48.5305 37.7146 47.8529H37.7577C38.1556 48.0238 38.5841 48.1119 39.0171 48.1119C39.4501 48.1119 39.8786 48.0238 40.2764 47.8529V47.8529C40.2247 48.5334 40.2247 49.2167 40.2764 49.8972L37.7146 49.8886Z" fill="#E59323"/>
<path d="M45.8314 52.2867L40.9665 50.8031H37.1454L32.2805 52.2867C31.6945 52.4638 31.1688 52.7991 30.7609 53.2556C30.3531 53.7121 30.079 54.2723 29.9688 54.8744L29.9084 55.1849H48.2466L48.1862 54.8744C48.0725 54.2671 47.792 53.7033 47.3761 53.2463C46.9602 52.7893 46.4254 52.457 45.8314 52.2867V52.2867ZM30.1586 54.8744C30.2616 54.3215 30.515 53.8076 30.8908 53.3892C31.2666 52.9708 31.7504 52.6639 32.2891 52.5024L37.154 51.0187H40.8889L45.7538 52.5024C46.2925 52.6639 46.7763 52.9708 47.1521 53.3892C47.528 53.8076 47.7813 54.3215 47.8843 54.8744H30.1586Z" fill="#E59323"/>
<path d="M37.5248 46.6542L37.6542 46.7577C37.7364 46.8211 37.8228 46.8787 37.913 46.9302V46.9302L38.0424 46.9992L38.3442 47.1027H38.3874H38.4995C38.8208 47.1717 39.153 47.1717 39.4742 47.1027H39.5863H39.6295L39.9314 46.9906L40.0608 46.9216C40.1548 46.872 40.2443 46.8143 40.3282 46.7491L40.4575 46.6455C40.5467 46.5678 40.6276 46.4811 40.6991 46.3868C41.0454 45.9869 41.2353 45.4752 41.2338 44.9463C41.2329 44.6203 41.1633 44.2982 41.0295 44.001C40.8957 43.7038 40.7008 43.438 40.4575 43.2211C40.4165 43.184 40.3733 43.1495 40.3282 43.1176C40.246 43.0542 40.1595 42.9966 40.0694 42.9451V42.9451L39.94 42.8761C39.8433 42.8289 39.7422 42.7913 39.6381 42.764H39.6209H39.5087C39.1888 42.6837 38.8539 42.6837 38.534 42.764H38.4219H38.3788C38.2747 42.7913 38.1735 42.8289 38.0769 42.8761L37.9475 42.9451C37.8573 42.9966 37.7709 43.0542 37.6887 43.1176C37.6435 43.1495 37.6003 43.184 37.5593 43.2211C37.4745 43.3002 37.3938 43.3837 37.3178 43.4713C36.9733 43.8755 36.7841 44.3893 36.7841 44.9204C36.7841 45.4515 36.9733 45.9653 37.3178 46.3695C37.3817 46.468 37.4508 46.563 37.5248 46.6542V46.6542ZM37.4817 43.6783C37.5492 43.5995 37.6212 43.5246 37.6973 43.4541L37.8181 43.3592C37.8874 43.3024 37.9626 43.2532 38.0424 43.2125C38.0894 43.1833 38.1384 43.1574 38.189 43.1349C38.2747 43.0943 38.3643 43.0625 38.4564 43.04L38.5858 42.9969C38.8693 42.9294 39.1648 42.9294 39.4483 42.9969L39.5777 43.04C39.6698 43.0625 39.7594 43.0943 39.8451 43.1349C39.8957 43.1574 39.9447 43.1833 39.9917 43.2125C40.0715 43.2532 40.1467 43.3024 40.216 43.3592L40.3368 43.4541C40.4151 43.5224 40.4872 43.5974 40.5524 43.6783C40.8621 44.0383 41.0324 44.4973 41.0324 44.9721C41.0324 45.447 40.8621 45.906 40.5524 46.266C40.4843 46.3471 40.4092 46.4221 40.3282 46.4903L40.2247 46.5852C40.1473 46.6391 40.0666 46.688 39.9831 46.7318L39.8537 46.8094C39.7646 46.8488 39.6723 46.8805 39.5777 46.9043L39.4483 46.9474C39.1648 47.0149 38.8693 47.0149 38.5858 46.9474L38.4564 46.9043C38.3643 46.8818 38.2747 46.85 38.189 46.8094L38.0424 46.7318L37.8181 46.5852L37.6973 46.4903C37.6212 46.4197 37.5492 46.3448 37.4817 46.266C37.172 45.906 37.0017 45.447 37.0017 44.9721C37.0017 44.4973 37.172 44.0383 37.4817 43.6783V43.6783Z" fill="#E59323"/>
<path d="M40.7768 39.21L40.3714 39.3307C40.2611 39.362 40.1486 39.385 40.035 39.3997H39.9401H39.8538H39.7589C39.5254 39.4409 39.2887 39.4611 39.0516 39.4601H38.9912C38.7541 39.4611 38.5175 39.4409 38.284 39.3997H38.1891H38.1028H38.0079C37.8969 39.3859 37.7873 39.3628 37.6802 39.3307L37.2661 39.21L37.3437 39.6326C37.4916 40.4258 37.5322 41.2352 37.4645 42.0392L37.4128 42.4877L37.8182 42.3066H37.8958C38.2588 42.1472 38.6509 42.0649 39.0473 42.0649C39.4437 42.0649 39.8359 42.1472 40.1989 42.3066V42.3066L40.6043 42.4877V42.0478C40.5408 41.2438 40.5814 40.4349 40.725 39.6412L40.7768 39.21ZM40.311 42.0564C39.9177 41.8798 39.4914 41.7886 39.0603 41.789C38.6263 41.7885 38.1972 41.8796 37.8009 42.0564V42.0564C37.8614 41.2291 37.8179 40.3974 37.6715 39.5809C37.8182 39.624 37.9734 39.6499 38.1201 39.6844H38.3184C38.5609 39.7245 38.8059 39.7475 39.0516 39.7534H39.1293C39.3778 39.7471 39.6256 39.7241 39.8711 39.6844H40.0608C40.2075 39.6844 40.3627 39.624 40.5094 39.5809C40.3401 40.3945 40.2734 41.2262 40.311 42.0564V42.0564Z" fill="#E59323"/>
<path d="M37.0779 37.8552L37.1458 37.8928C37.2534 37.9523 37.364 38.0063 37.4771 38.0546H37.5293L37.6211 38.0926C37.6795 38.1167 37.7387 38.1386 37.7987 38.1581H37.8413L37.9054 38.1754L38.2147 38.259C38.2904 38.276 38.3667 38.2894 38.4436 38.2992L38.9299 38.3479H39.0961L39.5774 38.3005L39.8229 38.2559L40.1319 38.1746L40.1945 38.1581H40.2298L40.4374 38.0889L40.5144 38.0632H40.5548L40.9036 37.9022L41.0033 37.8562H41.0168C42.468 36.8959 43.5794 35.5003 44.1899 33.8682L44.1938 33.8579L44.1981 33.8477C44.7246 32.6095 45.1015 31.3129 45.3208 29.9854L45.3208 29.9851C45.5054 28.8718 45.5984 27.7452 45.5987 26.6167C45.5987 26.6166 45.5987 26.6166 45.5987 26.6165V24.0685C44.8659 24.3228 44.1192 24.5358 43.3622 24.7065L43.3079 24.7188H43.2523H43.1833H43.1761L43.1761 24.7187C42.9764 24.7159 42.7845 24.6401 42.6367 24.5057C42.4889 24.3713 42.3953 24.1874 42.3735 23.9889C42.3518 23.7903 42.4033 23.5906 42.5185 23.4273C42.6337 23.2641 42.8046 23.1486 42.999 23.1026L43.0035 23.1015L43.0035 23.1015C43.886 22.9012 44.7532 22.639 45.5987 22.3169V20.7718C41.3072 22.2389 36.6494 22.2389 32.3578 20.7718V22.3072C34.4847 23.1019 36.7371 23.5099 39.0085 23.5117L37.0779 37.8552ZM37.0779 37.8552L37.0079 37.8412C35.5277 36.8816 34.3915 35.4742 33.7658 33.8231L33.7623 33.8138L33.7584 33.8046C33.2334 32.57 32.8595 31.2766 32.6446 29.9524L32.6446 29.9524L32.6439 29.9483C32.4542 28.8363 32.3584 27.7103 32.3578 26.5822C32.3578 26.5821 32.3578 26.582 32.3578 26.5819L32.3578 24.0484C34.4968 24.7716 36.7403 25.1411 38.9998 25.1414H38.9998C39.5533 25.1414 40.1192 25.1239 40.6703 25.0794L40.6823 25.0784L40.6943 25.0769C40.8943 25.051 41.0787 24.9551 41.2148 24.8062L41.2271 24.7928L41.2384 24.7785C41.3678 24.6143 41.4302 24.4073 41.4134 24.1992M37.0779 37.8552L41.4134 24.1992M41.4134 24.1992C41.3998 23.9955 41.3097 23.8043 41.1612 23.664L40.8179 24.0275L41.1612 23.664C41.0105 23.5217 40.8109 23.4424 40.6034 23.4427L40.5722 23.4428L40.5412 23.4467C40.0341 23.5111 39.539 23.5117 39.0085 23.5117L41.4134 24.1992Z" stroke="#E59323"/>
<defs>
<radialGradient id="paint0_diamond_301_11" cx="0" cy="0" r="1" gradientUnits="userSpaceOnUse" gradientTransform="translate(37.5 37.5) rotate(45.9496) scale(64.0019 66.4472)">
<stop offset="0.553067" stop-color="#5B0C88"/>
<stop offset="0.755325" stop-color="#340450"/>
</radialGradient>
</defs>
</svg>
